{"glyphs":{"0":{"ha":625,"x_min":11,"x_max":618,"o":"m 256 -17 q 74 57 136 -17 q 11 268 11 131 q 110 593 11 471 q 376 715 210 715 q 556 642 494 715 q 618 432 618 569 q 520 105 618 226 q 256 -17 422 -17 m 308 249 q 425 274 389 249 q 461 354 461 300 q 314 444 461 444 q 167 339 167 444 q 308 249 167 249 z "},"1":{"ha":510,"x_min":-28,"x_max":499,"o":"m 367 188 q 410 122 367 122 l 469 125 l 474 117 l 439 -8 q 251 0 301 0 q 164 -1 201 0 q 94 -6 126 -3 q -28 -14 28 -10 l -3 99 q 92 128 61 106 q 128 193 122 150 q 164 507 164 488 q 156 539 164 526 q 108 551 147 551 l 46 547 l 35 561 l 58 665 q 322 694 225 681 q 483 715 419 707 l 499 656 q 432 556 457 625 q 367 188 367 368 z "},"2":{"ha":665,"x_min":-33,"x_max":657,"o":"m 286 462 q 286 486 286 462 q 224 510 286 510 q 86 422 163 510 l 61 422 l 44 567 q 367 715 208 715 q 526 667 467 715 q 586 542 586 619 q 574 458 586 490 q 333 190 546 389 l 339 178 l 376 178 q 453 206 426 178 q 494 304 479 235 l 657 317 q 583 8 604 132 l 557 -17 q 69 0 210 0 l -33 -8 l -32 61 l 75 168 q 239 351 196 294 q 286 462 286 414 z "},"3":{"ha":607,"x_min":-33,"x_max":565,"o":"m 107 467 l 86 465 l 58 608 q 209 685 125 654 q 372 715 293 715 q 508 674 451 715 q 565 565 565 633 q 518 443 565 497 q 392 365 471 389 l 390 350 q 560 172 560 296 q 489 26 560 97 q 306 -88 418 -44 q 81 -132 194 -132 q -10 -94 11 -132 q -32 24 -32 -57 q -32 54 -32 39 l 3 86 q 121 61 47 61 q 238 85 194 61 q 281 147 281 108 q 140 217 281 217 l 125 238 l 126 363 l 217 381 q 306 488 306 417 q 292 521 306 508 q 254 533 278 533 q 107 467 197 533 z "},"4":{"ha":664,"x_min":-31,"x_max":643,"o":"m 389 713 l 401 715 l 596 699 l 539 240 l 631 240 l 643 219 l 610 63 q 519 65 574 64 l 507 -100 l 490 -115 l 260 -132 l 249 -115 q 279 72 265 -19 q -31 76 119 76 l -12 215 l 389 713 m 308 417 l 176 240 l 301 240 l 324 417 l 308 417 z "},"5":{"ha":569,"x_min":-60,"x_max":599,"o":"m 532 208 q 384 -26 532 79 q 56 -132 236 -132 q -36 -95 -14 -132 q -58 13 -58 -58 q -57 54 -58 32 l -22 86 q 95 61 24 61 q 210 85 167 61 q 254 146 254 110 q 207 202 254 182 q 44 235 160 222 l 33 250 q 117 665 74 424 l 128 676 l 397 685 q 454 698 435 686 q 489 740 474 710 l 599 747 l 529 499 l 499 472 q 263 483 396 483 l 243 411 q 465 339 397 386 q 532 208 532 292 z "},"6":{"ha":639,"x_min":11,"x_max":621,"o":"m 621 318 q 523 74 621 165 q 261 -17 425 -17 q 78 55 144 -17 q 11 249 11 126 q 42 424 11 342 q 123 565 74 507 q 232 670 172 622 q 351 747 292 718 q 542 825 478 808 l 572 832 l 589 822 l 617 710 q 569 690 599 703 q 467 626 540 676 q 344 513 394 575 l 350 497 l 428 526 q 569 470 518 526 q 621 318 621 414 m 329 360 q 253 336 292 360 q 240 244 240 264 q 300 146 240 146 q 365 178 347 146 q 383 276 383 210 q 329 360 383 360 z "},"7":{"ha":588,"x_min":17,"x_max":625,"o":"m 257 699 l 558 699 l 625 601 q 342 67 515 406 l 265 -132 l 226 -132 l 63 -79 l 50 -40 l 375 500 l 256 488 q 174 460 196 481 q 132 374 151 440 l 17 365 q 83 697 58 550 l 93 704 q 257 699 172 699 z "},"8":{"ha":636,"x_min":4,"x_max":635,"o":"m 4 172 q 151 369 4 307 q 63 560 63 446 q 162 753 63 674 q 399 832 261 832 q 567 778 500 832 q 635 644 635 724 q 506 454 635 521 q 597 272 597 388 q 498 69 597 156 q 256 -17 399 -17 q 74 36 144 -17 q 4 172 4 89 m 214 222 q 214 201 214 222 q 233 156 214 179 q 287 133 253 133 q 340 152 321 133 q 360 197 360 171 q 344 240 360 222 q 313 268 328 258 q 274 292 297 278 q 246 308 250 306 q 214 222 214 265 m 317 652 q 308 643 317 652 q 299 606 299 633 q 322 558 299 578 q 392 514 344 538 q 424 606 424 561 q 365 671 424 671 q 317 652 336 671 z "},"9":{"ha":639,"x_min":22,"x_max":633,"o":"m 22 381 q 120 624 22 533 q 382 715 218 715 q 566 644 499 715 q 633 450 633 572 q 602 274 633 357 q 522 134 571 192 q 413 28 472 76 q 293 -49 353 -19 q 103 -125 167 -110 l 72 -133 l 56 -124 l 28 -11 q 75 8 46 -4 q 176 72 104 21 q 299 186 249 124 l 293 201 l 215 172 q 74 228 126 172 q 22 381 22 285 m 314 339 q 389 361 351 339 q 403 454 403 408 q 344 553 403 553 q 278 521 297 553 q 260 422 260 489 q 314 339 260 339 z "}," ":{"ha":190,"x_min":0,"x_max":0,"o":""},"!":{"ha":382,"x_min":22,"x_max":454,"o":"m 296 141 q 296 109 296 141 q 252 33 296 78 q 144 -12 208 -12 q 22 99 22 -12 q 66 219 22 174 q 173 264 110 264 q 266 234 236 264 q 296 141 296 204 m 108 368 l 129 926 l 158 960 l 424 996 l 454 960 l 281 363 l 133 340 l 108 368 z "},"\"":{"ha":469,"x_min":72,"x_max":531,"o":"m 289 915 l 299 899 q 204 592 258 747 l 97 557 l 72 565 q 101 896 93 700 l 289 915 m 521 915 l 531 899 q 436 592 490 747 l 331 557 l 306 565 q 333 896 325 713 l 521 915 z "},"#":{"ha":754,"x_min":-4,"x_max":781,"o":"m 81 471 l 71 489 l 107 635 l 228 633 l 269 796 l 422 808 l 440 799 l 390 633 l 497 633 l 539 796 l 690 808 l 708 799 l 660 638 l 774 642 l 781 621 l 751 474 l 613 472 l 583 367 l 699 371 l 706 350 l 676 203 l 540 201 l 504 63 l 354 43 l 338 56 l 379 201 l 271 201 l 236 63 l 86 43 l 69 56 l 110 200 l 6 200 l -4 218 l 32 364 l 157 363 l 185 471 l 81 471 m 339 450 l 315 363 l 425 363 l 454 472 l 343 472 l 339 450 z "},"$":{"ha":617,"x_min":-11,"x_max":669,"o":"m 228 257 q 119 317 161 283 q 62 382 76 350 q 47 454 47 414 q 120 619 47 553 q 321 704 193 685 l 368 894 l 533 914 l 540 901 l 493 710 q 657 682 576 701 l 669 656 q 615 467 636 564 l 468 457 l 454 467 q 457 489 457 488 q 390 549 457 549 q 345 537 363 549 q 328 506 328 525 q 406 442 328 475 q 547 374 513 399 q 618 226 618 319 q 539 70 618 133 q 317 -8 460 7 l 267 -210 l 104 -228 l 94 -219 l 146 -6 q 1 35 64 6 l -11 56 q 38 232 25 167 l 196 243 q 194 217 194 236 q 214 172 194 197 q 274 146 233 146 q 338 181 338 146 q 312 219 338 203 q 258 246 286 235 q 228 257 229 257 z "},"%":{"ha":1028,"x_min":33,"x_max":1022,"o":"m 247 594 q 328 610 304 594 q 351 661 351 626 q 251 718 351 718 q 171 703 194 718 q 147 651 147 688 q 247 594 147 594 m 210 403 q 80 453 126 403 q 33 603 33 504 q 106 833 33 751 q 294 915 178 915 q 423 865 378 915 q 468 717 468 815 q 397 485 468 568 q 210 403 325 403 m 801 175 q 882 191 858 175 q 906 242 906 207 q 806 299 906 299 q 725 283 749 299 q 701 232 701 268 q 801 175 701 175 m 764 -17 q 634 34 681 -17 q 588 183 588 85 q 660 414 588 332 q 849 496 732 496 q 977 446 932 496 q 1022 297 1022 396 q 951 66 1022 149 q 764 -17 879 -17 m 865 899 l 879 865 q 504 288 631 481 l 242 -126 l 113 -78 l 104 -54 q 374 351 258 168 l 744 943 l 865 899 z "},"&":{"ha":932,"x_min":31,"x_max":1000,"o":"m 621 450 l 856 433 q 946 463 893 433 l 954 463 l 1000 382 l 1000 375 l 901 283 l 875 275 l 794 279 q 621 67 739 150 q 375 -17 503 -17 q 124 74 218 -17 q 31 310 31 164 q 127 563 31 456 q 346 671 224 671 q 426 644 393 671 q 460 585 460 618 l 460 569 l 469 564 q 552 709 524 643 q 601 872 581 775 l 622 894 l 696 894 q 769 732 769 771 q 747 679 769 713 q 256 221 511 361 q 426 156 318 156 q 629 289 588 156 l 613 290 q 551 264 586 290 l 543 264 l 494 346 l 496 351 l 597 443 l 621 450 m 281 478 q 262 478 281 478 q 221 449 243 478 q 199 382 199 421 q 206 313 199 343 q 299 379 279 357 q 319 431 319 401 q 281 478 319 478 z "},"'":{"ha":238,"x_min":72,"x_max":299,"o":"m 289 915 l 299 899 q 204 592 258 747 l 97 557 l 72 565 q 101 896 93 700 l 289 915 z "},"(":{"ha":417,"x_min":51,"x_max":453,"o":"m 308 488 q 272 156 272 189 q 274 86 272 124 q 288 8 276 49 q 333 -93 307 -62 l 343 -104 l 342 -119 l 244 -203 l 228 -203 q 181 -171 199 -187 q 144 -134 163 -154 q 112 -90 125 -114 q 83 -33 99 -67 q 53 124 63 11 q 51 164 51 139 q 88 467 51 171 q 132 642 99 563 q 204 768 165 722 q 342 889 285 863 l 367 901 l 392 901 l 453 813 l 450 800 q 411 763 435 790 q 369 703 388 735 q 308 488 325 618 z "},")":{"ha":422,"x_min":-32,"x_max":369,"o":"m 114 211 q 150 542 150 510 q 148 613 150 575 q 135 692 146 650 q 89 792 115 761 l 79 803 l 81 818 l 176 901 l 194 901 q 262 849 225 886 q 322 769 299 813 q 357 663 346 725 q 368 557 368 601 q 364 472 368 513 l 333 232 q 289 56 322 136 q 217 -69 256 -24 q 79 -192 136 -164 l 54 -203 l 31 -203 l -32 -114 l -29 -101 q 10 -64 -14 -92 q 50 -4 33 -36 q 114 211 99 83 z "},"*":{"ha":483,"x_min":71,"x_max":574,"o":"m 106 946 q 251 849 167 913 l 239 781 l 226 771 l 71 813 q 90 942 71 888 l 106 946 m 97 646 q 233 754 147 693 l 296 721 l 300 708 l 214 572 q 96 629 142 594 l 97 646 m 379 546 q 318 710 350 607 l 369 758 l 385 758 l 486 633 q 394 539 443 571 l 379 546 m 563 783 q 388 775 513 775 l 357 839 l 363 854 l 513 911 q 574 794 558 850 l 563 783 m 394 1031 q 346 861 379 963 l 276 854 l 265 861 l 254 1022 q 385 1044 326 1044 l 394 1031 z "},"+":{"ha":682,"x_min":13,"x_max":674,"o":"m 467 685 l 486 675 q 450 449 465 553 l 667 457 l 674 436 l 632 247 l 425 246 l 403 50 l 218 25 l 203 38 q 229 246 215 140 l 22 244 l 13 263 l 60 450 q 254 449 156 449 l 282 667 l 467 685 z "},",":{"ha":321,"x_min":-47,"x_max":265,"o":"m 6 201 q 142 263 85 263 q 233 224 200 263 q 265 117 265 186 q 203 -30 265 49 q 33 -169 140 -108 l -47 -106 l -47 -71 q 17 -1 -7 -42 q 42 88 42 39 q 1 182 42 138 l 6 201 z "},"-":{"ha":436,"x_min":38,"x_max":404,"o":"m 392 456 l 404 431 l 368 281 l 51 244 l 38 269 l 69 417 l 392 456 z "},".":{"ha":321,"x_min":-1,"x_max":271,"o":"m 113 -12 q -1 99 -1 -12 q 42 219 -1 174 q 150 264 86 264 q 271 151 271 264 q 227 33 271 78 q 113 -12 183 -12 z "},"/":{"ha":443,"x_min":-53,"x_max":539,"o":"m 518 938 l 539 910 q 301 299 388 524 l 135 -153 l -40 -153 l -53 -132 q 121 314 43 103 l 353 938 l 518 938 z "},":":{"ha":321,"x_min":6,"x_max":322,"o":"m 119 -12 q 6 99 6 -12 q 49 219 6 174 q 156 264 93 264 q 278 151 278 264 q 234 33 278 78 q 119 -12 190 -12 m 164 356 q 50 467 50 356 q 94 587 50 542 q 200 632 138 632 q 322 519 322 632 q 278 401 322 446 q 164 356 235 356 z "},";":{"ha":321,"x_min":-42,"x_max":322,"o":"m 11 201 q 148 263 90 263 q 238 224 206 263 q 271 117 271 186 q 208 -30 271 49 q 39 -169 146 -108 l -42 -106 l -42 -71 q 23 -1 -1 -42 q 47 88 47 39 q 7 182 47 138 l 11 201 m 164 356 q 50 467 50 356 q 94 587 50 542 q 200 632 138 632 q 322 519 322 632 q 278 401 322 446 q 164 356 235 356 z "},"<":{"ha":575,"x_min":26,"x_max":568,"o":"m 35 256 l 26 276 l 53 489 l 304 596 l 515 693 l 539 678 l 568 532 q 213 383 408 469 l 211 372 l 335 304 l 517 215 l 526 186 l 433 58 q 261 146 351 99 l 35 256 z "},"=":{"ha":682,"x_min":-6,"x_max":690,"o":"m 650 318 l 657 297 l 615 108 l 6 106 l -6 124 l 43 311 q 350 310 231 310 l 650 318 m 683 596 l 690 575 l 650 386 l 39 383 l 29 401 l 76 589 q 385 588 264 588 l 683 596 z "},">":{"ha":575,"x_min":18,"x_max":560,"o":"m 551 496 l 560 475 l 535 263 l 283 156 l 71 58 l 49 74 l 18 219 q 375 368 160 274 l 376 379 l 251 447 l 69 536 l 61 565 l 154 693 q 325 606 235 653 l 551 496 z "},"?":{"ha":515,"x_min":61,"x_max":586,"o":"m 332 690 q 128 793 332 782 l 111 818 l 188 982 l 213 994 q 481 924 376 990 q 586 758 586 857 q 533 624 586 685 q 332 474 479 564 l 328 465 l 325 369 l 311 350 l 144 322 l 125 333 l 115 518 l 122 539 l 258 604 q 332 690 332 642 m 335 151 q 291 33 335 78 q 183 -12 247 -12 q 61 99 61 -12 q 105 219 61 174 q 211 264 149 264 q 335 151 335 264 z "},"@":{"ha":1213,"x_min":10,"x_max":1217,"o":"m 728 -207 l 726 -244 l 675 -333 q 187 -182 364 -333 q 10 235 10 -31 q 66 500 10 371 q 215 724 122 629 q 432 877 307 819 q 690 935 557 935 q 1076 815 935 935 q 1217 475 1217 694 q 1077 119 1217 256 q 700 -17 938 -17 q 646 4 667 -17 q 625 51 625 25 q 658 219 625 76 l 644 219 q 460 -17 539 38 q 306 41 361 -17 q 250 201 250 99 q 363 510 250 365 q 603 656 476 656 l 703 628 l 710 656 l 736 672 l 922 656 l 933 624 q 838 156 867 333 l 847 144 q 1006 226 943 144 q 1068 431 1068 307 q 956 693 1068 597 q 640 788 843 789 q 299 643 438 788 q 161 272 161 499 q 307 -81 161 44 q 728 -207 453 -207 m 524 199 q 592 287 547 199 q 664 474 638 375 q 561 510 611 510 q 523 438 542 510 q 504 282 504 365 q 524 199 504 199 z "},"A":{"ha":918,"x_min":-46,"x_max":897,"o":"m 524 168 l 524 247 q 422 250 433 250 l 315 243 q 289 144 289 154 q 321 124 289 124 l 358 124 l 368 110 l 343 -6 q 135 -1 217 -1 l -46 -3 l -22 118 q 54 194 28 131 l 347 892 l 718 914 l 738 897 q 824 213 804 363 q 844 144 829 165 q 889 119 860 124 l 897 106 l 872 -4 q 681 -1 756 -1 l 419 -8 l 410 4 l 432 121 q 507 136 490 128 q 524 168 524 144 m 447 418 q 515 421 457 418 l 501 664 l 471 664 l 381 418 l 447 418 z "},"B":{"ha":899,"x_min":-28,"x_max":888,"o":"m 167 732 q 138 776 167 776 l 90 774 l 76 790 l 106 901 q 338 899 294 899 l 589 908 q 809 858 731 908 q 888 715 888 807 q 850 588 888 644 q 729 476 813 531 q 874 292 874 415 q 444 -15 874 -15 q 338 -6 421 -11 q 222 0 254 0 l -28 -10 l 0 115 q 75 146 53 125 q 103 217 97 167 q 167 732 167 722 m 372 208 q 461 158 372 158 q 542 188 514 158 q 571 276 571 217 q 501 361 571 336 l 397 361 q 372 208 372 215 m 593 653 q 479 733 593 733 q 453 714 457 733 l 422 540 q 525 525 494 525 q 572 578 551 540 q 593 653 593 615 z "},"C":{"ha":811,"x_min":25,"x_max":853,"o":"m 701 38 q 388 -15 563 -15 q 119 82 214 -15 q 25 360 25 179 q 156 774 25 632 q 536 915 286 915 q 844 879 639 915 l 853 851 q 778 554 808 724 l 561 542 q 576 646 576 621 q 485 724 576 724 q 376 643 408 724 q 344 372 344 563 q 366 224 344 268 q 439 181 388 181 q 515 213 490 181 q 558 342 539 246 l 774 356 q 722 60 738 193 l 701 38 z "},"D":{"ha":917,"x_min":-22,"x_max":924,"o":"m 165 738 q 139 774 165 774 l 96 771 l 85 790 l 111 903 q 318 899 263 899 l 531 907 q 822 818 721 907 q 924 558 924 729 q 776 141 924 299 q 388 -17 629 -17 q 175 0 260 0 l -22 -11 l 6 118 q 76 150 56 126 q 106 233 96 174 q 165 738 165 722 m 476 731 q 456 723 463 731 q 443 687 449 715 q 404 435 438 658 q 371 194 371 213 q 407 157 371 157 q 604 553 604 157 q 576 691 604 651 q 476 731 547 731 z "},"E":{"ha":814,"x_min":-28,"x_max":865,"o":"m 421 538 l 531 536 l 679 544 l 693 525 l 654 365 q 512 369 556 369 q 393 361 468 369 q 374 204 374 229 q 385 169 374 179 q 429 160 397 160 q 544 187 513 160 q 599 307 575 214 l 778 319 l 793 299 q 719 13 751 164 l 696 -10 q 339 0 476 0 q -28 -14 139 0 l 0 114 q 73 148 51 122 q 101 236 94 174 q 164 738 164 724 q 160 765 164 753 q 133 776 156 776 l 99 774 l 85 793 l 111 903 q 513 899 306 899 q 850 915 719 899 l 865 893 q 800 617 822 747 l 606 604 q 617 678 617 649 q 592 720 617 708 q 519 732 567 732 q 462 725 471 732 q 449 694 453 718 l 421 538 z "},"F":{"ha":750,"x_min":-28,"x_max":826,"o":"m 390 338 q 375 203 375 221 q 382 173 375 186 q 424 160 389 160 q 501 171 460 160 l 521 146 l 485 -4 q 264 0 328 0 q -28 -14 139 0 l 0 114 q 72 148 51 122 q 101 236 93 174 q 164 738 164 724 q 160 765 164 753 q 133 776 156 776 l 99 774 l 85 793 l 111 903 q 499 899 306 899 q 811 915 692 899 l 826 893 q 769 617 790 744 l 575 606 q 585 678 585 649 q 566 719 585 707 q 509 732 547 732 q 462 725 471 732 q 449 694 453 718 l 417 514 l 528 513 l 669 521 l 685 501 l 646 342 q 506 346 551 346 q 390 338 461 346 z "},"G":{"ha":858,"x_min":25,"x_max":853,"o":"m 388 -15 q 119 82 214 -15 q 25 360 25 179 q 156 774 25 632 q 536 915 286 915 q 844 879 639 915 l 853 851 q 778 574 808 743 l 561 561 q 576 650 576 625 q 485 724 576 724 q 376 643 408 724 q 344 372 344 563 q 366 224 344 268 q 439 181 388 181 q 515 197 479 181 q 526 310 526 299 q 521 332 526 322 q 492 342 515 342 l 449 340 l 439 360 l 471 492 l 679 492 q 829 499 829 492 l 833 418 q 767 314 778 383 q 739 106 739 169 l 740 53 l 721 31 q 388 -15 608 -15 z "},"H":{"ha":994,"x_min":-24,"x_max":1058,"o":"m 868 185 q 911 124 868 124 l 949 128 l 958 113 l 932 -3 q 767 0 856 -1 l 699 0 l 471 -1 l 496 119 q 567 144 543 121 q 597 225 590 168 l 615 367 q 542 368 575 368 l 392 356 q 371 161 371 182 q 378 131 371 140 q 406 121 386 121 l 442 125 l 451 111 l 425 -6 q 201 0 257 0 l -24 -7 l 1 111 q 75 144 56 122 q 101 225 94 167 q 164 739 164 724 q 157 765 164 754 q 122 776 150 776 l 88 775 l 78 794 l 101 899 l 276 899 l 551 906 l 526 781 q 468 759 483 772 q 447 708 453 746 l 419 540 l 526 536 q 636 540 600 536 q 660 738 660 724 q 653 765 660 753 q 618 776 646 776 l 582 775 l 572 794 l 596 899 l 854 899 l 1058 906 l 1035 783 q 968 761 985 775 q 939 683 951 747 q 897 421 926 619 q 868 185 868 222 z "},"I":{"ha":499,"x_min":-24,"x_max":558,"o":"m 449 708 q 399 403 428 594 q 371 177 371 211 q 378 132 371 143 q 406 121 386 121 l 449 125 l 457 111 l 431 -6 q 204 0 261 0 l -24 -7 l 1 111 q 76 145 57 124 q 101 225 94 167 q 164 739 164 724 q 157 765 164 754 q 122 776 150 776 l 89 775 l 78 794 l 101 899 l 322 899 l 558 906 l 533 781 q 472 760 488 774 q 449 708 457 747 z "},"J":{"ha":457,"x_min":-97,"x_max":538,"o":"m 86 183 q 153 741 153 726 q 148 766 153 756 q 117 776 143 776 l 68 774 l 58 793 l 82 899 l 275 900 l 538 910 l 510 781 q 458 759 469 771 q 439 708 446 747 q 350 118 396 490 q 235 -99 331 -15 q -49 -228 140 -182 l -97 -161 l -92 -140 q 33 -13 -1 -75 q 86 183 68 49 z "},"K":{"ha":939,"x_min":-24,"x_max":1004,"o":"m 101 225 q 164 739 164 724 q 157 765 164 754 q 122 776 150 776 l 88 775 l 78 794 l 103 900 q 322 899 299 899 l 560 906 l 535 781 q 465 752 482 767 q 444 703 447 738 l 375 217 q 371 167 371 185 q 374 140 371 149 q 406 121 379 121 l 449 125 l 458 111 l 432 -6 q 204 0 261 0 l -24 -7 l 1 111 q 76 144 56 122 q 101 225 96 167 m 631 739 q 619 765 631 757 q 582 775 608 774 l 575 789 l 601 903 q 796 899 733 899 l 994 906 l 1004 885 l 979 781 q 779 604 871 721 l 696 494 l 786 242 q 834 152 808 181 q 900 117 860 124 l 913 96 l 885 -7 q 662 -22 706 -22 q 590 2 618 -22 q 538 90 561 26 l 414 440 l 426 482 l 583 656 q 631 739 631 706 z "},"L":{"ha":754,"x_min":-28,"x_max":761,"o":"m 660 -10 q 331 0 460 0 q -28 -14 139 0 l 0 114 q 73 148 51 122 q 101 236 94 174 q 163 739 163 724 q 156 765 163 754 q 121 776 149 776 l 86 775 l 76 794 l 100 899 l 321 899 l 607 906 l 575 769 q 478 748 504 763 q 446 697 451 733 q 374 204 374 292 q 414 160 374 160 q 513 203 483 160 q 567 386 543 247 l 747 404 l 761 383 q 683 13 719 206 l 660 -10 z "},"M":{"ha":1122,"x_min":-35,"x_max":1153,"o":"m 407 -17 l 332 504 l 314 504 q 268 160 268 178 q 307 122 268 122 l 342 125 l 353 114 l 321 -6 q 136 0 171 0 q 61 -3 101 0 q -35 -11 -35 -10 l -8 114 q 49 139 29 118 q 83 224 68 160 q 142 499 97 288 q 186 733 186 711 q 173 762 186 754 q 110 775 160 769 l 100 786 l 128 906 q 328 899 271 899 l 542 904 q 581 463 550 721 l 599 463 q 760 899 692 697 q 1017 900 994 899 l 1143 907 l 1153 901 l 1126 779 q 1054 764 1072 778 q 1031 708 1036 750 q 1013 417 1018 604 q 1007 200 1007 229 q 1015 147 1007 171 q 1054 124 1024 124 l 1094 126 l 1103 115 l 1076 -4 q 798 -3 922 1 q 661 -11 674 -7 l 693 115 q 748 135 731 119 q 769 183 765 150 l 806 504 l 788 504 q 775 475 786 503 q 744 399 764 447 q 700 292 725 351 q 585 -3 643 150 l 407 -17 z "},"N":{"ha":997,"x_min":-17,"x_max":1069,"o":"m 689 463 q 715 739 715 724 q 708 765 715 754 q 678 776 701 776 l 636 776 l 631 792 l 651 904 q 936 899 803 899 q 1069 903 1069 899 l 1047 778 q 985 753 1004 772 q 960 690 967 733 l 857 0 l 590 -17 q 382 438 496 200 l 361 438 q 335 162 335 178 q 342 133 335 146 q 381 119 350 119 l 425 125 l 436 113 l 407 -6 q 204 0 254 0 q -17 -11 111 0 l 13 114 q 74 140 53 119 q 100 201 94 160 q 176 719 176 700 q 163 753 176 739 q 86 774 149 767 l 72 793 l 93 906 q 296 899 194 899 l 474 904 q 668 463 551 704 l 689 463 z "},"O":{"ha":879,"x_min":25,"x_max":886,"o":"m 431 158 q 534 251 503 158 q 565 558 565 344 q 475 725 565 725 q 374 631 406 725 q 343 325 343 538 q 431 158 343 158 m 393 -17 q 122 80 219 -17 q 25 356 25 176 q 151 770 25 625 q 517 915 276 915 q 790 823 694 915 q 886 553 886 731 q 758 133 886 283 q 393 -17 631 -17 z "},"P":{"ha":821,"x_min":-26,"x_max":882,"o":"m 164 736 q 136 776 164 776 l 88 774 l 76 790 l 103 899 l 297 899 l 532 907 q 706 883 633 907 q 815 819 779 860 q 882 657 882 747 q 765 399 882 510 q 500 289 647 289 l 385 289 q 374 179 374 201 q 383 140 374 157 q 432 122 392 122 l 475 125 l 481 114 l 453 -6 q 228 0 286 0 l -26 -12 l 1 115 q 74 149 51 124 q 103 233 96 175 q 164 736 164 724 m 593 628 q 564 708 593 683 q 474 733 535 733 q 456 728 460 733 q 408 460 444 713 l 496 446 q 593 628 593 481 z "},"Q":{"ha":885,"x_min":25,"x_max":1054,"o":"m 25 356 q 151 770 25 625 q 517 915 276 915 q 790 823 694 915 q 886 544 886 731 q 819 224 886 358 q 622 29 751 90 l 622 25 q 760 -66 683 -32 q 903 -100 836 -100 q 1028 -86 956 -100 l 1042 -101 l 1054 -196 q 794 -336 846 -336 q 636 -278 713 -336 q 379 -17 560 -219 q 118 83 211 -12 q 25 356 25 179 m 431 158 q 534 251 503 158 q 565 558 565 344 q 475 725 565 725 q 374 631 406 725 q 343 325 343 538 q 431 158 343 158 z "},"R":{"ha":918,"x_min":-26,"x_max":900,"o":"m 388 317 q 374 176 374 201 q 385 138 374 151 q 460 122 396 125 l 465 111 l 438 -6 q 219 0 269 0 q -26 -12 108 0 l 1 115 q 74 149 51 124 q 103 233 96 174 q 164 742 164 729 q 160 766 164 756 q 136 776 156 776 l 88 774 l 76 790 l 104 900 q 297 899 242 899 l 539 907 q 807 849 714 907 q 900 679 900 792 q 706 383 900 494 l 768 239 q 882 117 822 117 l 894 94 l 869 -7 l 654 -22 q 565 6 596 -22 q 515 104 533 35 l 461 317 l 388 317 m 610 636 q 475 733 610 733 q 456 728 461 733 q 437 642 451 722 q 413 492 422 561 l 513 478 q 610 636 610 515 z "},"S":{"ha":744,"x_min":-18,"x_max":782,"o":"m 271 -17 q 131 -2 200 -17 q 29 28 63 13 l -4 43 l -18 68 q 40 297 25 206 l 217 310 q 215 282 215 296 q 238 201 215 235 q 308 168 260 168 q 381 185 356 168 q 406 228 406 203 q 386 272 406 253 q 275 338 358 300 q 72 500 110 411 q 54 590 54 540 q 176 826 54 738 q 500 915 299 915 q 733 886 632 915 l 768 876 l 782 846 q 717 604 742 729 l 553 593 l 538 604 q 542 643 542 636 q 456 724 542 724 q 392 704 417 724 q 368 657 368 685 q 392 609 368 629 q 441 576 415 589 q 508 544 467 563 q 560 518 549 525 q 606 492 572 511 q 653 456 640 472 q 686 417 667 440 q 721 300 721 372 q 601 68 721 153 q 271 -17 481 -17 z "},"T":{"ha":803,"x_min":24,"x_max":867,"o":"m 656 531 q 658 632 658 586 q 653 697 658 678 q 594 731 643 731 q 524 210 524 263 q 538 142 524 158 q 583 126 551 126 l 653 131 l 658 122 l 631 -8 q 354 0 432 0 l 76 -12 l 103 115 q 215 145 186 122 q 251 233 243 168 l 313 731 q 242 696 263 731 q 199 542 222 661 l 24 531 q 79 894 58 736 l 100 914 l 260 899 l 683 899 l 851 914 l 867 894 l 829 542 l 656 531 z "},"U":{"ha":840,"x_min":53,"x_max":915,"o":"m 586 738 q 558 776 586 776 l 529 774 l 525 779 l 556 903 q 717 899 668 899 l 915 903 l 889 778 q 833 753 846 764 q 818 717 821 742 l 769 325 q 651 67 746 151 q 388 -17 556 -17 q 143 42 221 -17 q 65 221 65 100 q 95 484 65 243 q 125 740 125 725 q 121 766 125 756 q 94 776 117 776 l 56 774 l 53 779 l 82 903 q 324 899 215 899 l 507 904 l 478 775 q 426 756 442 771 q 406 707 410 740 l 349 306 q 346 260 346 279 q 428 160 346 160 q 500 188 476 160 q 533 282 524 215 q 586 738 586 725 z "},"V":{"ha":865,"x_min":50,"x_max":944,"o":"m 624 746 q 588 774 624 774 l 554 774 l 544 788 l 569 903 q 778 899 696 899 l 944 900 l 921 779 q 885 758 897 772 q 857 703 874 743 l 581 6 l 192 -18 q 118 685 135 535 q 98 753 111 732 q 58 778 85 774 l 50 792 l 75 901 q 261 899 188 899 l 522 906 l 531 893 l 508 776 q 435 755 453 769 q 417 704 417 740 l 425 233 l 456 233 q 624 746 624 696 z "},"W":{"ha":1349,"x_min":50,"x_max":1428,"o":"m 954 233 q 1058 540 999 353 q 1118 747 1118 728 q 1112 769 1118 765 q 1083 774 1106 774 l 1051 774 l 1043 788 l 1068 903 q 1268 899 1190 899 l 1428 900 l 1404 779 q 1369 756 1381 771 q 1342 703 1357 742 l 1081 6 l 706 -18 l 697 378 l 678 378 l 557 6 l 182 -18 q 115 685 129 535 q 94 753 106 733 q 58 778 82 772 l 50 792 l 76 901 q 254 899 183 899 l 506 906 l 514 893 l 490 776 q 419 753 439 768 q 400 706 400 738 l 407 233 l 436 233 q 592 697 533 506 q 601 735 599 728 q 592 769 604 761 q 533 778 579 778 l 525 792 l 551 901 q 772 899 692 899 l 1022 906 l 1032 893 l 1008 776 q 935 756 954 771 q 917 706 917 742 l 925 233 l 954 233 z "},"X":{"ha":963,"x_min":-37,"x_max":1033,"o":"m 507 739 q 542 642 507 706 q 569 589 554 619 q 622 668 611 651 q 644 703 632 685 q 667 756 667 740 q 621 779 667 779 l 618 788 l 640 899 l 853 899 l 1029 903 l 1033 892 l 1011 771 q 901 707 942 739 q 821 619 861 675 l 672 418 l 764 249 q 835 158 800 186 q 917 129 869 131 l 894 -1 q 711 3 763 3 l 428 -7 l 419 3 l 443 119 q 483 151 483 122 q 472 185 483 165 l 408 307 l 351 219 q 324 157 324 176 q 369 122 324 122 l 376 107 l 356 -6 q 150 3 193 3 l -33 -6 l -37 14 l -17 125 q 72 195 14 140 q 172 304 131 250 l 311 481 l 225 649 q 136 747 185 726 q 81 765 118 756 l 75 774 l 103 900 q 342 899 194 899 l 578 907 l 585 892 l 561 778 q 507 739 507 778 z "},"Y":{"ha":903,"x_min":56,"x_max":969,"o":"m 461 740 q 507 538 461 694 l 526 538 l 596 696 q 621 760 621 742 q 574 779 621 779 l 571 788 l 596 897 l 811 897 l 965 903 l 969 892 l 944 771 q 775 596 843 714 l 622 343 q 586 214 596 294 q 583 178 583 197 q 594 142 583 158 q 643 126 604 126 l 713 131 l 718 122 l 690 -8 q 407 0 486 0 l 128 -12 l 154 115 q 272 143 242 122 q 308 225 301 164 q 313 268 313 258 q 289 372 313 314 l 178 649 q 61 765 150 722 l 56 774 l 85 900 q 290 897 246 897 l 536 907 l 544 892 l 518 778 q 461 740 461 778 z "},"Z":{"ha":803,"x_min":-29,"x_max":871,"o":"m 738 26 l 706 -4 l 124 4 l 11 -10 l -29 71 l 490 753 l 392 739 q 289 699 313 728 q 251 581 265 671 l 74 568 q 135 901 115 772 l 151 917 l 394 901 l 846 901 l 871 826 q 343 151 681 600 l 481 172 q 581 227 546 182 q 635 369 615 272 l 813 382 q 738 26 757 165 z "},"[":{"ha":440,"x_min":25,"x_max":507,"o":"m 365 -176 l 25 -161 q 104 361 88 222 l 154 888 l 503 903 l 507 889 l 482 772 l 357 749 l 261 -22 l 386 -46 l 390 -61 l 365 -176 z "},"\\":{"ha":443,"x_min":47,"x_max":383,"o":"m 47 910 l 75 938 l 240 938 l 318 314 l 383 -132 l 365 -153 l 190 -153 q 133 299 163 69 l 47 910 z "},"]":{"ha":440,"x_min":-58,"x_max":424,"o":"m 83 903 l 424 888 q 344 365 363 504 l 294 -161 l -54 -176 l -58 -162 l -32 -46 l 93 -22 l 188 749 l 63 772 l 58 788 l 83 903 z "},"^":{"ha":631,"x_min":-12,"x_max":613,"o":"m 453 672 l 472 661 q 549 403 521 499 l 613 211 l 476 133 l 449 146 q 336 489 449 146 l 326 489 l 140 133 l 0 181 l -12 206 q 107 415 50 308 l 240 663 l 453 672 z "},"_":{"ha":603,"x_min":-92,"x_max":561,"o":"m 524 -303 l -79 -304 l -92 -278 l -58 -132 l 433 -132 l 551 -129 l 561 -156 l 524 -303 z "},"`":{"ha":536,"x_min":40,"x_max":424,"o":"m 43 892 l 40 915 l 140 1056 l 164 1056 q 424 824 293 936 l 367 739 l 336 729 q 43 892 178 822 z "},"a":{"ha":797,"x_min":-29,"x_max":767,"o":"m 439 138 l 442 182 l 363 183 q 278 179 363 183 q 263 118 263 122 q 285 106 263 106 l 311 106 l 321 93 l 300 -4 q 124 -1 192 -1 l -29 -1 l -10 100 q 49 154 29 111 l 282 694 l 621 713 l 638 697 q 707 188 697 267 q 758 101 717 108 l 767 89 l 744 -3 q 581 -1 646 -1 l 357 -6 l 349 4 l 367 104 q 426 115 414 110 q 439 138 439 121 m 383 331 q 435 332 410 331 l 426 504 l 399 504 l 333 331 l 383 331 z "},"b":{"ha":776,"x_min":-24,"x_max":757,"o":"m 132 565 q 108 596 132 596 l 69 594 l 57 608 l 82 703 q 283 700 249 700 l 503 708 q 690 668 624 708 q 757 556 757 628 q 727 459 757 503 q 631 372 697 415 q 747 226 747 321 q 657 46 747 104 q 382 -12 567 -12 q 294 -4 365 -8 q 194 0 222 0 l -24 -7 l 0 99 q 60 122 43 106 q 83 175 78 138 q 132 565 132 560 m 326 172 q 394 138 326 138 q 476 213 476 138 q 428 272 476 253 l 344 274 q 326 172 326 178 m 447 415 q 493 502 493 449 q 410 556 493 556 q 388 543 392 556 q 373 473 379 514 q 365 428 367 432 q 447 415 403 415 z "},"c":{"ha":690,"x_min":22,"x_max":713,"o":"m 590 29 q 325 -11 472 -11 q 100 65 178 -11 q 22 286 22 142 q 442 714 22 714 q 704 685 535 714 l 713 660 q 651 421 676 558 l 454 410 q 467 493 467 474 q 400 549 467 549 q 327 495 347 549 q 307 330 307 442 q 320 188 307 218 q 370 158 333 158 q 423 181 407 158 q 453 275 439 203 l 647 288 q 608 47 619 156 l 590 29 z "},"d":{"ha":778,"x_min":-18,"x_max":772,"o":"m 131 560 q 110 594 131 594 l 75 592 l 64 608 l 86 704 q 265 700 219 700 l 444 707 q 772 435 772 707 q 651 108 772 229 q 328 -12 531 -12 q 150 0 222 0 l -18 -8 l 6 101 q 63 126 46 108 q 86 190 79 144 q 131 560 131 544 m 404 554 q 381 525 386 554 q 351 350 378 533 q 325 164 325 167 q 342 136 325 136 q 486 429 486 136 q 469 528 486 503 q 404 554 453 554 z "},"e":{"ha":697,"x_min":-24,"x_max":731,"o":"m 129 565 q 106 596 129 596 l 78 594 l 64 611 l 86 704 q 435 700 258 700 q 717 714 613 700 l 731 694 q 678 472 694 575 l 501 463 q 511 516 511 494 q 492 547 511 538 q 437 557 472 557 q 394 551 401 557 q 385 531 388 546 l 364 424 l 453 424 l 574 429 l 586 411 l 554 276 q 449 279 474 279 q 340 274 424 279 q 328 182 328 211 q 337 145 328 153 q 388 138 346 138 q 455 158 431 138 q 497 249 479 179 l 660 260 l 674 242 q 614 11 639 135 l 592 -7 q 296 0 415 0 q -24 -11 121 0 l 0 97 q 59 124 42 104 q 82 193 76 144 q 129 565 129 551 z "},"f":{"ha":649,"x_min":-24,"x_max":697,"o":"m 129 565 q 106 596 129 596 l 78 594 l 64 611 l 86 704 q 424 700 258 700 q 682 714 589 700 l 697 694 q 651 474 668 572 l 476 464 q 483 515 483 494 q 419 557 483 557 q 394 551 401 557 q 385 531 388 546 l 361 406 l 450 404 l 568 410 l 582 393 l 550 258 q 444 261 472 261 q 339 256 417 261 q 329 175 329 192 q 335 148 329 158 q 374 138 342 138 q 432 147 406 138 l 450 125 l 419 -3 q 233 0 286 0 q -24 -11 124 0 l 0 99 q 58 124 42 104 q 82 193 75 144 q 129 565 129 551 z "},"g":{"ha":729,"x_min":26,"x_max":721,"o":"m 328 -11 q 104 64 182 -11 q 26 281 26 139 q 450 713 26 713 q 713 685 538 713 l 721 661 q 657 439 683 575 l 461 428 q 475 497 475 479 q 407 550 475 550 q 332 492 353 550 q 311 324 311 435 q 324 185 311 213 q 374 157 338 157 q 426 165 401 157 l 433 222 q 431 255 436 246 q 408 264 426 264 l 378 263 l 368 281 l 396 390 q 610 392 518 392 q 701 397 701 392 l 704 328 q 649 249 658 300 q 625 82 625 139 l 625 40 l 608 21 q 328 -11 517 -11 z "},"h":{"ha":844,"x_min":-19,"x_max":888,"o":"m 799 108 l 808 94 l 786 -1 q 649 0 726 -1 l 590 0 l 388 -1 l 408 101 q 490 178 481 103 l 504 278 q 456 279 481 279 l 340 269 q 325 131 325 143 q 353 103 325 103 l 381 106 l 389 93 l 368 -4 q 178 0 217 0 q 92 -1 140 0 q -19 -4 43 -3 l 1 96 q 60 119 44 104 q 82 176 76 135 q 129 567 129 554 q 124 588 129 579 q 94 596 118 596 l 67 596 l 58 613 l 78 700 l 225 700 l 468 704 l 447 599 q 401 583 413 592 q 385 550 389 574 l 363 428 l 439 424 q 521 426 493 424 q 538 563 538 549 q 532 587 538 578 q 503 596 526 596 l 474 596 l 465 613 l 485 700 l 713 700 l 888 704 l 867 601 q 813 584 826 594 q 790 532 799 574 q 758 336 781 490 q 735 153 735 182 q 771 106 735 106 l 799 108 z "},"i":{"ha":435,"x_min":-18,"x_max":474,"o":"m 385 543 q 348 322 371 471 q 325 147 325 174 q 331 111 325 119 q 353 103 338 103 l 386 106 l 393 93 l 371 -4 q 178 0 225 0 l -18 -4 l 1 96 q 63 122 47 106 q 82 183 78 139 q 129 567 129 554 q 124 588 129 579 q 94 596 118 596 l 69 596 q 60 613 65 601 l 79 700 l 268 700 l 474 704 l 453 599 q 403 583 415 593 q 385 543 392 574 z "},"j":{"ha":401,"x_min":-81,"x_max":457,"o":"m 69 146 q 119 569 119 557 q 116 589 119 581 q 90 597 113 597 l 53 594 l 43 613 l 63 700 l 228 701 l 457 708 l 433 599 q 392 582 401 592 q 378 543 383 572 q 307 86 343 376 q 210 -81 292 -17 q -36 -181 128 -146 l -81 -126 l -76 -108 q 28 -8 0 -56 q 69 146 56 39 z "},"k":{"ha":810,"x_min":-19,"x_max":849,"o":"m 325 136 q 353 103 325 103 l 386 106 l 396 93 l 374 -4 q 178 0 225 0 l -19 -6 l 1 93 q 62 120 46 103 q 82 183 78 138 q 129 567 129 554 q 124 588 129 579 q 94 596 118 596 l 67 596 l 58 613 l 79 701 q 268 700 251 700 l 476 704 l 454 599 q 396 576 410 588 q 381 539 382 565 q 325 136 325 149 m 483 501 q 522 567 522 540 q 485 594 522 593 l 479 607 l 500 703 q 667 700 614 700 l 840 706 l 849 688 l 828 600 q 660 456 733 547 l 608 388 l 675 199 q 713 129 692 151 q 765 100 733 107 l 776 82 l 753 -6 q 557 -18 596 -18 q 495 0 518 -18 q 453 69 472 18 l 356 343 l 367 378 l 483 501 z "},"l":{"ha":654,"x_min":-24,"x_max":646,"o":"m 563 -7 q 286 0 400 0 q -24 -11 121 0 l -1 97 q 59 124 42 104 q 82 193 76 144 q 128 567 128 554 q 122 588 128 579 q 93 596 117 596 l 65 596 l 57 613 l 76 700 l 267 700 l 519 704 l 492 589 q 410 573 433 583 q 383 540 386 563 q 328 169 328 235 q 354 138 328 138 q 430 173 407 138 q 471 318 453 208 l 633 333 q 646 315 643 319 q 583 13 613 169 l 563 -7 z "},"m":{"ha":950,"x_min":-28,"x_max":964,"o":"m 336 -11 l 281 361 l 264 361 q 236 133 236 147 q 269 104 236 104 l 296 106 q 306 96 301 101 l 279 -4 q 119 0 147 0 q 56 -2 90 0 q -3 -6 22 -4 q -28 -8 -28 -7 l -6 97 q 65 167 50 103 q 110 369 72 192 q 149 563 149 546 q 140 584 149 579 q 89 593 131 589 l 79 603 l 103 706 q 275 700 226 700 l 465 704 q 489 396 468 572 l 506 396 q 621 700 576 571 q 851 701 832 700 l 954 707 l 964 703 l 942 597 q 882 586 896 596 q 863 531 868 576 q 852 335 857 486 q 847 163 847 185 q 855 123 847 140 q 888 106 863 106 l 921 107 l 929 97 l 907 -3 q 547 -8 597 3 l 574 99 q 619 113 606 101 q 636 151 633 125 l 665 361 l 649 361 q 499 0 567 178 l 336 -11 z "},"n":{"ha":851,"x_min":-14,"x_max":897,"o":"m 556 597 l 522 597 l 517 610 l 533 704 q 782 700 667 700 q 897 703 897 700 l 879 597 q 829 577 844 592 q 808 529 814 563 l 729 6 l 483 -7 l 329 301 l 310 301 q 294 138 294 151 q 301 113 294 124 q 335 101 308 101 l 369 106 l 379 96 l 356 -4 q 174 0 221 0 l -14 -8 l 11 97 q 61 117 44 101 q 83 165 78 133 q 142 551 142 535 q 131 576 142 567 q 68 593 119 586 l 54 610 l 72 706 q 250 700 158 700 l 407 704 q 553 396 471 551 l 571 396 l 586 550 q 583 588 589 578 q 556 597 576 597 z "},"o":{"ha":744,"x_min":22,"x_max":738,"o":"m 363 138 q 432 201 413 138 q 451 380 451 265 q 438 522 451 494 q 393 550 425 550 q 326 486 346 550 q 307 308 307 422 q 319 165 307 193 q 363 138 332 138 m 333 -12 q 103 63 185 -12 q 22 283 22 138 q 426 714 22 714 q 738 426 738 714 q 635 101 738 214 q 333 -12 532 -12 z "},"p":{"ha":710,"x_min":-22,"x_max":750,"o":"m 410 106 l 415 96 l 392 -4 q 209 0 244 0 q 119 -3 174 0 q -22 -10 64 -6 l 1 99 q 58 125 40 104 q 83 190 76 146 q 129 560 129 549 q 108 596 129 596 l 67 594 l 57 608 l 79 700 l 246 700 l 449 707 q 601 687 538 707 q 694 635 664 667 q 750 506 750 576 q 651 304 750 390 q 429 218 553 218 l 335 218 q 328 146 328 161 q 335 117 328 131 q 378 104 343 104 l 410 106 m 490 482 q 469 539 490 521 q 403 557 449 557 q 390 553 393 557 q 383 533 386 549 q 375 483 381 517 q 364 420 369 450 q 354 363 358 390 l 421 353 q 490 482 490 379 z "},"q":{"ha":749,"x_min":22,"x_max":886,"o":"m 22 283 q 426 714 22 714 q 738 426 738 714 q 535 28 738 124 l 535 24 q 642 -40 579 -15 q 742 -65 704 -65 q 863 -54 801 -65 l 875 -68 l 886 -151 q 658 -267 704 -267 q 530 -220 592 -267 q 319 -12 468 -174 q 99 66 176 -8 q 22 283 22 140 m 363 138 q 432 201 413 138 q 451 380 451 265 q 438 522 451 494 q 393 550 425 550 q 326 486 346 550 q 307 308 307 422 q 319 165 307 193 q 363 138 332 138 z "},"r":{"ha":793,"x_min":-22,"x_max":768,"o":"m 336 238 q 328 145 328 164 q 337 117 328 126 q 400 104 346 107 l 404 94 l 382 -4 q 189 0 232 0 q -22 -11 108 0 l 1 97 q 60 124 42 104 q 83 190 78 144 q 131 565 131 558 q 108 596 131 596 l 67 594 l 57 608 l 81 701 q 246 700 199 700 l 456 707 q 768 524 768 707 q 611 294 768 382 l 658 196 q 703 126 679 151 q 749 101 728 101 l 761 81 l 739 -6 l 550 -17 q 472 5 499 -17 q 432 81 446 26 l 392 238 l 336 238 m 508 488 q 484 540 508 524 q 426 556 460 556 q 390 551 393 556 q 357 388 383 542 l 436 376 q 508 488 508 403 z "},"s":{"ha":642,"x_min":-11,"x_max":669,"o":"m 228 257 q 119 317 161 283 q 62 382 76 350 q 47 454 47 414 q 151 642 47 572 q 429 713 254 713 q 657 682 540 713 l 669 656 q 615 467 636 564 l 468 457 l 454 467 q 457 489 457 488 q 390 549 457 549 q 345 537 363 549 q 328 506 328 525 q 406 442 328 475 q 547 374 513 399 q 618 236 618 319 q 516 53 618 119 q 235 -12 414 -12 q 115 -1 174 -12 q 1 35 57 11 l -11 56 q 38 232 25 167 l 196 243 q 194 217 194 236 q 214 172 194 197 q 274 146 233 146 q 338 181 338 146 q 312 219 338 203 q 258 246 286 235 q 228 257 229 257 z "},"t":{"ha":693,"x_min":19,"x_max":732,"o":"m 544 396 q 549 478 549 447 q 544 525 549 510 q 507 554 539 554 q 456 161 456 181 q 504 107 456 107 l 561 111 l 567 104 l 543 -7 q 306 0 372 0 l 65 -11 l 88 99 q 178 121 154 104 q 208 182 203 138 l 256 554 q 210 525 224 554 q 178 404 196 496 l 19 396 q 64 696 47 567 l 82 713 l 221 700 l 574 700 l 718 713 l 732 696 l 700 404 l 544 396 z "},"u":{"ha":710,"x_min":40,"x_max":758,"o":"m 472 568 q 450 596 472 596 l 429 594 l 425 599 l 451 704 q 586 700 546 700 l 758 703 l 736 596 q 693 576 703 585 q 681 551 683 568 l 644 258 q 547 53 625 119 q 326 -12 468 -12 q 119 32 185 -12 q 51 169 53 76 q 74 367 51 179 q 97 568 97 556 q 94 588 97 581 q 74 596 92 596 l 42 594 l 40 599 l 64 704 q 275 700 179 700 l 432 703 l 407 594 q 350 543 354 589 q 303 206 303 213 q 360 138 303 138 q 409 155 393 138 q 431 217 425 172 q 472 568 472 563 z "},"v":{"ha":743,"x_min":43,"x_max":792,"o":"m 363 539 l 363 196 l 390 196 q 513 575 513 540 q 488 593 513 593 l 464 593 l 456 606 l 476 703 q 651 700 583 700 l 792 701 l 772 599 q 746 581 756 592 q 724 539 736 569 l 508 4 l 153 -14 q 96 524 104 438 q 80 578 89 563 q 51 597 71 594 l 43 610 l 64 703 q 222 700 158 700 l 444 704 l 453 694 l 435 594 q 377 578 392 589 q 363 539 363 567 z "},"w":{"ha":1150,"x_min":43,"x_max":1199,"o":"m 589 267 l 571 267 l 488 4 l 146 -14 q 93 524 100 438 q 76 578 85 564 q 50 597 68 593 l 43 610 l 65 703 q 215 700 154 700 l 431 704 l 438 694 l 418 594 q 365 519 383 589 q 347 403 347 449 l 347 196 l 374 196 q 489 546 450 410 l 501 583 q 456 597 500 597 q 447 597 451 597 l 440 610 l 463 703 q 653 700 582 700 l 867 704 l 875 694 l 856 594 q 799 578 814 590 q 783 539 783 567 l 785 196 l 811 196 q 887 422 844 283 q 929 574 929 560 q 926 591 929 589 q 906 593 922 593 l 883 593 l 875 606 l 896 703 q 1064 700 1000 700 l 1199 701 l 1179 599 q 1151 579 1161 592 q 1131 539 1142 567 l 931 4 l 589 -14 l 589 267 m 500 575 l 500 569 l 500 575 z "},"x":{"ha":828,"x_min":-26,"x_max":872,"o":"m 533 699 l 869 703 l 872 694 l 854 590 q 697 472 749 540 l 581 317 l 650 203 q 776 110 708 110 l 757 -1 q 603 3 644 3 l 360 -4 l 353 3 l 372 103 q 399 124 399 103 q 390 147 399 131 l 342 226 l 304 171 q 288 131 288 144 q 324 104 288 104 l 329 92 l 313 -4 q 135 3 171 3 l -22 -4 l -26 13 l -8 107 q 63 162 14 118 q 142 243 111 206 l 253 379 l 186 494 q 114 572 151 556 q 68 586 100 578 l 63 592 l 86 701 q 289 700 158 700 l 492 706 l 497 693 l 478 596 q 475 596 476 596 q 439 569 439 596 q 486 467 439 542 q 553 581 553 571 q 518 597 553 599 q 515 604 518 601 l 533 699 z "},"y":{"ha":789,"x_min":50,"x_max":822,"o":"m 501 697 l 688 699 l 819 703 l 822 694 l 801 590 q 665 456 715 538 l 540 258 q 513 169 513 206 q 522 120 513 133 q 563 107 532 107 l 621 111 l 626 104 l 603 -7 q 356 0 424 0 l 111 -10 l 133 99 q 233 118 207 103 q 265 190 258 133 q 267 217 267 197 q 246 283 267 238 l 149 501 q 56 586 131 540 l 50 592 l 75 701 q 251 699 217 699 l 461 706 l 469 693 l 447 596 q 443 596 446 596 q 406 569 406 596 q 438 433 406 542 l 456 433 l 499 536 q 519 586 519 574 q 483 597 519 599 l 481 604 l 501 697 z "},"z":{"ha":690,"x_min":-22,"x_max":736,"o":"m 631 22 l 604 -3 l 110 3 l 15 -8 l -22 60 l 397 575 l 329 564 q 248 533 265 554 q 221 444 231 513 l 61 435 q 110 703 94 601 l 124 714 l 326 703 l 713 704 l 736 640 q 311 131 543 426 l 411 149 q 492 192 465 158 q 532 297 518 225 l 692 308 q 631 22 646 131 z "},"{":{"ha":453,"x_min":35,"x_max":522,"o":"m 361 688 l 378 535 q 348 451 378 486 q 264 403 318 417 l 263 396 q 347 286 347 367 q 315 168 347 253 q 283 53 283 83 q 301 6 283 24 q 349 -12 318 -12 l 390 -6 l 406 -24 l 372 -139 q 229 -171 318 -171 q 88 -128 140 -171 q 35 -31 35 -86 q 87 116 35 24 q 139 236 139 208 q 54 326 139 301 l 74 432 q 149 473 122 447 q 175 527 175 499 q 152 631 175 556 q 129 740 129 706 q 203 866 129 817 q 389 915 276 915 q 511 899 439 915 l 522 876 l 483 761 q 429 768 457 768 q 381 747 401 768 q 361 688 361 725 z "},"|":{"ha":389,"x_min":17,"x_max":383,"o":"m 357 1121 l 383 1099 q 290 404 318 635 l 199 -358 l 35 -374 l 17 -351 q 199 1106 26 -271 l 357 1121 z "},"}":{"ha":453,"x_min":-58,"x_max":429,"o":"m 103 60 l 88 221 q 201 356 88 324 l 203 363 q 118 472 118 392 q 149 583 118 504 q 181 692 181 663 q 163 739 181 721 q 115 757 146 757 l 74 750 l 58 768 l 92 883 q 235 915 146 915 q 376 873 324 915 q 429 777 429 831 q 378 636 429 724 q 328 522 328 549 q 411 432 328 447 l 393 326 q 319 288 347 315 q 292 232 292 261 q 314 128 292 203 q 336 18 336 53 q 263 -118 336 -65 q 75 -171 189 -171 q -47 -154 25 -171 l -58 -132 l -19 -17 q 35 -24 7 -24 q 83 -1 63 -24 q 103 60 103 21 z "},"~":{"ha":681,"x_min":6,"x_max":682,"o":"m 206 475 q 341 451 238 475 q 467 428 444 428 q 578 489 507 428 l 601 508 l 624 508 l 682 431 l 679 408 l 513 249 l 482 243 q 347 267 450 243 q 221 290 243 290 q 110 231 181 290 l 86 210 l 64 210 l 6 288 l 8 310 l 175 469 l 206 475 z "}," ":{"ha":190,"x_min":0,"x_max":0,"o":""},"¡":{"ha":382,"x_min":-71,"x_max":361,"o":"m 88 519 q 88 550 88 519 q 131 627 88 582 q 239 672 175 672 q 361 561 361 672 q 317 441 361 486 q 210 396 274 396 q 117 426 147 396 q 88 519 88 456 m 275 292 l 254 -267 l 225 -300 l -40 -336 l -71 -300 l 103 297 l 250 319 l 275 292 z "},"¢":{"ha":546,"x_min":18,"x_max":565,"o":"m 435 432 q 356 504 400 504 q 287 442 313 504 q 261 279 261 381 q 328 178 261 178 q 432 281 385 178 l 461 276 l 533 196 q 449 75 507 129 q 322 -3 390 21 l 271 -210 l 108 -228 l 99 -219 l 151 0 q 53 85 89 25 q 18 232 18 146 q 102 502 18 383 q 314 658 186 621 l 372 894 l 538 914 l 544 901 l 485 663 q 560 638 528 654 l 565 613 l 494 433 l 435 432 z "},"£":{"ha":688,"x_min":-6,"x_max":717,"o":"m 642 300 q 668 176 668 263 q 615 37 668 90 q 482 -17 561 -17 q 355 21 439 -17 q 229 58 271 58 q 33 -1 140 58 l 14 7 l -6 133 q 118 279 108 192 l 125 326 q 110 369 126 358 q 40 382 93 379 l 36 390 l 60 488 l 146 500 l 150 538 q 290 738 164 644 q 535 831 415 831 q 711 810 656 831 l 717 794 l 635 613 l 608 608 q 471 668 515 668 q 410 649 426 668 q 389 579 394 629 l 376 500 l 563 504 l 568 494 l 539 376 q 358 381 464 381 l 350 328 q 331 254 346 292 q 297 200 315 217 l 381 219 q 444 208 393 219 q 522 196 496 196 q 570 225 547 196 q 599 300 593 254 l 642 300 z "},"¤":{"ha":599,"x_min":-12,"x_max":675,"o":"m -12 297 l 104 389 q 99 458 99 411 q 126 565 99 506 l 31 665 l 40 697 l 200 804 q 275 697 249 738 q 363 715 319 715 q 449 697 406 715 l 554 807 l 586 801 l 675 656 l 564 567 q 571 488 571 535 q 539 381 571 440 l 632 288 l 622 256 l 464 149 l 389 251 q 303 236 347 236 q 217 256 258 236 l 110 146 l 78 151 l -12 297 m 344 579 q 323 579 344 579 q 269 545 303 579 q 236 468 236 511 q 260 399 236 425 q 326 372 285 372 q 401 406 367 372 q 435 483 435 440 q 410 552 435 525 q 344 579 385 579 z "},"¥":{"ha":796,"x_min":13,"x_max":813,"o":"m 490 697 l 676 699 l 807 703 l 813 694 l 789 590 q 719 547 743 565 q 672 483 697 528 l 769 486 l 779 472 l 756 353 l 582 353 l 556 310 l 540 289 l 742 293 l 751 279 l 728 160 l 492 160 l 492 147 q 544 107 492 107 l 603 111 l 608 104 l 586 -7 q 343 0 408 0 l 99 -10 l 121 99 q 208 115 183 103 q 243 160 233 128 l 25 158 l 13 169 l 43 288 l 239 288 l 214 353 l 53 351 l 40 363 l 71 481 l 150 481 q 94 532 146 489 q 40 593 43 575 l 65 701 q 292 699 161 699 q 451 707 424 699 l 457 693 l 435 596 q 394 574 394 596 q 433 433 394 564 l 444 433 l 504 569 q 508 588 508 578 q 481 604 508 604 l 474 617 l 490 697 z "},"¦":{"ha":389,"x_min":17,"x_max":383,"o":"m 304 519 l 140 497 l 124 513 l 199 1106 l 357 1121 l 383 1099 q 304 519 335 761 m 86 208 l 243 232 l 265 208 l 197 -358 l 33 -374 l 17 -351 q 86 208 53 -47 z "},"§":{"ha":653,"x_min":10,"x_max":642,"o":"m 211 -132 q 71 -101 132 -132 q 10 -29 10 -69 q 88 149 10 60 l 125 146 q 158 65 126 99 q 233 32 190 32 q 276 69 276 32 q 251 114 276 93 q 190 154 226 135 q 117 197 154 174 q 56 258 81 219 q 31 344 31 296 q 196 556 31 471 q 139 678 139 610 q 229 847 139 778 q 449 915 319 915 q 583 895 525 915 q 642 847 642 875 q 613 749 642 815 q 561 665 583 682 l 526 665 q 498 722 519 700 q 455 744 476 744 q 419 733 433 744 q 406 703 406 722 q 430 664 406 685 q 489 621 454 643 q 558 573 524 599 q 617 508 593 547 q 642 422 642 468 q 488 222 642 308 q 540 111 540 174 q 539 93 540 101 q 433 -67 526 -3 q 211 -132 339 -132 m 285 492 q 257 433 257 461 q 266 385 257 404 q 297 349 275 367 q 386 290 326 326 q 408 345 408 317 q 399 393 408 374 q 369 431 390 413 q 285 492 339 458 z "},"¨":{"ha":536,"x_min":90,"x_max":583,"o":"m 450 776 q 351 869 351 776 q 388 970 351 932 q 479 1008 425 1008 q 583 914 583 1008 q 547 815 583 853 q 450 776 510 776 m 188 776 q 90 869 90 776 q 127 970 90 932 q 218 1008 164 1008 q 322 914 322 1008 q 285 815 322 853 q 188 776 247 776 z "},"©":{"ha":942,"x_min":67,"x_max":894,"o":"m 67 363 q 207 692 67 553 q 532 831 347 831 q 791 720 688 831 q 894 450 894 610 q 753 122 894 261 q 428 -17 613 -17 q 169 92 272 -17 q 67 363 67 201 m 150 371 q 232 153 150 242 q 438 65 314 65 q 699 178 586 65 q 811 443 811 290 q 728 660 811 572 q 522 749 646 749 q 262 636 374 749 q 150 371 150 524 m 629 210 q 461 185 554 185 q 319 233 368 185 q 269 372 269 281 q 535 643 269 643 q 700 625 579 643 l 706 608 q 667 458 683 544 l 543 451 q 550 503 550 492 q 513 539 550 539 q 463 505 475 539 q 450 400 450 471 q 458 310 450 329 q 489 292 465 292 q 523 306 513 292 q 542 365 533 321 l 664 374 q 640 222 647 290 l 629 210 z "},"ª":{"ha":542,"x_min":10,"x_max":535,"o":"m 324 443 q 274 492 274 443 q 294 593 274 508 l 285 593 q 164 443 217 479 q 51 483 92 443 q 10 593 10 522 q 88 799 10 703 q 256 894 167 894 l 321 876 l 325 894 l 346 907 l 486 896 l 494 872 q 442 613 460 724 l 446 610 q 492 646 454 610 l 515 642 l 535 593 q 411 474 454 504 q 324 443 368 443 m 211 597 q 253 653 226 597 q 294 768 281 708 q 228 790 258 790 q 208 745 218 790 q 199 649 199 700 q 211 597 199 597 z "},"«":{"ha":644,"x_min":42,"x_max":653,"o":"m 565 586 l 646 538 l 653 506 q 539 322 628 471 q 607 140 572 221 l 593 108 l 501 58 q 322 304 417 183 l 326 342 q 565 586 460 471 m 285 586 l 365 538 l 372 506 q 258 322 347 471 q 326 140 292 221 l 313 108 l 221 58 q 42 304 136 183 l 46 342 q 285 586 179 471 z "},"¬":{"ha":682,"x_min":17,"x_max":639,"o":"m 632 499 l 639 478 q 590 228 608 369 l 568 40 l 376 15 l 361 28 q 394 288 376 154 l 332 288 l 28 286 l 17 304 l 65 492 q 372 490 253 490 l 632 499 z "},"®":{"ha":631,"x_min":85,"x_max":639,"o":"m 336 421 q 279 421 336 421 q 153 494 222 421 q 85 685 85 568 q 178 894 85 801 q 386 988 272 988 q 569 914 500 988 q 639 724 639 840 q 544 514 639 607 q 336 421 450 421 m 381 929 q 336 929 381 929 q 217 855 292 929 q 142 688 142 781 q 197 538 142 596 q 341 479 251 479 q 506 553 431 479 q 581 720 581 628 q 526 871 581 813 q 381 929 471 929 m 322 854 q 379 857 351 854 q 493 788 493 857 q 433 696 493 729 q 471 624 461 635 q 489 613 481 614 l 492 608 q 490 594 490 604 q 486 582 490 583 q 435 573 467 574 q 392 578 403 572 q 375 610 382 585 l 358 675 l 336 675 q 331 629 331 636 q 336 619 331 622 q 360 615 342 617 l 360 613 l 351 576 q 288 579 306 579 l 272 579 l 211 575 l 219 613 q 250 650 246 618 l 268 793 q 261 818 272 818 l 246 817 l 242 819 l 250 854 l 322 854 m 343 728 l 375 726 q 404 774 404 735 q 364 804 404 804 q 356 794 357 804 q 349 762 354 785 q 343 728 344 739 z "},"¯":{"ha":536,"x_min":126,"x_max":558,"o":"m 546 963 l 558 938 l 514 786 l 146 783 l 126 804 l 171 956 q 378 954 299 954 l 546 963 z "},"°":{"ha":407,"x_min":68,"x_max":436,"o":"m 236 540 q 198 540 236 540 q 114 589 160 540 q 68 715 68 638 q 131 854 68 793 q 269 915 193 915 q 391 867 346 915 q 436 741 436 819 q 374 601 436 663 q 236 540 313 540 m 259 811 q 241 811 259 811 q 198 784 224 811 q 172 721 172 757 q 191 665 172 685 q 245 644 210 644 q 306 671 281 644 q 332 734 332 697 q 313 791 332 771 q 259 811 294 811 z "},"±":{"ha":682,"x_min":-15,"x_max":678,"o":"m 636 278 l 429 276 l 407 81 l 222 56 l 206 68 q 233 276 219 171 l 26 275 l 15 293 l 64 481 q 258 479 160 479 q 272 588 263 515 q 286 697 282 661 l 471 715 l 490 706 q 454 479 469 583 l 671 488 l 678 467 l 636 278 m 557 -171 l -4 -172 l -15 -146 l 17 0 l 465 0 l 583 3 l 594 -24 l 557 -171 z "},"²":{"ha":513,"x_min":-3,"x_max":482,"o":"m 235 813 q 190 847 235 847 q 85 786 144 847 l 65 786 l 54 906 q 274 1011 160 1011 q 396 976 350 1011 q 442 879 442 940 q 399 755 442 818 q 243 590 356 692 l 247 582 l 283 582 q 333 601 315 582 q 361 667 351 619 l 482 675 q 432 461 446 546 l 413 443 q 93 454 193 454 l -3 449 l 0 550 l 144 685 q 235 813 235 772 z "},"³":{"ha":447,"x_min":-7,"x_max":404,"o":"m 21 599 q 102 581 57 581 q 172 594 147 581 q 196 632 196 608 q 107 668 196 668 l 94 683 l 94 775 l 157 786 q 214 853 214 807 q 179 881 214 881 q 82 843 144 881 l 67 843 l 47 946 q 154 994 96 976 q 269 1011 213 1011 q 365 983 325 1011 q 404 909 404 956 q 372 826 404 863 q 285 775 339 789 l 285 764 q 403 640 403 719 q 302 502 403 561 q 76 443 201 443 q 10 470 26 443 q -6 556 -6 497 q -6 575 -6 565 l 21 599 z "},"´":{"ha":536,"x_min":97,"x_max":481,"o":"m 481 915 l 478 892 q 185 729 328 814 l 154 739 l 97 824 l 357 1056 l 381 1056 l 481 915 z "},"µ":{"ha":738,"x_min":-57,"x_max":725,"o":"m 663 178 q 706 189 681 178 l 725 153 q 631 49 686 99 q 536 -17 576 -1 q 389 85 394 -17 l 375 92 q 265 -14 288 -14 q 226 -4 242 -14 l 219 -8 l 204 -146 l 194 -285 l 182 -301 l -39 -336 l -57 -317 q 21 101 -14 -122 l 76 451 q 82 527 82 493 q 78 593 82 561 l 96 632 l 353 672 l 367 642 q 311 445 340 600 q 282 251 282 290 q 328 186 282 186 q 389 208 347 186 l 418 449 q 422 524 422 492 q 417 590 422 556 l 436 628 l 710 667 l 725 636 q 667 434 704 607 q 629 219 629 261 q 663 178 629 178 z "},"¶":{"ha":774,"x_min":33,"x_max":849,"o":"m 406 906 l 625 899 l 849 903 l 826 786 l 822 781 q 774 760 785 771 q 755 710 764 750 q 721 514 746 671 q 685 264 696 357 q 531 -10 667 111 q 246 -131 396 -131 q 118 -92 172 -131 q 64 -9 64 -53 q 90 91 64 35 q 150 188 117 147 l 174 188 q 203 63 174 108 q 288 17 233 17 q 369 47 342 17 q 406 147 397 76 l 481 757 q 476 774 483 769 q 446 778 469 778 q 369 706 397 778 q 340 524 340 633 q 393 322 340 414 l 388 274 q 128 349 224 274 q 33 564 33 425 q 141 804 33 703 q 406 906 249 906 z "},"·":{"ha":321,"x_min":26,"x_max":299,"o":"m 140 214 q 26 325 26 214 q 70 445 26 400 q 178 490 114 490 q 299 378 299 490 q 255 259 299 304 q 140 214 211 214 z "},"¸":{"ha":543,"x_min":32,"x_max":369,"o":"m 128 -175 q 183 -242 128 -242 q 226 -209 226 -242 q 119 -121 226 -176 l 182 50 l 268 50 l 236 -51 q 328 -115 288 -78 q 369 -192 369 -151 q 303 -294 369 -251 q 146 -337 238 -337 q 68 -318 104 -337 q 32 -268 32 -299 q 117 -164 32 -237 l 128 -164 q 128 -175 128 -169 z "},"¹":{"ha":383,"x_min":-19,"x_max":364,"o":"m 322 914 q 315 897 322 914 q 288 749 308 881 q 267 580 267 618 q 294 542 267 542 l 335 543 l 338 538 l 313 449 q 165 454 217 454 l -19 444 l -1 525 q 89 586 83 533 q 121 867 121 856 q 116 887 121 879 q 85 894 111 894 l 40 893 l 32 903 l 50 976 q 351 1011 60 976 l 364 967 q 322 914 335 947 z "},"º":{"ha":503,"x_min":21,"x_max":464,"o":"m 236 549 q 268 583 258 549 q 278 684 278 617 q 271 769 278 751 q 246 788 264 788 q 204 638 204 788 q 236 549 204 549 m 201 443 q 68 492 115 443 q 21 631 21 540 q 92 833 21 758 q 283 907 163 907 q 417 860 371 907 q 464 725 464 814 q 392 519 464 596 q 201 443 321 443 z "},"»":{"ha":644,"x_min":57,"x_max":667,"o":"m 424 58 l 343 107 l 338 139 q 450 322 386 210 q 382 504 417 424 l 396 536 l 488 586 q 667 340 554 488 l 663 303 q 424 58 531 174 m 143 58 l 63 107 l 57 139 q 169 322 106 210 q 101 504 136 424 l 115 536 l 207 586 q 386 340 274 488 l 382 303 q 143 58 250 174 z "},"¼":{"ha":1174,"x_min":-19,"x_max":1125,"o":"m 893 899 l 907 865 q 532 288 658 481 l 269 -126 l 140 -78 l 132 -54 q 401 351 286 168 l 772 943 l 893 899 m 322 813 q 315 796 322 813 q 288 648 308 779 q 267 478 267 517 q 294 440 267 440 l 335 442 l 338 436 l 313 347 q 165 353 217 353 l -19 343 l -1 424 q 89 485 83 432 q 121 766 121 754 q 116 785 121 778 q 85 793 111 793 l 40 792 l 32 801 l 50 875 q 351 910 60 875 l 364 865 q 322 813 335 846 m 656 118 l 668 218 l 938 554 l 946 557 l 1093 544 l 1056 235 l 1115 235 l 1125 221 l 1100 108 l 1042 110 l 1033 11 l 1022 0 l 853 -11 l 843 0 q 863 115 854 56 l 656 118 m 882 347 l 804 235 l 879 235 l 893 347 l 882 347 z "},"½":{"ha":1218,"x_min":-19,"x_max":1176,"o":"m 893 899 l 907 865 q 532 288 658 481 l 269 -126 l 140 -78 l 132 -54 q 401 351 286 168 l 772 943 l 893 899 m 322 813 q 315 796 322 813 q 288 648 308 779 q 267 478 267 517 q 294 440 267 440 l 335 442 l 338 436 l 313 347 q 165 353 217 353 l -19 343 l -1 424 q 89 485 83 432 q 121 766 121 754 q 116 785 121 778 q 85 793 111 793 l 40 792 l 32 801 l 50 875 q 351 910 60 875 l 364 865 q 322 813 335 846 m 929 358 q 884 393 929 393 q 779 332 839 393 l 760 332 l 749 451 q 968 557 854 557 q 1090 522 1044 557 q 1136 425 1136 486 q 1093 301 1136 364 q 938 136 1050 238 l 942 128 l 978 128 q 1028 147 1010 128 q 1056 213 1046 165 l 1176 221 q 1126 7 1140 92 l 1107 -11 q 788 0 888 0 l 692 -6 l 694 96 l 839 231 q 929 358 929 318 z "},"¾":{"ha":1168,"x_min":-7,"x_max":1119,"o":"m 888 899 l 901 865 q 526 288 653 481 l 264 -126 l 135 -78 l 126 -54 q 396 351 281 168 l 767 943 l 888 899 m 650 118 l 663 218 l 932 554 l 940 557 l 1088 544 l 1050 235 l 1110 235 l 1119 221 l 1094 108 l 1036 110 l 1028 11 l 1017 0 l 847 -11 l 838 0 q 857 115 849 56 l 650 118 m 876 347 l 799 235 l 874 235 l 888 347 l 876 347 m 21 497 q 102 479 57 479 q 172 493 147 479 q 196 531 196 507 q 107 567 196 567 l 94 582 l 94 674 l 157 685 q 214 751 214 706 q 179 779 214 779 q 82 742 144 779 l 67 742 l 47 844 q 154 892 96 875 q 269 910 213 910 q 365 882 325 910 q 404 808 404 854 q 372 724 404 761 q 285 674 339 688 l 285 663 q 403 539 403 618 q 302 401 403 460 q 76 342 201 342 q 10 369 26 342 q -6 454 -6 396 q -6 474 -6 464 l 21 497 z "},"¿":{"ha":515,"x_min":-71,"x_max":454,"o":"m 183 -32 q 388 -133 183 -125 l 404 -158 l 328 -322 l 303 -335 q 34 -264 139 -331 q -71 -99 -71 -197 q -17 35 -71 -26 q 183 186 36 96 l 188 194 l 190 290 l 204 310 l 371 338 l 390 326 l 400 142 l 393 121 l 257 56 q 183 -32 183 18 m 181 508 q 224 627 181 582 q 331 672 268 672 q 454 561 454 672 q 410 441 454 486 q 303 396 367 396 q 181 508 181 396 z "},"À":{"ha":918,"x_min":-46,"x_max":897,"o":"m 524 168 l 524 247 q 422 250 433 250 l 315 243 q 289 144 289 154 q 321 124 289 124 l 358 124 l 368 110 l 343 -6 q 135 -1 217 -1 l -46 -3 l -22 118 q 54 194 28 131 l 347 892 l 718 914 l 738 897 q 824 213 804 363 q 844 144 829 165 q 889 119 860 124 l 897 106 l 872 -4 q 681 -1 756 -1 l 419 -8 l 410 4 l 432 121 q 507 136 490 128 q 524 168 524 144 m 349 1036 l 339 1058 l 389 1208 l 411 1215 q 757 1076 586 1140 l 728 978 l 701 960 q 349 1036 572 993 m 447 418 q 515 421 457 418 l 501 664 l 471 664 l 381 418 l 447 418 z "},"Á":{"ha":918,"x_min":-46,"x_max":897,"o":"m 524 168 l 524 247 q 422 250 433 250 l 315 243 q 289 144 289 154 q 321 124 289 124 l 358 124 l 368 110 l 343 -6 q 135 -1 217 -1 l -46 -3 l -22 118 q 54 194 28 131 l 347 892 l 718 914 l 738 897 q 824 213 804 363 q 844 144 829 165 q 889 119 860 124 l 897 106 l 872 -4 q 681 -1 756 -1 l 419 -8 l 410 4 l 432 121 q 507 136 490 128 q 524 168 524 144 m 447 418 q 515 421 457 418 l 501 664 l 471 664 l 381 418 l 447 418 m 765 1058 l 756 1036 q 403 960 575 1003 l 376 978 l 347 1076 q 693 1215 490 1129 l 715 1208 l 765 1058 z "},"Â":{"ha":918,"x_min":-46,"x_max":897,"o":"m 524 168 l 524 247 q 422 250 433 250 l 315 243 q 289 144 289 154 q 321 124 289 124 l 358 124 l 368 110 l 343 -6 q 135 -1 217 -1 l -46 -3 l -22 118 q 54 194 28 131 l 347 892 l 718 914 l 738 897 q 824 213 804 363 q 844 144 829 165 q 889 119 860 124 l 897 106 l 872 -4 q 681 -1 756 -1 l 419 -8 l 410 4 l 432 121 q 507 136 490 128 q 524 168 524 144 m 447 418 q 515 421 457 418 l 501 664 l 471 664 l 381 418 l 447 418 m 599 1261 q 686 1185 599 1265 q 815 1069 774 1106 l 756 983 l 722 974 q 553 1044 661 1001 q 367 974 483 1019 l 336 983 l 297 1069 q 561 1261 408 1144 l 599 1261 z "},"Ã":{"ha":918,"x_min":-46,"x_max":897,"o":"m 524 168 l 524 247 q 422 250 433 250 l 315 243 q 289 144 289 154 q 321 124 289 124 l 358 124 l 368 110 l 343 -6 q 135 -1 217 -1 l -46 -3 l -22 118 q 54 194 28 131 l 347 892 l 718 914 l 738 897 q 824 213 804 363 q 844 144 829 165 q 889 119 860 124 l 897 106 l 872 -4 q 681 -1 756 -1 l 419 -8 l 410 4 l 432 121 q 507 136 490 128 q 524 168 524 144 m 447 418 q 515 421 457 418 l 501 664 l 471 664 l 381 418 l 447 418 m 439 1200 q 542 1176 464 1200 q 639 1153 621 1153 q 724 1214 669 1153 l 742 1233 l 764 1233 l 836 1158 l 833 1136 l 704 976 l 681 971 q 577 994 656 971 q 481 1018 499 1018 q 438 998 464 1018 q 378 938 413 978 l 356 938 l 283 1013 l 286 1035 l 415 1194 l 439 1200 z "},"Ä":{"ha":918,"x_min":-46,"x_max":897,"o":"m 524 168 l 524 247 q 422 250 433 250 l 315 243 q 289 144 289 154 q 321 124 289 124 l 358 124 l 368 110 l 343 -6 q 135 -1 217 -1 l -46 -3 l -22 118 q 54 194 28 131 l 347 892 l 718 914 l 738 897 q 824 213 804 363 q 844 144 829 165 q 889 119 860 124 l 897 106 l 872 -4 q 681 -1 756 -1 l 419 -8 l 410 4 l 432 121 q 507 136 490 128 q 524 168 524 144 m 447 418 q 515 421 457 418 l 501 664 l 471 664 l 381 418 l 447 418 m 669 965 q 571 1058 571 965 q 608 1159 571 1121 q 699 1197 644 1197 q 803 1103 803 1197 q 766 1003 803 1042 q 669 965 729 965 m 408 965 q 311 1058 311 965 q 348 1159 311 1121 q 439 1197 385 1197 q 542 1103 542 1197 q 505 1003 542 1042 q 408 965 468 965 z "},"Å":{"ha":918,"x_min":-46,"x_max":897,"o":"m 524 168 l 524 247 q 422 250 433 250 l 315 243 q 289 144 289 154 q 321 124 289 124 l 358 124 l 368 110 l 343 -6 q 135 -1 217 -1 l -46 -3 l -22 118 q 54 194 28 131 l 347 892 l 718 914 l 738 897 q 824 213 804 363 q 844 144 829 165 q 889 119 860 124 l 897 106 l 872 -4 q 681 -1 756 -1 l 419 -8 l 410 4 l 432 121 q 507 136 490 128 q 524 168 524 144 m 710 1112 q 710 1082 710 1112 q 662 999 710 1051 q 547 947 614 947 q 448 981 479 947 q 417 1078 417 1014 q 465 1191 417 1143 q 581 1239 513 1239 q 680 1206 650 1239 q 710 1112 710 1172 m 447 418 q 515 421 457 418 l 501 664 l 471 664 l 381 418 l 447 418 m 560 1044 q 596 1056 579 1044 q 613 1097 613 1068 q 565 1139 613 1139 q 514 1088 514 1139 q 560 1044 514 1044 z "},"Æ":{"ha":1272,"x_min":-33,"x_max":1242,"o":"m 292 140 q 303 126 292 128 q 364 124 315 124 l 368 110 l 344 -6 q 75 -1 336 -1 l -33 -3 l -22 118 q 64 194 31 131 l 343 738 q 313 776 342 776 l 278 774 l 263 793 l 289 903 q 816 900 515 899 q 1218 915 1117 901 l 1233 893 q 1168 617 1192 747 l 975 604 q 985 678 985 649 q 960 720 985 708 q 865 732 935 732 q 818 699 818 732 l 826 517 l 924 535 l 1064 571 l 1085 547 l 1050 386 l 917 369 l 831 353 l 832 251 q 893 158 833 158 q 995 185 967 158 q 1047 307 1024 213 l 1226 319 l 1242 299 q 1168 13 1200 164 l 1144 -10 q 653 0 922 0 l 419 -8 l 411 4 l 433 121 q 508 139 489 126 q 535 225 535 154 l 539 304 l 438 286 l 331 254 q 292 140 292 146 m 422 450 l 478 456 l 546 468 l 551 664 l 521 664 l 422 450 z "},"Ç":{"ha":811,"x_min":25,"x_max":853,"o":"m 308 -175 q 364 -242 308 -242 q 407 -209 407 -242 q 300 -121 407 -176 l 339 -12 q 106 96 188 0 q 25 360 25 192 q 156 774 25 632 q 536 915 286 915 q 844 879 639 915 l 853 851 q 778 554 808 724 l 561 542 q 576 646 576 621 q 485 724 576 724 q 376 643 408 724 q 344 372 344 563 q 366 224 344 268 q 439 181 388 181 q 515 213 490 181 q 558 342 539 246 l 774 356 q 722 60 738 193 l 701 38 q 428 -14 583 -7 l 417 -51 q 509 -115 468 -78 q 550 -192 550 -151 q 484 -294 550 -251 q 326 -337 418 -337 q 249 -318 285 -337 q 213 -268 213 -299 q 297 -164 213 -237 l 308 -164 q 308 -175 308 -169 z "},"È":{"ha":814,"x_min":-28,"x_max":865,"o":"m 421 538 l 531 536 l 679 544 l 693 525 l 654 365 q 512 369 556 369 q 393 361 468 369 q 374 204 374 229 q 385 169 374 179 q 429 160 397 160 q 544 187 513 160 q 599 307 575 214 l 778 319 l 793 299 q 719 13 751 164 l 696 -10 q 339 0 476 0 q -28 -14 139 0 l 0 114 q 73 148 51 122 q 101 236 94 174 q 164 738 164 724 q 160 765 164 753 q 133 776 156 776 l 99 774 l 85 793 l 111 903 q 513 899 306 899 q 850 915 719 899 l 865 893 q 800 617 822 747 l 606 604 q 617 678 617 649 q 592 720 617 708 q 519 732 567 732 q 462 725 471 732 q 449 694 453 718 l 421 538 m 307 1036 l 297 1058 l 347 1208 l 369 1215 q 715 1076 544 1140 l 686 978 l 660 960 q 307 1036 531 993 z "},"É":{"ha":814,"x_min":-28,"x_max":865,"o":"m 421 538 l 531 536 l 679 544 l 693 525 l 654 365 q 512 369 556 369 q 393 361 468 369 q 374 204 374 229 q 385 169 374 179 q 429 160 397 160 q 544 187 513 160 q 599 307 575 214 l 778 319 l 793 299 q 719 13 751 164 l 696 -10 q 339 0 476 0 q -28 -14 139 0 l 0 114 q 73 148 51 122 q 101 236 94 174 q 164 738 164 724 q 160 765 164 753 q 133 776 156 776 l 99 774 l 85 793 l 111 903 q 513 899 306 899 q 850 915 719 899 l 865 893 q 800 617 822 747 l 606 604 q 617 678 617 649 q 592 720 617 708 q 519 732 567 732 q 462 725 471 732 q 449 694 453 718 l 421 538 m 717 1058 l 707 1036 q 354 960 526 1003 l 328 978 l 299 1076 q 644 1215 442 1129 l 667 1208 l 717 1058 z "},"Ê":{"ha":814,"x_min":-28,"x_max":865,"o":"m 421 538 l 531 536 l 679 544 l 693 525 l 654 365 q 512 369 556 369 q 393 361 468 369 q 374 204 374 229 q 385 169 374 179 q 429 160 397 160 q 544 187 513 160 q 599 307 575 214 l 778 319 l 793 299 q 719 13 751 164 l 696 -10 q 339 0 476 0 q -28 -14 139 0 l 0 114 q 73 148 51 122 q 101 236 94 174 q 164 738 164 724 q 160 765 164 753 q 133 776 156 776 l 99 774 l 85 793 l 111 903 q 513 899 306 899 q 850 915 719 899 l 865 893 q 800 617 822 747 l 606 604 q 617 678 617 649 q 592 720 617 708 q 519 732 567 732 q 462 725 471 732 q 449 694 453 718 l 421 538 m 578 1261 q 665 1185 578 1265 q 794 1069 753 1106 l 735 983 l 701 974 q 532 1044 640 1001 q 346 974 463 1019 l 315 983 l 276 1069 q 540 1261 388 1144 l 578 1261 z "},"Ë":{"ha":814,"x_min":-28,"x_max":865,"o":"m 421 538 l 531 536 l 679 544 l 693 525 l 654 365 q 512 369 556 369 q 393 361 468 369 q 374 204 374 229 q 385 169 374 179 q 429 160 397 160 q 544 187 513 160 q 599 307 575 214 l 778 319 l 793 299 q 719 13 751 164 l 696 -10 q 339 0 476 0 q -28 -14 139 0 l 0 114 q 73 148 51 122 q 101 236 94 174 q 164 738 164 724 q 160 765 164 753 q 133 776 156 776 l 99 774 l 85 793 l 111 903 q 513 899 306 899 q 850 915 719 899 l 865 893 q 800 617 822 747 l 606 604 q 617 678 617 649 q 592 720 617 708 q 519 732 567 732 q 462 725 471 732 q 449 694 453 718 l 421 538 m 649 965 q 550 1058 550 965 q 587 1159 550 1121 q 678 1197 624 1197 q 782 1103 782 1197 q 745 1003 782 1042 q 649 965 708 965 m 388 965 q 290 1058 290 965 q 327 1159 290 1121 q 417 1197 364 1197 q 521 1103 521 1197 q 484 1003 521 1042 q 388 965 447 965 z "},"Ì":{"ha":499,"x_min":-24,"x_max":558,"o":"m 449 708 q 399 403 428 594 q 371 177 371 211 q 378 132 371 143 q 406 121 386 121 l 449 125 l 457 111 l 431 -6 q 204 0 261 0 l -24 -7 l 1 111 q 76 145 57 124 q 101 225 94 167 q 164 739 164 724 q 157 765 164 754 q 122 776 150 776 l 89 775 l 78 794 l 101 899 l 322 899 l 558 906 l 533 781 q 472 760 488 774 q 449 708 457 747 m 124 1036 l 114 1058 l 164 1208 l 186 1215 q 532 1076 361 1140 l 503 978 l 476 960 q 124 1036 347 993 z "},"Í":{"ha":499,"x_min":-24,"x_max":558,"o":"m 449 708 q 399 403 428 594 q 371 177 371 211 q 378 132 371 143 q 406 121 386 121 l 449 125 l 457 111 l 431 -6 q 204 0 261 0 l -24 -7 l 1 111 q 76 145 57 124 q 101 225 94 167 q 164 739 164 724 q 157 765 164 754 q 122 776 150 776 l 89 775 l 78 794 l 101 899 l 322 899 l 558 906 l 533 781 q 472 760 488 774 q 449 708 457 747 m 551 1058 l 542 1036 q 189 960 361 1003 l 163 978 l 133 1076 q 479 1215 276 1129 l 501 1208 l 551 1058 z "},"Î":{"ha":499,"x_min":-24,"x_max":601,"o":"m 449 708 q 399 403 428 594 q 371 177 371 211 q 378 132 371 143 q 406 121 386 121 l 449 125 l 457 111 l 431 -6 q 204 0 261 0 l -24 -7 l 1 111 q 76 145 57 124 q 101 225 94 167 q 164 739 164 724 q 157 765 164 754 q 122 776 150 776 l 89 775 l 78 794 l 101 899 l 322 899 l 558 906 l 533 781 q 472 760 488 774 q 449 708 457 747 m 385 1261 q 472 1185 385 1265 q 601 1069 560 1106 l 542 983 l 508 974 q 339 1044 447 1001 q 153 974 269 1019 l 122 983 l 83 1069 q 347 1261 194 1144 l 385 1261 z "},"Ï":{"ha":499,"x_min":-24,"x_max":589,"o":"m 449 708 q 399 403 428 594 q 371 177 371 211 q 378 132 371 143 q 406 121 386 121 l 449 125 l 457 111 l 431 -6 q 204 0 261 0 l -24 -7 l 1 111 q 76 145 57 124 q 101 225 94 167 q 164 739 164 724 q 157 765 164 754 q 122 776 150 776 l 89 775 l 78 794 l 101 899 l 322 899 l 558 906 l 533 781 q 472 760 488 774 q 449 708 457 747 m 456 965 q 357 1058 357 965 q 394 1159 357 1121 q 485 1197 431 1197 q 589 1103 589 1197 q 552 1003 589 1042 q 456 965 515 965 m 194 965 q 97 1058 97 965 q 134 1159 97 1121 q 225 1197 171 1197 q 328 1103 328 1197 q 291 1003 328 1042 q 194 965 254 965 z "},"Ð":{"ha":944,"x_min":6,"x_max":951,"o":"m 193 738 q 167 774 193 774 l 124 771 l 113 790 l 139 903 q 346 899 290 899 l 558 907 q 850 818 749 907 q 951 558 951 729 q 804 141 951 299 q 415 -17 657 -17 q 203 0 288 0 l 6 -11 l 33 118 q 103 150 83 126 q 133 233 124 174 l 150 369 l 28 369 l 15 381 l 49 504 l 167 504 q 193 738 193 724 m 504 731 q 483 723 490 731 q 472 693 476 715 q 442 506 468 671 l 539 510 l 549 496 l 524 371 l 422 371 q 399 197 399 218 q 435 157 399 157 q 632 553 632 157 q 603 691 632 651 q 504 731 575 731 z "},"Ñ":{"ha":997,"x_min":-17,"x_max":1069,"o":"m 689 463 q 715 739 715 724 q 708 765 715 754 q 678 776 701 776 l 636 776 l 631 792 l 651 904 q 936 899 803 899 q 1069 903 1069 899 l 1047 778 q 985 753 1004 772 q 960 690 967 733 l 857 0 l 590 -17 q 382 438 496 200 l 361 438 q 335 162 335 178 q 342 133 335 146 q 381 119 350 119 l 425 125 l 436 113 l 407 -6 q 204 0 254 0 q -17 -11 111 0 l 13 114 q 74 140 53 119 q 100 201 94 160 q 176 719 176 700 q 163 753 176 739 q 86 774 149 767 l 72 793 l 93 906 q 296 899 194 899 l 474 904 q 668 463 551 704 l 689 463 m 485 1200 q 588 1176 510 1200 q 683 1153 667 1153 q 769 1214 715 1153 l 788 1233 l 810 1233 l 882 1158 l 879 1136 l 750 976 l 726 971 q 623 994 701 971 q 527 1018 544 1018 q 484 998 510 1018 q 424 938 458 978 l 401 938 l 329 1013 l 332 1035 l 461 1194 l 485 1200 z "},"Ò":{"ha":879,"x_min":25,"x_max":886,"o":"m 431 158 q 534 251 503 158 q 565 558 565 344 q 475 725 565 725 q 374 631 406 725 q 343 325 343 538 q 431 158 343 158 m 393 -17 q 122 80 219 -17 q 25 356 25 176 q 151 770 25 625 q 517 915 276 915 q 790 823 694 915 q 886 553 886 731 q 758 133 886 283 q 393 -17 631 -17 m 326 1036 l 317 1058 l 367 1208 l 389 1215 q 735 1076 564 1140 l 706 978 l 679 960 q 326 1036 550 993 z "},"Ó":{"ha":879,"x_min":25,"x_max":886,"o":"m 431 158 q 534 251 503 158 q 565 558 565 344 q 475 725 565 725 q 374 631 406 725 q 343 325 343 538 q 431 158 343 158 m 393 -17 q 122 80 219 -17 q 25 356 25 176 q 151 770 25 625 q 517 915 276 915 q 790 823 694 915 q 886 553 886 731 q 758 133 886 283 q 393 -17 631 -17 m 733 1058 l 724 1036 q 371 960 543 1003 l 344 978 l 315 1076 q 661 1215 458 1129 l 683 1208 l 733 1058 z "},"Ô":{"ha":879,"x_min":25,"x_max":886,"o":"m 431 158 q 534 251 503 158 q 565 558 565 344 q 475 725 565 725 q 374 631 406 725 q 343 325 343 538 q 431 158 343 158 m 393 -17 q 122 80 219 -17 q 25 356 25 176 q 151 770 25 625 q 517 915 276 915 q 790 823 694 915 q 886 553 886 731 q 758 133 886 283 q 393 -17 631 -17 m 575 1261 q 663 1185 575 1265 q 792 1069 750 1106 l 732 983 l 699 974 q 529 1044 638 1001 q 343 974 460 1019 l 313 983 l 274 1069 q 538 1261 385 1144 l 575 1261 z "},"Õ":{"ha":879,"x_min":25,"x_max":886,"o":"m 431 158 q 534 251 503 158 q 565 558 565 344 q 475 725 565 725 q 374 631 406 725 q 343 325 343 538 q 431 158 343 158 m 393 -17 q 122 80 219 -17 q 25 356 25 176 q 151 770 25 625 q 517 915 276 915 q 790 823 694 915 q 886 553 886 731 q 758 133 886 283 q 393 -17 631 -17 m 415 1200 q 519 1176 440 1200 q 614 1153 597 1153 q 700 1214 646 1153 l 718 1233 l 740 1233 l 813 1158 l 810 1136 l 681 976 l 657 971 q 553 994 632 971 q 458 1018 475 1018 q 415 998 440 1018 q 354 938 389 978 l 332 938 l 260 1013 l 263 1035 l 392 1194 l 415 1200 z "},"Ö":{"ha":879,"x_min":25,"x_max":886,"o":"m 431 158 q 534 251 503 158 q 565 558 565 344 q 475 725 565 725 q 374 631 406 725 q 343 325 343 538 q 431 158 343 158 m 393 -17 q 122 80 219 -17 q 25 356 25 176 q 151 770 25 625 q 517 915 276 915 q 790 823 694 915 q 886 553 886 731 q 758 133 886 283 q 393 -17 631 -17 m 646 965 q 547 1058 547 965 q 584 1159 547 1121 q 675 1197 621 1197 q 779 1103 779 1197 q 742 1003 779 1042 q 646 965 706 965 m 385 965 q 288 1058 288 965 q 324 1159 288 1121 q 414 1197 361 1197 q 518 1103 518 1197 q 481 1003 518 1042 q 385 965 444 965 z "},"×":{"ha":682,"x_min":47,"x_max":644,"o":"m 526 632 l 546 624 l 644 482 l 481 328 l 614 179 l 603 157 l 443 36 l 318 183 l 160 36 l 139 40 l 47 185 q 196 322 119 253 l 64 479 l 71 501 l 235 617 q 357 467 296 540 l 526 632 z "},"Ø":{"ha":879,"x_min":13,"x_max":892,"o":"m 25 356 q 151 770 25 625 q 517 915 276 915 q 658 896 593 915 l 754 1044 l 889 969 l 892 951 l 800 813 q 886 553 886 718 q 758 133 886 283 q 393 -17 631 -17 q 260 0 319 -17 l 150 -162 l 18 -86 l 13 -72 l 118 83 q 25 356 25 181 m 431 158 q 534 251 503 158 q 565 558 565 344 q 475 725 565 725 q 374 631 406 725 q 343 325 343 538 q 431 158 343 158 z "},"Ù":{"ha":840,"x_min":53,"x_max":915,"o":"m 586 738 q 558 776 586 776 l 529 774 l 525 779 l 556 903 q 717 899 668 899 l 915 903 l 889 778 q 833 753 846 764 q 818 717 821 742 l 769 325 q 651 67 746 151 q 388 -17 556 -17 q 143 42 221 -17 q 65 221 65 100 q 95 484 65 243 q 125 740 125 725 q 121 766 125 756 q 94 776 117 776 l 56 774 l 53 779 l 82 903 q 324 899 215 899 l 507 904 l 478 775 q 426 756 442 771 q 406 707 410 740 l 349 306 q 346 260 346 279 q 428 160 346 160 q 500 188 476 160 q 533 282 524 215 q 586 738 586 725 m 315 1036 l 306 1058 l 356 1208 l 378 1215 q 724 1076 553 1140 l 694 978 l 668 960 q 315 1036 539 993 z "},"Ú":{"ha":840,"x_min":53,"x_max":915,"o":"m 586 738 q 558 776 586 776 l 529 774 l 525 779 l 556 903 q 717 899 668 899 l 915 903 l 889 778 q 833 753 846 764 q 818 717 821 742 l 769 325 q 651 67 746 151 q 388 -17 556 -17 q 143 42 221 -17 q 65 221 65 100 q 95 484 65 243 q 125 740 125 725 q 121 766 125 756 q 94 776 117 776 l 56 774 l 53 779 l 82 903 q 324 899 215 899 l 507 904 l 478 775 q 426 756 442 771 q 406 707 410 740 l 349 306 q 346 260 346 279 q 428 160 346 160 q 500 188 476 160 q 533 282 524 215 q 586 738 586 725 m 725 1058 l 715 1036 q 363 960 535 1003 l 336 978 l 307 1076 q 653 1215 450 1129 l 675 1208 l 725 1058 z "},"Û":{"ha":840,"x_min":53,"x_max":915,"o":"m 586 738 q 558 776 586 776 l 529 774 l 525 779 l 556 903 q 717 899 668 899 l 915 903 l 889 778 q 833 753 846 764 q 818 717 821 742 l 769 325 q 651 67 746 151 q 388 -17 556 -17 q 143 42 221 -17 q 65 221 65 100 q 95 484 65 243 q 125 740 125 725 q 121 766 125 756 q 94 776 117 776 l 56 774 l 53 779 l 82 903 q 324 899 215 899 l 507 904 l 478 775 q 426 756 442 771 q 406 707 410 740 l 349 306 q 346 260 346 279 q 428 160 346 160 q 500 188 476 160 q 533 282 524 215 q 586 738 586 725 m 586 1261 q 674 1185 586 1265 q 803 1069 761 1106 l 743 983 l 710 974 q 540 1044 649 1001 q 354 974 471 1019 l 324 983 l 285 1069 q 549 1261 396 1144 l 586 1261 z "},"Ü":{"ha":840,"x_min":53,"x_max":915,"o":"m 586 738 q 558 776 586 776 l 529 774 l 525 779 l 556 903 q 717 899 668 899 l 915 903 l 889 778 q 833 753 846 764 q 818 717 821 742 l 769 325 q 651 67 746 151 q 388 -17 556 -17 q 143 42 221 -17 q 65 221 65 100 q 95 484 65 243 q 125 740 125 725 q 121 766 125 756 q 94 776 117 776 l 56 774 l 53 779 l 82 903 q 324 899 215 899 l 507 904 l 478 775 q 426 756 442 771 q 406 707 410 740 l 349 306 q 346 260 346 279 q 428 160 346 160 q 500 188 476 160 q 533 282 524 215 q 586 738 586 725 m 657 965 q 558 1058 558 965 q 595 1159 558 1121 q 686 1197 632 1197 q 790 1103 790 1197 q 753 1003 790 1042 q 657 965 717 965 m 396 965 q 299 1058 299 965 q 335 1159 299 1121 q 425 1197 372 1197 q 529 1103 529 1197 q 492 1003 529 1042 q 396 965 456 965 z "},"Ý":{"ha":903,"x_min":56,"x_max":969,"o":"m 461 740 q 507 538 461 694 l 526 538 l 596 696 q 621 760 621 742 q 574 779 621 779 l 571 788 l 596 897 l 811 897 l 965 903 l 969 892 l 944 771 q 775 596 843 714 l 622 343 q 586 214 596 294 q 583 178 583 197 q 594 142 583 158 q 643 126 604 126 l 713 131 l 718 122 l 690 -8 q 407 0 486 0 l 128 -12 l 154 115 q 272 143 242 122 q 308 225 301 164 q 313 268 313 258 q 289 372 313 314 l 178 649 q 61 765 150 722 l 56 774 l 85 900 q 290 897 246 897 l 536 907 l 544 892 l 518 778 q 461 740 461 778 m 769 1058 l 760 1036 q 407 960 579 1003 l 381 978 l 351 1076 q 697 1215 494 1129 l 719 1208 l 769 1058 z "},"Þ":{"ha":819,"x_min":-24,"x_max":840,"o":"m 542 725 q 840 500 840 725 q 736 278 840 363 q 468 193 632 193 l 372 193 l 368 161 q 373 128 365 136 q 406 121 381 121 l 463 125 l 472 111 l 446 -6 q 204 0 265 0 l -24 -7 l 1 111 q 76 144 56 122 q 101 225 96 167 q 164 739 164 724 q 157 765 164 754 q 122 776 150 776 l 89 775 l 78 794 l 101 899 l 322 899 l 558 906 l 533 781 q 469 761 482 769 q 450 725 456 754 l 542 725 m 553 478 q 449 565 553 565 q 418 535 422 565 q 394 356 404 435 q 475 342 453 342 q 553 478 553 364 z "},"ß":{"ha":1283,"x_min":-11,"x_max":1311,"o":"m 228 257 q 119 317 161 283 q 62 382 76 350 q 47 454 47 414 q 151 642 47 572 q 429 713 254 713 q 657 682 540 713 l 669 656 q 615 467 636 564 l 468 457 l 454 467 q 457 489 457 488 q 390 549 457 549 q 345 537 363 549 q 328 506 328 525 q 406 442 328 475 q 547 374 513 399 q 618 236 618 319 q 516 53 618 119 q 235 -12 414 -12 q 115 -1 174 -12 q 1 35 57 11 l -11 56 q 38 232 25 167 l 196 243 q 194 217 194 236 q 214 172 194 197 q 274 146 233 146 q 338 181 338 146 q 312 219 338 203 q 258 246 286 235 q 228 257 229 257 m 869 257 q 760 317 803 283 q 703 382 718 350 q 689 454 689 414 q 792 642 689 572 q 1071 713 896 713 q 1299 682 1182 713 l 1311 656 q 1257 467 1278 564 l 1110 457 l 1096 467 q 1099 489 1099 488 q 1032 549 1099 549 q 987 537 1004 549 q 969 506 969 525 q 1047 442 969 475 q 1189 374 1154 399 q 1260 236 1260 319 q 1158 53 1260 119 q 876 -12 1056 -12 q 757 -1 815 -12 q 643 35 699 11 l 631 56 q 679 232 667 167 l 838 243 q 836 217 836 236 q 856 172 836 197 q 915 146 875 146 q 979 181 979 146 q 953 219 979 203 q 899 246 928 235 q 869 257 871 257 z "},"à":{"ha":797,"x_min":-29,"x_max":767,"o":"m 439 138 l 442 182 l 363 183 q 278 179 363 183 q 263 118 263 122 q 285 106 263 106 l 311 106 l 321 93 l 300 -4 q 124 -1 192 -1 l -29 -1 l -10 100 q 49 154 29 111 l 282 694 l 621 713 l 638 697 q 707 188 697 267 q 758 101 717 108 l 767 89 l 744 -3 q 581 -1 646 -1 l 357 -6 l 349 4 l 367 104 q 426 115 414 110 q 439 138 439 121 m 269 836 l 260 858 l 310 1008 l 332 1015 q 678 876 507 940 l 649 778 l 622 760 q 269 836 493 793 m 383 331 q 435 332 410 331 l 426 504 l 399 504 l 333 331 l 383 331 z "},"á":{"ha":797,"x_min":-29,"x_max":767,"o":"m 439 138 l 442 182 l 363 183 q 278 179 363 183 q 263 118 263 122 q 285 106 263 106 l 311 106 l 321 93 l 300 -4 q 124 -1 192 -1 l -29 -1 l -10 100 q 49 154 29 111 l 282 694 l 621 713 l 638 697 q 707 188 697 267 q 758 101 717 108 l 767 89 l 744 -3 q 581 -1 646 -1 l 357 -6 l 349 4 l 367 104 q 426 115 414 110 q 439 138 439 121 m 667 858 l 657 836 q 304 760 476 803 l 278 778 l 249 876 q 594 1015 392 929 l 617 1008 l 667 858 m 383 331 q 435 332 410 331 l 426 504 l 399 504 l 333 331 l 383 331 z "},"â":{"ha":797,"x_min":-29,"x_max":767,"o":"m 439 138 l 442 182 l 363 183 q 278 179 363 183 q 263 118 263 122 q 285 106 263 106 l 311 106 l 321 93 l 300 -4 q 124 -1 192 -1 l -29 -1 l -10 100 q 49 154 29 111 l 282 694 l 621 713 l 638 697 q 707 188 697 267 q 758 101 717 108 l 767 89 l 744 -3 q 581 -1 646 -1 l 357 -6 l 349 4 l 367 104 q 426 115 414 110 q 439 138 439 121 m 511 1061 q 599 985 511 1065 q 728 869 686 906 l 668 783 l 635 774 q 465 844 574 801 q 279 774 396 819 l 249 783 l 210 869 q 474 1061 321 944 l 511 1061 m 383 331 q 435 332 410 331 l 426 504 l 399 504 l 333 331 l 383 331 z "},"ã":{"ha":797,"x_min":-29,"x_max":767,"o":"m 439 138 l 442 182 l 363 183 q 278 179 363 183 q 263 118 263 122 q 285 106 263 106 l 311 106 l 321 93 l 300 -4 q 124 -1 192 -1 l -29 -1 l -10 100 q 49 154 29 111 l 282 694 l 621 713 l 638 697 q 707 188 697 267 q 758 101 717 108 l 767 89 l 744 -3 q 581 -1 646 -1 l 357 -6 l 349 4 l 367 104 q 426 115 414 110 q 439 138 439 121 m 350 1000 q 453 976 375 1000 q 550 953 532 953 q 635 1014 581 953 l 653 1033 l 675 1033 l 747 958 l 744 936 l 615 776 l 592 771 q 488 794 567 771 q 392 818 410 818 q 349 798 375 818 q 289 738 324 778 l 267 738 l 194 813 l 197 835 l 326 994 l 350 1000 m 383 331 q 435 332 410 331 l 426 504 l 399 504 l 333 331 l 383 331 z "},"ä":{"ha":797,"x_min":-29,"x_max":767,"o":"m 439 138 l 442 182 l 363 183 q 278 179 363 183 q 263 118 263 122 q 285 106 263 106 l 311 106 l 321 93 l 300 -4 q 124 -1 192 -1 l -29 -1 l -10 100 q 49 154 29 111 l 282 694 l 621 713 l 638 697 q 707 188 697 267 q 758 101 717 108 l 767 89 l 744 -3 q 581 -1 646 -1 l 357 -6 l 349 4 l 367 104 q 426 115 414 110 q 439 138 439 121 m 582 765 q 483 858 483 765 q 520 959 483 921 q 611 997 557 997 q 715 903 715 997 q 678 803 715 842 q 582 765 642 765 m 321 765 q 224 858 224 765 q 260 959 224 921 q 350 997 297 997 q 454 903 454 997 q 417 803 454 842 q 321 765 381 765 m 383 331 q 435 332 410 331 l 426 504 l 399 504 l 333 331 l 383 331 z "},"å":{"ha":797,"x_min":-29,"x_max":767,"o":"m 439 138 l 442 182 l 363 183 q 278 179 363 183 q 263 118 263 122 q 285 106 263 106 l 311 106 l 321 93 l 300 -4 q 124 -1 192 -1 l -29 -1 l -10 100 q 49 154 29 111 l 282 694 l 621 713 l 638 697 q 707 188 697 267 q 758 101 717 108 l 767 89 l 744 -3 q 581 -1 646 -1 l 357 -6 l 349 4 l 367 104 q 426 115 414 110 q 439 138 439 121 m 622 912 q 622 882 622 912 q 574 799 622 851 q 459 747 526 747 q 360 781 392 747 q 329 878 329 814 q 377 991 329 943 q 494 1039 425 1039 q 592 1006 563 1039 q 622 912 622 972 m 383 331 q 435 332 410 331 l 426 504 l 399 504 l 333 331 l 383 331 m 472 844 q 508 856 492 844 q 525 897 525 868 q 478 939 525 939 q 426 888 426 939 q 472 844 426 844 z "},"æ":{"ha":1094,"x_min":-19,"x_max":1057,"o":"m 267 115 q 328 106 267 106 l 324 93 l 304 -4 q 72 -1 299 -1 l -19 -1 l -10 101 q 60 154 39 114 l 275 564 q 250 597 274 597 l 222 594 l 208 611 l 231 703 q 1033 713 865 694 l 1047 694 q 994 474 1014 575 l 821 463 q 829 517 829 496 q 810 548 829 539 q 747 557 790 557 q 703 533 703 557 l 713 410 l 786 424 l 904 454 l 924 433 l 894 297 l 782 282 l 717 269 l 718 208 q 765 136 719 136 q 841 158 819 136 q 882 249 863 179 l 1043 258 l 1057 240 q 996 11 1022 133 l 975 -7 q 558 0 721 0 l 361 -6 l 353 4 l 372 103 q 432 115 418 108 q 451 176 451 125 l 456 226 l 375 211 l 288 183 q 272 131 275 136 q 267 115 267 119 m 368 353 l 408 357 l 461 367 l 465 504 l 438 504 l 368 353 z "},"ç":{"ha":690,"x_min":22,"x_max":713,"o":"m 251 -175 q 307 -242 251 -242 q 350 -209 350 -242 q 243 -121 350 -176 l 283 -10 q 89 76 156 1 q 22 286 22 151 q 442 714 22 714 q 704 685 535 714 l 713 660 q 651 421 676 558 l 454 410 q 467 493 467 474 q 400 549 467 549 q 327 495 347 549 q 307 330 307 442 q 320 188 307 218 q 370 158 333 158 q 423 181 407 158 q 453 275 439 203 l 647 288 q 608 47 619 156 l 590 29 q 372 -10 496 -3 l 360 -51 q 452 -115 411 -78 q 493 -192 493 -151 q 427 -294 493 -251 q 269 -337 361 -337 q 192 -318 228 -337 q 156 -268 156 -299 q 240 -164 156 -237 l 251 -164 q 251 -175 251 -169 z "},"è":{"ha":697,"x_min":-24,"x_max":731,"o":"m 129 565 q 106 596 129 596 l 78 594 l 64 611 l 86 704 q 435 700 258 700 q 717 714 613 700 l 731 694 q 678 472 694 575 l 501 463 q 511 516 511 494 q 492 547 511 538 q 437 557 472 557 q 394 551 401 557 q 385 531 388 546 l 364 424 l 453 424 l 574 429 l 586 411 l 554 276 q 449 279 474 279 q 340 274 424 279 q 328 182 328 211 q 337 145 328 153 q 388 138 346 138 q 455 158 431 138 q 497 249 479 179 l 660 260 l 674 242 q 614 11 639 135 l 592 -7 q 296 0 415 0 q -24 -11 121 0 l 0 97 q 59 124 42 104 q 82 193 76 144 q 129 565 129 551 m 228 836 l 218 858 l 268 1008 l 290 1015 q 636 876 465 940 l 607 778 l 581 760 q 228 836 451 793 z "},"é":{"ha":697,"x_min":-24,"x_max":731,"o":"m 129 565 q 106 596 129 596 l 78 594 l 64 611 l 86 704 q 435 700 258 700 q 717 714 613 700 l 731 694 q 678 472 694 575 l 501 463 q 511 516 511 494 q 492 547 511 538 q 437 557 472 557 q 394 551 401 557 q 385 531 388 546 l 364 424 l 453 424 l 574 429 l 586 411 l 554 276 q 449 279 474 279 q 340 274 424 279 q 328 182 328 211 q 337 145 328 153 q 388 138 346 138 q 455 158 431 138 q 497 249 479 179 l 660 260 l 674 242 q 614 11 639 135 l 592 -7 q 296 0 415 0 q -24 -11 121 0 l 0 97 q 59 124 42 104 q 82 193 76 144 q 129 565 129 551 m 625 858 l 615 836 q 263 760 435 803 l 236 778 l 207 876 q 553 1015 350 929 l 575 1008 l 625 858 z "},"ê":{"ha":697,"x_min":-24,"x_max":731,"o":"m 129 565 q 106 596 129 596 l 78 594 l 64 611 l 86 704 q 435 700 258 700 q 717 714 613 700 l 731 694 q 678 472 694 575 l 501 463 q 511 516 511 494 q 492 547 511 538 q 437 557 472 557 q 394 551 401 557 q 385 531 388 546 l 364 424 l 453 424 l 574 429 l 586 411 l 554 276 q 449 279 474 279 q 340 274 424 279 q 328 182 328 211 q 337 145 328 153 q 388 138 346 138 q 455 158 431 138 q 497 249 479 179 l 660 260 l 674 242 q 614 11 639 135 l 592 -7 q 296 0 415 0 q -24 -11 121 0 l 0 97 q 59 124 42 104 q 82 193 76 144 q 129 565 129 551 m 489 1061 q 576 985 489 1065 q 706 869 664 906 l 646 783 l 613 774 q 443 844 551 801 q 257 774 374 819 l 226 783 l 188 869 q 451 1061 299 944 l 489 1061 z "},"ë":{"ha":697,"x_min":-24,"x_max":731,"o":"m 129 565 q 106 596 129 596 l 78 594 l 64 611 l 86 704 q 435 700 258 700 q 717 714 613 700 l 731 694 q 678 472 694 575 l 501 463 q 511 516 511 494 q 492 547 511 538 q 437 557 472 557 q 394 551 401 557 q 385 531 388 546 l 364 424 l 453 424 l 574 429 l 586 411 l 554 276 q 449 279 474 279 q 340 274 424 279 q 328 182 328 211 q 337 145 328 153 q 388 138 346 138 q 455 158 431 138 q 497 249 479 179 l 660 260 l 674 242 q 614 11 639 135 l 592 -7 q 296 0 415 0 q -24 -11 121 0 l 0 97 q 59 124 42 104 q 82 193 76 144 q 129 565 129 551 m 560 765 q 461 858 461 765 q 498 959 461 921 q 589 997 535 997 q 693 903 693 997 q 656 803 693 842 q 560 765 619 765 m 299 765 q 201 858 201 765 q 238 959 201 921 q 328 997 275 997 q 432 903 432 997 q 395 803 432 842 q 299 765 358 765 z "},"ì":{"ha":435,"x_min":-18,"x_max":483,"o":"m 385 543 q 348 322 371 471 q 325 147 325 174 q 331 111 325 119 q 353 103 338 103 l 386 106 l 393 93 l 371 -4 q 178 0 225 0 l -18 -4 l 1 96 q 63 122 47 106 q 82 183 78 139 q 129 567 129 554 q 124 588 129 579 q 94 596 118 596 l 69 596 q 60 613 65 601 l 79 700 l 268 700 l 474 704 l 453 599 q 403 583 415 593 q 385 543 392 574 m 75 836 l 65 858 l 115 1008 l 138 1015 q 483 876 313 940 l 454 778 l 428 760 q 75 836 299 793 z "},"í":{"ha":435,"x_min":-18,"x_max":485,"o":"m 385 543 q 348 322 371 471 q 325 147 325 174 q 331 111 325 119 q 353 103 338 103 l 386 106 l 393 93 l 371 -4 q 178 0 225 0 l -18 -4 l 1 96 q 63 122 47 106 q 82 183 78 139 q 129 567 129 554 q 124 588 129 579 q 94 596 118 596 l 69 596 q 60 613 65 601 l 79 700 l 268 700 l 474 704 l 453 599 q 403 583 415 593 q 385 543 392 574 m 485 858 l 475 836 q 122 760 294 803 l 96 778 l 67 876 q 413 1015 210 929 l 435 1008 l 485 858 z "},"î":{"ha":435,"x_min":-18,"x_max":543,"o":"m 385 543 q 348 322 371 471 q 325 147 325 174 q 331 111 325 119 q 353 103 338 103 l 386 106 l 393 93 l 371 -4 q 178 0 225 0 l -18 -4 l 1 96 q 63 122 47 106 q 82 183 78 139 q 129 567 129 554 q 124 588 129 579 q 94 596 118 596 l 69 596 q 60 613 65 601 l 79 700 l 268 700 l 474 704 l 453 599 q 403 583 415 593 q 385 543 392 574 m 326 1061 q 414 985 326 1065 q 543 869 501 906 l 483 783 l 450 774 q 281 844 389 801 q 94 774 211 819 l 64 783 l 25 869 q 289 1061 136 944 l 326 1061 z "},"ï":{"ha":435,"x_min":-18,"x_max":536,"o":"m 385 543 q 348 322 371 471 q 325 147 325 174 q 331 111 325 119 q 353 103 338 103 l 386 106 l 393 93 l 371 -4 q 178 0 225 0 l -18 -4 l 1 96 q 63 122 47 106 q 82 183 78 139 q 129 567 129 554 q 124 588 129 579 q 94 596 118 596 l 69 596 q 60 613 65 601 l 79 700 l 268 700 l 474 704 l 453 599 q 403 583 415 593 q 385 543 392 574 m 403 765 q 304 858 304 765 q 341 959 304 921 q 432 997 378 997 q 536 903 536 997 q 499 803 536 842 q 403 765 463 765 m 142 765 q 44 858 44 765 q 81 959 44 921 q 172 997 118 997 q 275 903 275 997 q 238 803 275 842 q 142 765 201 765 z "},"ð":{"ha":803,"x_min":7,"x_max":797,"o":"m 156 560 q 135 594 156 594 l 100 592 l 89 608 l 111 704 q 290 700 244 700 l 469 707 q 797 435 797 707 q 676 108 797 229 q 353 -12 556 -12 q 175 0 247 0 l 7 -8 l 31 101 q 88 126 71 108 q 111 190 104 144 l 122 281 l 26 281 l 17 289 l 44 396 l 136 396 q 156 560 156 544 m 429 554 q 406 525 411 554 q 403 512 404 521 q 400 495 401 503 q 397 480 399 488 q 394 461 396 472 q 390 441 392 450 q 387 419 389 432 q 383 397 385 407 l 450 400 l 458 389 l 438 281 l 367 281 q 350 164 350 168 q 367 136 350 136 q 511 429 511 136 q 494 528 511 503 q 429 554 478 554 z "},"ñ":{"ha":851,"x_min":-14,"x_max":897,"o":"m 556 597 l 522 597 l 517 610 l 533 704 q 782 700 667 700 q 897 703 897 700 l 879 597 q 829 577 844 592 q 808 529 814 563 l 729 6 l 483 -7 l 329 301 l 310 301 q 294 138 294 151 q 301 113 294 124 q 335 101 308 101 l 369 106 l 379 96 l 356 -4 q 174 0 221 0 l -14 -8 l 11 97 q 61 117 44 101 q 83 165 78 133 q 142 551 142 535 q 131 576 142 567 q 68 593 119 586 l 54 610 l 72 706 q 250 700 158 700 l 407 704 q 553 396 471 551 l 571 396 l 586 550 q 583 588 589 578 q 556 597 576 597 m 383 1000 q 487 976 408 1000 q 583 953 565 953 q 668 1014 614 953 l 686 1033 l 708 1033 l 781 958 l 778 936 l 649 776 l 625 771 q 522 794 600 771 q 426 818 443 818 q 383 798 408 818 q 322 738 357 778 l 300 738 l 228 813 l 231 835 l 360 994 l 383 1000 z "},"ò":{"ha":744,"x_min":22,"x_max":738,"o":"m 363 138 q 432 201 413 138 q 451 380 451 265 q 438 522 451 494 q 393 550 425 550 q 326 486 346 550 q 307 308 307 422 q 319 165 307 193 q 363 138 332 138 m 333 -12 q 103 63 185 -12 q 22 283 22 138 q 426 714 22 714 q 738 426 738 714 q 635 101 738 214 q 333 -12 532 -12 m 242 836 l 232 858 l 282 1008 l 304 1015 q 650 876 479 940 l 621 778 l 594 760 q 242 836 465 793 z "},"ó":{"ha":744,"x_min":22,"x_max":738,"o":"m 363 138 q 432 201 413 138 q 451 380 451 265 q 438 522 451 494 q 393 550 425 550 q 326 486 346 550 q 307 308 307 422 q 319 165 307 193 q 363 138 332 138 m 333 -12 q 103 63 185 -12 q 22 283 22 138 q 426 714 22 714 q 738 426 738 714 q 635 101 738 214 q 333 -12 532 -12 m 635 858 l 625 836 q 272 760 444 803 l 246 778 l 217 876 q 563 1015 360 929 l 585 1008 l 635 858 z "},"ô":{"ha":744,"x_min":22,"x_max":738,"o":"m 363 138 q 432 201 413 138 q 451 380 451 265 q 438 522 451 494 q 393 550 425 550 q 326 486 346 550 q 307 308 307 422 q 319 165 307 193 q 363 138 332 138 m 333 -12 q 103 63 185 -12 q 22 283 22 138 q 426 714 22 714 q 738 426 738 714 q 635 101 738 214 q 333 -12 532 -12 m 483 1061 q 571 985 483 1065 q 700 869 658 906 l 640 783 l 607 774 q 438 844 546 801 q 251 774 368 819 l 221 783 l 182 869 q 446 1061 293 944 l 483 1061 z "},"õ":{"ha":744,"x_min":22,"x_max":738,"o":"m 363 138 q 432 201 413 138 q 451 380 451 265 q 438 522 451 494 q 393 550 425 550 q 326 486 346 550 q 307 308 307 422 q 319 165 307 193 q 363 138 332 138 m 333 -12 q 103 63 185 -12 q 22 283 22 138 q 426 714 22 714 q 738 426 738 714 q 635 101 738 214 q 333 -12 532 -12 m 321 1000 q 424 976 346 1000 q 519 953 503 953 q 606 1014 551 953 l 624 1033 l 646 1033 l 718 958 l 715 936 l 586 776 l 563 771 q 459 794 538 771 q 363 818 381 818 q 320 798 346 818 q 260 738 294 778 l 238 738 l 165 813 l 168 835 l 297 994 l 321 1000 z "},"ö":{"ha":744,"x_min":22,"x_max":738,"o":"m 363 138 q 432 201 413 138 q 451 380 451 265 q 438 522 451 494 q 393 550 425 550 q 326 486 346 550 q 307 308 307 422 q 319 165 307 193 q 363 138 332 138 m 333 -12 q 103 63 185 -12 q 22 283 22 138 q 426 714 22 714 q 738 426 738 714 q 635 101 738 214 q 333 -12 532 -12 m 554 765 q 456 858 456 765 q 492 959 456 921 q 583 997 529 997 q 688 903 688 997 q 651 803 688 842 q 554 765 614 765 m 293 765 q 196 858 196 765 q 233 959 196 921 q 322 997 269 997 q 426 903 426 997 q 390 803 426 842 q 293 765 353 765 z "},"÷":{"ha":682,"x_min":13,"x_max":674,"o":"m 667 457 l 674 436 l 632 247 l 22 244 l 13 263 l 60 450 q 367 449 247 449 l 667 457 m 422 118 q 385 15 422 53 q 294 -24 349 -24 q 190 72 190 -24 q 227 176 190 138 q 318 214 264 214 q 422 118 422 214 m 485 619 q 447 517 485 556 q 356 478 410 478 q 251 574 251 478 q 288 677 251 639 q 381 715 325 715 q 485 619 485 715 z "},"ø":{"ha":744,"x_min":-6,"x_max":776,"o":"m 22 283 q 426 714 22 714 q 544 700 494 714 l 642 832 l 775 756 l 776 740 l 683 614 q 738 426 738 544 q 635 101 738 214 q 333 -12 532 -12 q 229 -1 281 -12 l 129 -135 l -1 -56 l -6 -44 l 88 78 q 22 283 22 151 m 363 138 q 432 201 413 138 q 451 380 451 265 q 438 522 451 494 q 393 550 425 550 q 326 486 346 550 q 307 308 307 422 q 319 165 307 193 q 363 138 332 138 z "},"ù":{"ha":710,"x_min":40,"x_max":758,"o":"m 472 568 q 450 596 472 596 l 429 594 l 425 599 l 451 704 q 586 700 546 700 l 758 703 l 736 596 q 693 576 703 585 q 681 551 683 568 l 644 258 q 547 53 625 119 q 326 -12 468 -12 q 119 32 185 -12 q 51 169 53 76 q 74 367 51 179 q 97 568 97 556 q 94 588 97 581 q 74 596 92 596 l 42 594 l 40 599 l 64 704 q 275 700 179 700 l 432 703 l 407 594 q 350 543 354 589 q 303 206 303 213 q 360 138 303 138 q 409 155 393 138 q 431 217 425 172 q 472 568 472 563 m 231 836 l 221 858 l 271 1008 l 293 1015 q 639 876 468 940 l 610 778 l 583 760 q 231 836 454 793 z "},"ú":{"ha":710,"x_min":40,"x_max":758,"o":"m 472 568 q 450 596 472 596 l 429 594 l 425 599 l 451 704 q 586 700 546 700 l 758 703 l 736 596 q 693 576 703 585 q 681 551 683 568 l 644 258 q 547 53 625 119 q 326 -12 468 -12 q 119 32 185 -12 q 51 169 53 76 q 74 367 51 179 q 97 568 97 556 q 94 588 97 581 q 74 596 92 596 l 42 594 l 40 599 l 64 704 q 275 700 179 700 l 432 703 l 407 594 q 350 543 354 589 q 303 206 303 213 q 360 138 303 138 q 409 155 393 138 q 431 217 425 172 q 472 568 472 563 m 622 858 l 613 836 q 260 760 432 803 l 233 778 l 204 876 q 550 1015 347 929 l 572 1008 l 622 858 z "},"û":{"ha":710,"x_min":40,"x_max":758,"o":"m 472 568 q 450 596 472 596 l 429 594 l 425 599 l 451 704 q 586 700 546 700 l 758 703 l 736 596 q 693 576 703 585 q 681 551 683 568 l 644 258 q 547 53 625 119 q 326 -12 468 -12 q 119 32 185 -12 q 51 169 53 76 q 74 367 51 179 q 97 568 97 556 q 94 588 97 581 q 74 596 92 596 l 42 594 l 40 599 l 64 704 q 275 700 179 700 l 432 703 l 407 594 q 350 543 354 589 q 303 206 303 213 q 360 138 303 138 q 409 155 393 138 q 431 217 425 172 q 472 568 472 563 m 492 1061 q 579 985 492 1065 q 708 869 667 906 l 649 783 l 615 774 q 446 844 554 801 q 260 774 376 819 l 229 783 l 190 869 q 454 1061 301 944 l 492 1061 z "},"ü":{"ha":710,"x_min":40,"x_max":758,"o":"m 472 568 q 450 596 472 596 l 429 594 l 425 599 l 451 704 q 586 700 546 700 l 758 703 l 736 596 q 693 576 703 585 q 681 551 683 568 l 644 258 q 547 53 625 119 q 326 -12 468 -12 q 119 32 185 -12 q 51 169 53 76 q 74 367 51 179 q 97 568 97 556 q 94 588 97 581 q 74 596 92 596 l 42 594 l 40 599 l 64 704 q 275 700 179 700 l 432 703 l 407 594 q 350 543 354 589 q 303 206 303 213 q 360 138 303 138 q 409 155 393 138 q 431 217 425 172 q 472 568 472 563 m 563 765 q 464 858 464 765 q 501 959 464 921 q 592 997 538 997 q 696 903 696 997 q 659 803 696 842 q 563 765 622 765 m 301 765 q 204 858 204 765 q 241 959 204 921 q 331 997 278 997 q 435 903 435 997 q 398 803 435 842 q 301 765 361 765 z "},"ý":{"ha":789,"x_min":50,"x_max":822,"o":"m 501 697 l 688 699 l 819 703 l 822 694 l 801 590 q 665 456 715 538 l 540 258 q 513 169 513 206 q 522 120 513 133 q 563 107 532 107 l 621 111 l 626 104 l 603 -7 q 356 0 424 0 l 111 -10 l 133 99 q 233 118 207 103 q 265 190 258 133 q 267 217 267 197 q 246 283 267 238 l 149 501 q 56 586 131 540 l 50 592 l 75 701 q 251 699 217 699 l 461 706 l 469 693 l 447 596 q 443 596 446 596 q 406 569 406 596 q 438 433 406 542 l 456 433 l 499 536 q 519 586 519 574 q 483 597 519 599 l 481 604 l 501 697 m 672 858 l 663 836 q 310 760 482 803 l 283 778 l 254 876 q 600 1015 397 929 l 622 1008 l 672 858 z "},"þ":{"ha":710,"x_min":-18,"x_max":714,"o":"m 461 567 q 714 386 714 567 q 628 213 714 278 q 404 149 542 149 l 325 149 q 326 106 321 111 q 353 101 332 101 l 399 106 l 407 93 l 385 -4 q 178 0 228 0 l -18 -4 l 3 94 q 63 121 47 104 q 82 183 78 138 q 129 567 129 554 q 124 588 129 579 q 94 597 118 597 l 69 596 l 60 613 l 79 700 l 268 700 l 472 704 l 451 599 q 399 585 410 590 q 386 567 389 581 l 461 567 m 458 371 q 383 431 458 431 q 360 404 361 431 l 343 285 q 406 275 394 275 q 458 371 458 293 z "},"ÿ":{"ha":789,"x_min":50,"x_max":822,"o":"m 501 697 l 688 699 l 819 703 l 822 694 l 801 590 q 665 456 715 538 l 540 258 q 513 169 513 206 q 522 120 513 133 q 563 107 532 107 l 621 111 l 626 104 l 603 -7 q 356 0 424 0 l 111 -10 l 133 99 q 233 118 207 103 q 265 190 258 133 q 267 217 267 197 q 246 283 267 238 l 149 501 q 56 586 131 540 l 50 592 l 75 701 q 251 699 217 699 l 461 706 l 469 693 l 447 596 q 443 596 446 596 q 406 569 406 596 q 438 433 406 542 l 456 433 l 499 536 q 519 586 519 574 q 483 597 519 599 l 481 604 l 501 697 m 600 765 q 501 858 501 765 q 538 959 501 921 q 629 997 575 997 q 733 903 733 997 q 697 803 733 842 q 600 765 660 765 m 339 765 q 242 858 242 765 q 278 959 242 921 q 369 997 315 997 q 472 903 472 997 q 435 803 472 842 q 339 765 399 765 z "},"Ā":{"ha":918,"x_min":-46,"x_max":897,"o":"m 524 168 l 524 247 q 422 250 433 250 l 315 243 q 289 144 289 154 q 321 124 289 124 l 358 124 l 368 110 l 343 -6 q 135 -1 217 -1 l -46 -3 l -22 118 q 54 194 28 131 l 347 892 l 718 914 l 738 897 q 824 213 804 363 q 844 144 829 165 q 889 119 860 124 l 897 106 l 872 -4 q 681 -1 756 -1 l 419 -8 l 410 4 l 432 121 q 507 136 490 128 q 524 168 524 144 m 447 418 q 515 421 457 418 l 501 664 l 471 664 l 381 418 l 447 418 m 765 1143 l 778 1118 l 733 967 l 365 964 l 346 985 l 390 1136 q 597 1135 518 1135 l 765 1143 z "},"ā":{"ha":797,"x_min":-29,"x_max":767,"o":"m 439 138 l 442 182 l 363 183 q 278 179 363 183 q 263 118 263 122 q 285 106 263 106 l 311 106 l 321 93 l 300 -4 q 124 -1 192 -1 l -29 -1 l -10 100 q 49 154 29 111 l 282 694 l 621 713 l 638 697 q 707 188 697 267 q 758 101 717 108 l 767 89 l 744 -3 q 581 -1 646 -1 l 357 -6 l 349 4 l 367 104 q 426 115 414 110 q 439 138 439 121 m 676 943 l 689 918 l 644 767 l 276 764 l 257 785 l 301 936 q 508 935 429 935 l 676 943 m 383 331 q 435 332 410 331 l 426 504 l 399 504 l 333 331 l 383 331 z "},"Ă":{"ha":918,"x_min":-46,"x_max":897,"o":"m 524 168 l 524 247 q 422 250 433 250 l 315 243 q 289 144 289 154 q 321 124 289 124 l 358 124 l 368 110 l 343 -6 q 135 -1 217 -1 l -46 -3 l -22 118 q 54 194 28 131 l 347 892 l 718 914 l 738 897 q 824 213 804 363 q 844 144 829 165 q 889 119 860 124 l 897 106 l 872 -4 q 681 -1 756 -1 l 419 -8 l 410 4 l 432 121 q 507 136 490 128 q 524 168 524 144 m 563 1153 q 726 1250 672 1153 l 763 1240 l 807 1154 q 705 1019 772 1074 q 540 965 638 965 q 388 1019 443 965 q 319 1154 333 1074 l 386 1240 l 425 1250 q 475 1178 438 1203 q 563 1153 513 1153 m 447 418 q 515 421 457 418 l 501 664 l 471 664 l 381 418 l 447 418 z "},"ă":{"ha":797,"x_min":-29,"x_max":767,"o":"m 439 138 l 442 182 l 363 183 q 278 179 363 183 q 263 118 263 122 q 285 106 263 106 l 311 106 l 321 93 l 300 -4 q 124 -1 192 -1 l -29 -1 l -10 100 q 49 154 29 111 l 282 694 l 621 713 l 638 697 q 707 188 697 267 q 758 101 717 108 l 767 89 l 744 -3 q 581 -1 646 -1 l 357 -6 l 349 4 l 367 104 q 426 115 414 110 q 439 138 439 121 m 472 939 q 636 1036 582 939 l 672 1026 l 717 940 q 615 806 682 860 q 450 751 547 751 q 298 806 353 751 q 229 940 243 860 l 296 1026 l 335 1036 q 385 964 347 989 q 472 939 422 939 m 383 331 q 435 332 410 331 l 426 504 l 399 504 l 333 331 l 383 331 z "},"Ą":{"ha":918,"x_min":-46,"x_max":897,"o":"m 724 -336 q 603 -306 646 -336 q 560 -227 560 -276 q 589 -130 560 -178 q 703 -1 618 -82 l 681 -1 l 419 -8 l 410 4 l 432 121 q 507 136 490 128 q 524 168 524 144 l 524 247 q 422 250 433 250 l 315 243 q 289 144 289 154 q 321 124 289 124 l 358 124 l 368 110 l 343 -6 q 135 -1 217 -1 l -46 -3 l -22 118 q 54 194 28 131 l 347 892 l 718 914 l 738 897 q 824 213 804 363 q 844 144 829 165 q 889 119 860 124 l 897 106 l 872 -4 q 810 -3 843 -3 q 729 -109 749 -76 q 710 -165 710 -142 q 722 -202 710 -189 q 753 -215 735 -215 q 847 -181 786 -215 l 876 -236 q 724 -336 790 -311 m 447 418 q 515 421 457 418 l 501 664 l 471 664 l 381 418 l 447 418 z "},"ą":{"ha":797,"x_min":-29,"x_max":771,"o":"m 439 138 l 442 182 l 363 183 q 278 179 363 183 q 263 118 263 122 q 285 106 263 106 l 311 106 l 321 93 l 300 -4 q 124 -1 192 -1 l -29 -1 l -10 100 q 49 154 29 111 l 282 694 l 621 713 l 638 697 q 707 188 697 267 q 758 101 717 108 l 767 89 l 744 -3 q 706 -1 726 -1 q 624 -108 643 -75 q 604 -165 604 -142 q 617 -202 604 -189 q 647 -215 629 -215 q 742 -181 681 -215 l 771 -236 q 618 -336 685 -311 q 497 -306 540 -336 q 454 -227 454 -276 q 483 -130 454 -178 q 597 -1 513 -82 l 581 -1 l 357 -6 l 349 4 l 367 104 q 426 115 414 110 q 439 138 439 121 m 383 331 q 435 332 410 331 l 426 504 l 399 504 l 333 331 l 383 331 z "},"Ć":{"ha":811,"x_min":25,"x_max":853,"o":"m 701 38 q 388 -15 563 -15 q 119 82 214 -15 q 25 360 25 179 q 156 774 25 632 q 536 915 286 915 q 844 879 639 915 l 853 851 q 778 554 808 724 l 561 542 q 576 646 576 621 q 485 724 576 724 q 376 643 408 724 q 344 372 344 563 q 366 224 344 268 q 439 181 388 181 q 515 213 490 181 q 558 342 539 246 l 774 356 q 722 60 738 193 l 701 38 m 715 1058 l 706 1036 q 353 960 525 1003 l 326 978 l 297 1076 q 643 1215 440 1129 l 665 1208 l 715 1058 z "},"ć":{"ha":690,"x_min":22,"x_max":713,"o":"m 590 29 q 325 -11 472 -11 q 100 65 178 -11 q 22 286 22 142 q 442 714 22 714 q 704 685 535 714 l 713 660 q 651 421 676 558 l 454 410 q 467 493 467 474 q 400 549 467 549 q 327 495 347 549 q 307 330 307 442 q 320 188 307 218 q 370 158 333 158 q 423 181 407 158 q 453 275 439 203 l 647 288 q 608 47 619 156 l 590 29 m 614 858 l 604 836 q 251 760 424 803 l 225 778 l 196 876 q 542 1015 339 929 l 564 1008 l 614 858 z "},"Ĉ":{"ha":811,"x_min":25,"x_max":853,"o":"m 701 38 q 388 -15 563 -15 q 119 82 214 -15 q 25 360 25 179 q 156 774 25 632 q 536 915 286 915 q 844 879 639 915 l 853 851 q 778 554 808 724 l 561 542 q 576 646 576 621 q 485 724 576 724 q 376 643 408 724 q 344 372 344 563 q 366 224 344 268 q 439 181 388 181 q 515 213 490 181 q 558 342 539 246 l 774 356 q 722 60 738 193 l 701 38 m 335 994 l 282 1081 q 535 1297 388 1167 l 572 1297 q 772 1081 678 1176 l 699 994 l 665 985 q 526 1081 628 1014 q 367 985 426 1025 l 335 994 z "},"ĉ":{"ha":690,"x_min":22,"x_max":713,"o":"m 590 29 q 325 -11 472 -11 q 100 65 178 -11 q 22 286 22 142 q 442 714 22 714 q 704 685 535 714 l 713 660 q 651 421 676 558 l 454 410 q 467 493 467 474 q 400 549 467 549 q 327 495 347 549 q 307 330 307 442 q 320 188 307 218 q 370 158 333 158 q 423 181 407 158 q 453 275 439 203 l 647 288 q 608 47 619 156 l 590 29 m 242 794 l 189 881 q 442 1097 294 967 l 479 1097 q 679 881 585 976 l 606 794 l 572 785 q 433 881 535 814 q 274 785 333 825 l 242 794 z "},"Ċ":{"ha":811,"x_min":25,"x_max":853,"o":"m 701 38 q 388 -15 563 -15 q 119 82 214 -15 q 25 360 25 179 q 156 774 25 632 q 536 915 286 915 q 844 879 639 915 l 853 851 q 778 554 808 724 l 561 542 q 576 646 576 621 q 485 724 576 724 q 376 643 408 724 q 344 372 344 563 q 366 224 344 268 q 439 181 388 181 q 515 213 490 181 q 558 342 539 246 l 774 356 q 722 60 738 193 l 701 38 m 689 1113 q 645 994 689 1039 q 539 949 601 949 q 415 1060 415 949 q 459 1180 415 1135 q 567 1225 503 1225 q 689 1113 689 1225 z "},"ċ":{"ha":690,"x_min":22,"x_max":713,"o":"m 590 29 q 325 -11 472 -11 q 100 65 178 -11 q 22 286 22 142 q 442 714 22 714 q 704 685 535 714 l 713 660 q 651 421 676 558 l 454 410 q 467 493 467 474 q 400 549 467 549 q 327 495 347 549 q 307 330 307 442 q 320 188 307 218 q 370 158 333 158 q 423 181 407 158 q 453 275 439 203 l 647 288 q 608 47 619 156 l 590 29 m 592 913 q 548 794 592 839 q 442 749 504 749 q 318 860 318 749 q 362 980 318 935 q 469 1025 406 1025 q 592 913 592 1025 z "},"Č":{"ha":811,"x_min":25,"x_max":853,"o":"m 701 38 q 388 -15 563 -15 q 119 82 214 -15 q 25 360 25 179 q 156 774 25 632 q 536 915 286 915 q 844 879 639 915 l 853 851 q 778 554 808 724 l 561 542 q 576 646 576 621 q 485 724 576 724 q 376 643 408 724 q 344 372 344 563 q 366 224 344 268 q 439 181 388 181 q 515 213 490 181 q 558 342 539 246 l 774 356 q 722 60 738 193 l 701 38 m 761 1233 l 801 1147 q 536 956 678 1064 l 499 956 q 283 1147 386 1063 l 342 1233 l 375 1243 q 544 1172 407 1228 q 731 1243 614 1197 l 761 1233 z "},"č":{"ha":690,"x_min":22,"x_max":713,"o":"m 590 29 q 325 -11 472 -11 q 100 65 178 -11 q 22 286 22 142 q 442 714 22 714 q 704 685 535 714 l 713 660 q 651 421 676 558 l 454 410 q 467 493 467 474 q 400 549 467 549 q 327 495 347 549 q 307 330 307 442 q 320 188 307 218 q 370 158 333 158 q 423 181 407 158 q 453 275 439 203 l 647 288 q 608 47 619 156 l 590 29 m 664 1033 l 704 947 q 439 756 581 864 l 401 756 q 186 947 289 863 l 244 1033 l 278 1043 q 447 972 310 1028 q 633 1043 517 997 l 664 1033 z "},"Ď":{"ha":917,"x_min":-22,"x_max":924,"o":"m 165 738 q 139 774 165 774 l 96 771 l 85 790 l 111 903 q 318 899 263 899 l 531 907 q 822 818 721 907 q 924 558 924 729 q 776 141 924 299 q 388 -17 629 -17 q 175 0 260 0 l -22 -11 l 6 118 q 76 150 56 126 q 106 233 96 174 q 165 738 165 722 m 476 731 q 456 723 463 731 q 443 687 449 715 q 404 435 438 658 q 371 194 371 213 q 407 157 371 157 q 604 553 604 157 q 576 691 604 651 q 476 731 547 731 m 764 1233 l 804 1147 q 539 956 681 1064 l 501 956 q 286 1147 389 1063 l 344 1233 l 378 1243 q 547 1172 410 1228 q 733 1243 617 1197 l 764 1233 z "},"ď":{"ha":778,"x_min":-18,"x_max":772,"o":"m 131 560 q 110 594 131 594 l 75 592 l 64 608 l 86 704 q 265 700 219 700 l 444 707 q 772 435 772 707 q 651 108 772 229 q 328 -12 531 -12 q 150 0 222 0 l -18 -8 l 6 101 q 63 126 46 108 q 86 190 79 144 q 131 560 131 544 m 404 554 q 381 525 386 554 q 351 350 378 533 q 325 164 325 167 q 342 136 325 136 q 486 429 486 136 q 469 528 486 503 q 404 554 453 554 m 671 1033 l 711 947 q 446 756 588 864 l 408 756 q 193 947 296 863 l 251 1033 l 285 1043 q 454 972 317 1028 q 640 1043 524 997 l 671 1033 z "},"Đ":{"ha":944,"x_min":6,"x_max":951,"o":"m 193 738 q 167 774 193 774 l 124 771 l 113 790 l 139 903 q 346 899 290 899 l 558 907 q 850 818 749 907 q 951 558 951 729 q 804 141 951 299 q 415 -17 657 -17 q 203 0 288 0 l 6 -11 l 33 118 q 103 150 83 126 q 133 233 124 174 l 150 369 l 28 369 l 15 381 l 49 504 l 167 504 q 193 738 193 724 m 504 731 q 483 723 490 731 q 472 693 476 715 q 442 506 468 671 l 539 510 l 549 496 l 524 371 l 422 371 q 399 197 399 218 q 435 157 399 157 q 632 553 632 157 q 603 691 632 651 q 504 731 575 731 z "},"đ":{"ha":803,"x_min":7,"x_max":797,"o":"m 156 560 q 135 594 156 594 l 100 592 l 89 608 l 111 704 q 290 700 244 700 l 469 707 q 797 435 797 707 q 676 108 797 229 q 353 -12 556 -12 q 175 0 247 0 l 7 -8 l 31 101 q 88 126 71 108 q 111 190 104 144 l 122 281 l 26 281 l 17 289 l 44 396 l 136 396 q 156 560 156 544 m 429 554 q 406 525 411 554 q 403 512 404 521 q 400 495 401 503 q 397 480 399 488 q 394 461 396 472 q 390 441 392 450 q 387 419 389 432 q 383 397 385 407 l 450 400 l 458 389 l 438 281 l 367 281 q 350 164 350 168 q 367 136 350 136 q 511 429 511 136 q 494 528 511 503 q 429 554 478 554 z "},"Ē":{"ha":814,"x_min":-28,"x_max":865,"o":"m 421 538 l 531 536 l 679 544 l 693 525 l 654 365 q 512 369 556 369 q 393 361 468 369 q 374 204 374 229 q 385 169 374 179 q 429 160 397 160 q 544 187 513 160 q 599 307 575 214 l 778 319 l 793 299 q 719 13 751 164 l 696 -10 q 339 0 476 0 q -28 -14 139 0 l 0 114 q 73 148 51 122 q 101 236 94 174 q 164 738 164 724 q 160 765 164 753 q 133 776 156 776 l 99 774 l 85 793 l 111 903 q 513 899 306 899 q 850 915 719 899 l 865 893 q 800 617 822 747 l 606 604 q 617 678 617 649 q 592 720 617 708 q 519 732 567 732 q 462 725 471 732 q 449 694 453 718 l 421 538 m 744 1143 l 757 1118 l 713 967 l 344 964 l 325 985 l 369 1136 q 576 1135 497 1135 l 744 1143 z "},"ē":{"ha":697,"x_min":-24,"x_max":731,"o":"m 129 565 q 106 596 129 596 l 78 594 l 64 611 l 86 704 q 435 700 258 700 q 717 714 613 700 l 731 694 q 678 472 694 575 l 501 463 q 511 516 511 494 q 492 547 511 538 q 437 557 472 557 q 394 551 401 557 q 385 531 388 546 l 364 424 l 453 424 l 574 429 l 586 411 l 554 276 q 449 279 474 279 q 340 274 424 279 q 328 182 328 211 q 337 145 328 153 q 388 138 346 138 q 455 158 431 138 q 497 249 479 179 l 660 260 l 674 242 q 614 11 639 135 l 592 -7 q 296 0 415 0 q -24 -11 121 0 l 0 97 q 59 124 42 104 q 82 193 76 144 q 129 565 129 551 m 656 943 l 668 918 l 624 767 l 256 764 l 236 785 l 281 936 q 488 935 408 935 l 656 943 z "},"Ĕ":{"ha":814,"x_min":-28,"x_max":865,"o":"m 421 538 l 531 536 l 679 544 l 693 525 l 654 365 q 512 369 556 369 q 393 361 468 369 q 374 204 374 229 q 385 169 374 179 q 429 160 397 160 q 544 187 513 160 q 599 307 575 214 l 778 319 l 793 299 q 719 13 751 164 l 696 -10 q 339 0 476 0 q -28 -14 139 0 l 0 114 q 73 148 51 122 q 101 236 94 174 q 164 738 164 724 q 160 765 164 753 q 133 776 156 776 l 99 774 l 85 793 l 111 903 q 513 899 306 899 q 850 915 719 899 l 865 893 q 800 617 822 747 l 606 604 q 617 678 617 649 q 592 720 617 708 q 519 732 567 732 q 462 725 471 732 q 449 694 453 718 l 421 538 m 381 1243 q 520 1146 410 1146 q 682 1243 631 1146 l 719 1233 l 764 1147 q 662 1013 729 1067 q 497 958 594 958 q 345 1013 400 958 q 276 1147 290 1067 l 342 1233 l 381 1243 z "},"ĕ":{"ha":697,"x_min":-24,"x_max":731,"o":"m 129 565 q 106 596 129 596 l 78 594 l 64 611 l 86 704 q 435 700 258 700 q 717 714 613 700 l 731 694 q 678 472 694 575 l 501 463 q 511 516 511 494 q 492 547 511 538 q 437 557 472 557 q 394 551 401 557 q 385 531 388 546 l 364 424 l 453 424 l 574 429 l 586 411 l 554 276 q 449 279 474 279 q 340 274 424 279 q 328 182 328 211 q 337 145 328 153 q 388 138 346 138 q 455 158 431 138 q 497 249 479 179 l 660 260 l 674 242 q 614 11 639 135 l 592 -7 q 296 0 415 0 q -24 -11 121 0 l 0 97 q 59 124 42 104 q 82 193 76 144 q 129 565 129 551 m 444 939 q 608 1036 554 939 l 644 1026 l 689 940 q 587 806 654 860 q 422 751 519 751 q 270 806 325 751 q 201 940 215 860 l 268 1026 l 307 1036 q 357 964 319 989 q 444 939 394 939 z "},"Ė":{"ha":814,"x_min":-28,"x_max":865,"o":"m 421 538 l 531 536 l 679 544 l 693 525 l 654 365 q 512 369 556 369 q 393 361 468 369 q 374 204 374 229 q 385 169 374 179 q 429 160 397 160 q 544 187 513 160 q 599 307 575 214 l 778 319 l 793 299 q 719 13 751 164 l 696 -10 q 339 0 476 0 q -28 -14 139 0 l 0 114 q 73 148 51 122 q 101 236 94 174 q 164 738 164 724 q 160 765 164 753 q 133 776 156 776 l 99 774 l 85 793 l 111 903 q 513 899 306 899 q 850 915 719 899 l 865 893 q 800 617 822 747 l 606 604 q 617 678 617 649 q 592 720 617 708 q 519 732 567 732 q 462 725 471 732 q 449 694 453 718 l 421 538 m 676 1113 q 633 994 676 1039 q 525 949 589 949 q 403 1060 403 949 q 447 1180 403 1135 q 553 1225 490 1225 q 676 1113 676 1225 z "},"ė":{"ha":697,"x_min":-24,"x_max":731,"o":"m 129 565 q 106 596 129 596 l 78 594 l 64 611 l 86 704 q 435 700 258 700 q 717 714 613 700 l 731 694 q 678 472 694 575 l 501 463 q 511 516 511 494 q 492 547 511 538 q 437 557 472 557 q 394 551 401 557 q 385 531 388 546 l 364 424 l 453 424 l 574 429 l 586 411 l 554 276 q 449 279 474 279 q 340 274 424 279 q 328 182 328 211 q 337 145 328 153 q 388 138 346 138 q 455 158 431 138 q 497 249 479 179 l 660 260 l 674 242 q 614 11 639 135 l 592 -7 q 296 0 415 0 q -24 -11 121 0 l 0 97 q 59 124 42 104 q 82 193 76 144 q 129 565 129 551 m 588 913 q 544 794 588 839 q 436 749 500 749 q 314 860 314 749 q 358 980 314 935 q 464 1025 401 1025 q 588 913 588 1025 z "},"Ę":{"ha":814,"x_min":-28,"x_max":865,"o":"m 421 538 l 531 536 l 679 544 l 693 525 l 654 365 q 512 369 556 369 q 393 361 468 369 q 374 204 374 229 q 385 169 374 179 q 429 160 397 160 q 544 187 513 160 q 599 307 575 214 l 778 319 l 793 299 q 719 13 751 164 l 696 -10 q 653 -7 679 -8 q 575 -110 593 -78 q 557 -165 557 -142 q 569 -202 557 -189 q 600 -215 582 -215 q 694 -181 633 -215 l 724 -236 q 571 -336 638 -311 q 450 -306 493 -336 q 407 -227 407 -276 q 435 -131 407 -178 q 547 -4 464 -85 q 314 0 428 0 q -28 -14 139 0 l 0 114 q 73 148 51 122 q 101 236 94 174 q 164 738 164 724 q 160 765 164 753 q 133 776 156 776 l 99 774 l 85 793 l 111 903 q 513 899 306 899 q 850 915 719 899 l 865 893 q 800 617 822 747 l 606 604 q 617 678 617 649 q 592 720 617 708 q 519 732 567 732 q 462 725 471 732 q 449 694 453 718 l 421 538 z "},"ę":{"ha":697,"x_min":-24,"x_max":731,"o":"m 129 565 q 106 596 129 596 l 78 594 l 64 611 l 86 704 q 435 700 258 700 q 717 714 613 700 l 731 694 q 678 472 694 575 l 501 463 q 511 516 511 494 q 492 547 511 538 q 437 557 472 557 q 394 551 401 557 q 385 531 388 546 l 364 424 l 453 424 l 574 429 l 586 411 l 554 276 q 449 279 474 279 q 340 274 424 279 q 328 182 328 211 q 337 145 328 153 q 388 138 346 138 q 455 158 431 138 q 497 249 479 179 l 660 260 l 674 242 q 614 11 639 135 l 592 -7 q 568 -6 581 -6 q 490 -110 508 -78 q 471 -165 471 -142 q 483 -202 471 -189 q 514 -215 496 -215 q 608 -181 547 -215 l 638 -236 q 485 -336 551 -311 q 364 -306 407 -336 q 321 -227 321 -276 q 350 -130 321 -178 q 463 -3 379 -82 q 254 0 332 0 q -24 -11 121 0 l 0 97 q 59 124 42 104 q 82 193 76 144 q 129 565 129 551 z "},"Ě":{"ha":814,"x_min":-28,"x_max":865,"o":"m 421 538 l 531 536 l 679 544 l 693 525 l 654 365 q 512 369 556 369 q 393 361 468 369 q 374 204 374 229 q 385 169 374 179 q 429 160 397 160 q 544 187 513 160 q 599 307 575 214 l 778 319 l 793 299 q 719 13 751 164 l 696 -10 q 339 0 476 0 q -28 -14 139 0 l 0 114 q 73 148 51 122 q 101 236 94 174 q 164 738 164 724 q 160 765 164 753 q 133 776 156 776 l 99 774 l 85 793 l 111 903 q 513 899 306 899 q 850 915 719 899 l 865 893 q 800 617 822 747 l 606 604 q 617 678 617 649 q 592 720 617 708 q 519 732 567 732 q 462 725 471 732 q 449 694 453 718 l 421 538 m 763 1233 l 803 1147 q 538 956 679 1064 l 500 956 q 285 1147 388 1063 l 343 1233 l 376 1243 q 546 1172 408 1228 q 732 1243 615 1197 l 763 1233 z "},"ě":{"ha":697,"x_min":-24,"x_max":731,"o":"m 129 565 q 106 596 129 596 l 78 594 l 64 611 l 86 704 q 435 700 258 700 q 717 714 613 700 l 731 694 q 678 472 694 575 l 501 463 q 511 516 511 494 q 492 547 511 538 q 437 557 472 557 q 394 551 401 557 q 385 531 388 546 l 364 424 l 453 424 l 574 429 l 586 411 l 554 276 q 449 279 474 279 q 340 274 424 279 q 328 182 328 211 q 337 145 328 153 q 388 138 346 138 q 455 158 431 138 q 497 249 479 179 l 660 260 l 674 242 q 614 11 639 135 l 592 -7 q 296 0 415 0 q -24 -11 121 0 l 0 97 q 59 124 42 104 q 82 193 76 144 q 129 565 129 551 m 672 1033 l 713 947 q 447 756 589 864 l 410 756 q 194 947 297 863 l 253 1033 l 286 1043 q 456 972 318 1028 q 642 1043 525 997 l 672 1033 z "},"Ĝ":{"ha":858,"x_min":25,"x_max":853,"o":"m 388 -15 q 119 82 214 -15 q 25 360 25 179 q 156 774 25 632 q 536 915 286 915 q 844 879 639 915 l 853 851 q 778 574 808 743 l 561 561 q 576 650 576 625 q 485 724 576 724 q 376 643 408 724 q 344 372 344 563 q 366 224 344 268 q 439 181 388 181 q 515 197 479 181 q 526 310 526 299 q 521 332 526 322 q 492 342 515 342 l 449 340 l 439 360 l 471 492 l 679 492 q 829 499 829 492 l 833 418 q 767 314 778 383 q 739 106 739 169 l 740 53 l 721 31 q 388 -15 608 -15 m 344 994 l 292 1081 q 544 1297 397 1167 l 582 1297 q 782 1081 688 1176 l 708 994 l 675 985 q 536 1081 638 1014 q 376 985 436 1025 l 344 994 z "},"ĝ":{"ha":729,"x_min":26,"x_max":721,"o":"m 328 -11 q 104 64 182 -11 q 26 281 26 139 q 450 713 26 713 q 713 685 538 713 l 721 661 q 657 439 683 575 l 461 428 q 475 497 475 479 q 407 550 475 550 q 332 492 353 550 q 311 324 311 435 q 324 185 311 213 q 374 157 338 157 q 426 165 401 157 l 433 222 q 431 255 436 246 q 408 264 426 264 l 378 263 l 368 281 l 396 390 q 610 392 518 392 q 701 397 701 392 l 704 328 q 649 249 658 300 q 625 82 625 139 l 625 40 l 608 21 q 328 -11 517 -11 m 253 794 l 200 881 q 453 1097 306 967 l 490 1097 q 690 881 596 976 l 617 794 l 583 785 q 444 881 546 814 q 285 785 344 825 l 253 794 z "},"Ğ":{"ha":858,"x_min":25,"x_max":853,"o":"m 388 -15 q 119 82 214 -15 q 25 360 25 179 q 156 774 25 632 q 536 915 286 915 q 844 879 639 915 l 853 851 q 778 574 808 743 l 561 561 q 576 650 576 625 q 485 724 576 724 q 376 643 408 724 q 344 372 344 563 q 366 224 344 268 q 439 181 388 181 q 515 197 479 181 q 526 310 526 299 q 521 332 526 322 q 492 342 515 342 l 449 340 l 439 360 l 471 492 l 679 492 q 829 499 829 492 l 833 418 q 767 314 778 383 q 739 106 739 169 l 740 53 l 721 31 q 388 -15 608 -15 m 546 1153 q 710 1250 656 1153 l 746 1240 l 790 1154 q 688 1019 756 1074 q 524 965 621 965 q 372 1019 426 965 q 303 1154 317 1074 l 369 1240 l 408 1250 q 458 1178 421 1203 q 546 1153 496 1153 z "},"ğ":{"ha":729,"x_min":26,"x_max":721,"o":"m 328 -11 q 104 64 182 -11 q 26 281 26 139 q 450 713 26 713 q 713 685 538 713 l 721 661 q 657 439 683 575 l 461 428 q 475 497 475 479 q 407 550 475 550 q 332 492 353 550 q 311 324 311 435 q 324 185 311 213 q 374 157 338 157 q 426 165 401 157 l 433 222 q 431 255 436 246 q 408 264 426 264 l 378 263 l 368 281 l 396 390 q 610 392 518 392 q 701 397 701 392 l 704 328 q 649 249 658 300 q 625 82 625 139 l 625 40 l 608 21 q 328 -11 517 -11 m 450 953 q 614 1050 560 953 l 650 1040 l 694 954 q 592 819 660 874 q 428 765 525 765 q 276 819 331 765 q 207 954 221 874 l 274 1040 l 313 1050 q 363 978 325 1003 q 450 953 400 953 z "},"Ġ":{"ha":858,"x_min":25,"x_max":853,"o":"m 388 -15 q 119 82 214 -15 q 25 360 25 179 q 156 774 25 632 q 536 915 286 915 q 844 879 639 915 l 853 851 q 778 574 808 743 l 561 561 q 576 650 576 625 q 485 724 576 724 q 376 643 408 724 q 344 372 344 563 q 366 224 344 268 q 439 181 388 181 q 515 197 479 181 q 526 310 526 299 q 521 332 526 322 q 492 342 515 342 l 449 340 l 439 360 l 471 492 l 679 492 q 829 499 829 492 l 833 418 q 767 314 778 383 q 739 106 739 169 l 740 53 l 721 31 q 388 -15 608 -15 m 699 1113 q 655 994 699 1039 q 547 949 611 949 q 425 1060 425 949 q 469 1180 425 1135 q 575 1225 513 1225 q 699 1113 699 1225 z "},"ġ":{"ha":729,"x_min":26,"x_max":721,"o":"m 328 -11 q 104 64 182 -11 q 26 281 26 139 q 450 713 26 713 q 713 685 538 713 l 721 661 q 657 439 683 575 l 461 428 q 475 497 475 479 q 407 550 475 550 q 332 492 353 550 q 311 324 311 435 q 324 185 311 213 q 374 157 338 157 q 426 165 401 157 l 433 222 q 431 255 436 246 q 408 264 426 264 l 378 263 l 368 281 l 396 390 q 610 392 518 392 q 701 397 701 392 l 704 328 q 649 249 658 300 q 625 82 625 139 l 625 40 l 608 21 q 328 -11 517 -11 m 603 913 q 559 794 603 839 q 453 749 515 749 q 329 860 329 749 q 373 980 329 935 q 481 1025 417 1025 q 603 913 603 1025 z "},"Ģ":{"ha":858,"x_min":25,"x_max":853,"o":"m 388 -15 q 119 82 214 -15 q 25 360 25 179 q 156 774 25 632 q 536 915 286 915 q 844 879 639 915 l 853 851 q 778 574 808 743 l 561 561 q 576 650 576 625 q 485 724 576 724 q 376 643 408 724 q 344 372 344 563 q 366 224 344 268 q 439 181 388 181 q 515 197 479 181 q 526 310 526 299 q 521 332 526 322 q 492 342 515 342 l 449 340 l 439 360 l 471 492 l 679 492 q 829 499 829 492 l 833 418 q 767 314 778 383 q 739 106 739 169 l 740 53 l 721 31 q 388 -15 608 -15 m 253 -108 q 390 -47 332 -47 q 480 -85 447 -47 q 513 -192 513 -124 q 450 -340 513 -261 q 281 -479 388 -418 l 200 -415 l 200 -381 q 265 -311 240 -351 q 289 -222 289 -271 q 249 -128 289 -172 l 253 -108 z "},"ģ":{"ha":729,"x_min":26,"x_max":721,"o":"m 328 -11 q 104 64 182 -11 q 26 281 26 139 q 450 713 26 713 q 713 685 538 713 l 721 661 q 657 439 683 575 l 461 428 q 475 497 475 479 q 407 550 475 550 q 332 492 353 550 q 311 324 311 435 q 324 185 311 213 q 374 157 338 157 q 426 165 401 157 l 433 222 q 431 255 436 246 q 408 264 426 264 l 378 263 l 368 281 l 396 390 q 610 392 518 392 q 701 397 701 392 l 704 328 q 649 249 658 300 q 625 82 625 139 l 625 40 l 608 21 q 328 -11 517 -11 m 206 -108 q 342 -47 285 -47 q 433 -85 400 -47 q 465 -192 465 -124 q 403 -340 465 -261 q 233 -479 340 -418 l 153 -415 l 153 -381 q 217 -311 193 -351 q 242 -222 242 -271 q 201 -128 242 -172 l 206 -108 z "},"Ĥ":{"ha":994,"x_min":-24,"x_max":1058,"o":"m 868 185 q 911 124 868 124 l 949 128 l 958 113 l 932 -3 q 767 0 856 -1 l 699 0 l 471 -1 l 496 119 q 567 144 543 121 q 597 225 590 168 l 615 367 q 542 368 575 368 l 392 356 q 371 161 371 182 q 378 131 371 140 q 406 121 386 121 l 442 125 l 451 111 l 425 -6 q 201 0 257 0 l -24 -7 l 1 111 q 75 144 56 122 q 101 225 94 167 q 164 739 164 724 q 157 765 164 754 q 122 776 150 776 l 88 775 l 78 794 l 101 899 l 276 899 l 551 906 l 526 781 q 468 759 483 772 q 447 708 453 746 l 419 540 l 526 536 q 636 540 600 536 q 660 738 660 724 q 653 765 660 753 q 618 776 646 776 l 582 775 l 572 794 l 596 899 l 854 899 l 1058 906 l 1035 783 q 968 761 985 775 q 939 683 951 747 q 897 421 926 619 q 868 185 868 222 m 394 1031 l 342 1117 q 594 1333 447 1203 l 632 1333 q 832 1117 738 1213 l 758 1031 l 725 1021 q 586 1117 688 1050 q 426 1021 486 1061 l 394 1031 z "},"ĥ":{"ha":844,"x_min":-19,"x_max":888,"o":"m 799 108 l 808 94 l 786 -1 q 649 0 726 -1 l 590 0 l 388 -1 l 408 101 q 490 178 481 103 l 504 278 q 456 279 481 279 l 340 269 q 325 131 325 143 q 353 103 325 103 l 381 106 l 389 93 l 368 -4 q 178 0 217 0 q 92 -1 140 0 q -19 -4 43 -3 l 1 96 q 60 119 44 104 q 82 176 76 135 q 129 567 129 554 q 124 588 129 579 q 94 596 118 596 l 67 596 l 58 613 l 78 700 l 225 700 l 468 704 l 447 599 q 401 583 413 592 q 385 550 389 574 l 363 428 l 439 424 q 521 426 493 424 q 538 563 538 549 q 532 587 538 578 q 503 596 526 596 l 474 596 l 465 613 l 485 700 l 713 700 l 888 704 l 867 601 q 813 584 826 594 q 790 532 799 574 q 758 336 781 490 q 735 153 735 182 q 771 106 735 106 l 799 108 m 292 831 l 239 917 q 492 1133 344 1003 l 529 1133 q 729 917 635 1013 l 656 831 l 622 821 q 483 917 585 850 q 324 821 383 861 l 292 831 z "},"Ħ":{"ha":994,"x_min":-24,"x_max":1067,"o":"m 944 708 q 943 703 944 708 l 1046 706 l 1067 685 l 1060 608 l 926 607 q 868 189 868 254 q 911 124 868 124 l 949 128 l 958 113 l 932 -3 q 767 0 856 -1 l 699 0 l 471 -1 l 496 119 q 567 144 543 121 q 597 225 590 168 l 615 367 q 542 368 575 368 l 392 356 q 371 161 371 182 q 378 131 371 140 q 406 121 386 121 l 442 125 l 451 111 l 425 -6 q 201 0 257 0 l -24 -7 l 1 111 q 75 144 56 122 q 101 225 94 167 l 149 606 l 36 606 l 21 619 l 32 700 q 160 699 86 699 q 164 735 164 717 q 157 765 164 754 q 122 776 150 776 l 88 775 l 78 794 l 101 899 l 276 899 l 551 906 l 526 781 q 468 759 483 772 q 446 699 453 746 l 656 699 q 660 735 660 717 q 653 765 660 753 q 618 776 646 776 l 582 775 l 572 794 l 596 899 l 854 899 l 1058 906 l 1035 783 q 968 761 985 775 q 944 708 951 747 m 644 607 l 431 607 l 419 540 l 526 536 q 636 540 600 536 l 644 607 z "},"ħ":{"ha":844,"x_min":-19,"x_max":894,"o":"m 799 108 l 808 94 l 786 -1 q 649 0 726 -1 l 590 0 l 388 -1 l 408 101 q 490 178 481 103 l 504 278 q 456 279 481 279 l 340 269 q 325 131 325 143 q 353 103 325 103 l 381 106 l 389 93 l 368 -4 q 178 0 217 0 q 92 -1 140 0 q -19 -4 43 -3 l 1 96 q 60 119 44 104 q 82 176 76 135 l 118 468 l 26 468 l 14 479 l 22 546 q 128 544 67 544 q 124 585 132 575 q 94 596 117 596 l 67 596 l 58 613 l 78 700 l 225 700 l 468 704 l 447 599 q 400 583 413 592 q 383 544 392 575 l 536 544 q 532 585 539 575 q 503 596 525 596 l 474 596 l 465 613 l 485 700 l 713 700 l 888 704 l 867 601 q 814 585 828 594 q 794 547 800 575 l 876 550 l 894 533 l 889 471 l 779 469 q 735 153 735 218 q 771 106 735 106 l 799 108 m 526 469 l 369 469 l 363 428 l 439 424 q 521 426 493 424 l 526 469 z "},"Ĩ":{"ha":499,"x_min":-24,"x_max":622,"o":"m 449 708 q 399 403 428 594 q 371 177 371 211 q 378 132 371 143 q 406 121 386 121 l 449 125 l 457 111 l 431 -6 q 204 0 261 0 l -24 -7 l 1 111 q 76 145 57 124 q 101 225 94 167 q 164 739 164 724 q 157 765 164 754 q 122 776 150 776 l 89 775 l 78 794 l 101 899 l 322 899 l 558 906 l 533 781 q 472 760 488 774 q 449 708 457 747 m 224 1235 q 328 1211 249 1235 q 424 1188 407 1188 q 508 1247 454 1188 l 526 1268 l 549 1268 l 622 1193 l 619 1171 l 490 1011 l 467 1006 q 363 1029 442 1006 q 266 1053 283 1053 q 224 1033 249 1053 q 164 972 199 1013 l 142 972 l 68 1047 l 71 1069 l 200 1229 l 224 1235 z "},"ĩ":{"ha":435,"x_min":-18,"x_max":564,"o":"m 385 543 q 348 322 371 471 q 325 147 325 174 q 331 111 325 119 q 353 103 338 103 l 386 106 l 393 93 l 371 -4 q 178 0 225 0 l -18 -4 l 1 96 q 63 122 47 106 q 82 183 78 139 q 129 567 129 554 q 124 588 129 579 q 94 596 118 596 l 69 596 q 60 613 65 601 l 79 700 l 268 700 l 474 704 l 453 599 q 403 583 415 593 q 385 543 392 574 m 165 1035 q 269 1011 190 1035 q 365 988 349 988 q 450 1047 396 988 l 468 1068 l 490 1068 l 564 993 l 561 971 l 432 811 l 408 806 q 304 829 383 806 q 208 853 225 853 q 165 833 190 853 q 106 772 140 813 l 83 772 l 10 847 l 13 869 l 142 1029 l 165 1035 z "},"Ī":{"ha":499,"x_min":-24,"x_max":564,"o":"m 449 708 q 399 403 428 594 q 371 177 371 211 q 378 132 371 143 q 406 121 386 121 l 449 125 l 457 111 l 431 -6 q 204 0 261 0 l -24 -7 l 1 111 q 76 145 57 124 q 101 225 94 167 q 164 739 164 724 q 157 765 164 754 q 122 776 150 776 l 89 775 l 78 794 l 101 899 l 322 899 l 558 906 l 533 781 q 472 760 488 774 q 449 708 457 747 m 551 1143 l 564 1118 l 519 967 l 151 964 l 132 985 l 176 1136 q 383 1135 304 1135 l 551 1143 z "},"ī":{"ha":435,"x_min":-18,"x_max":506,"o":"m 385 543 q 348 322 371 471 q 325 147 325 174 q 331 111 325 119 q 353 103 338 103 l 386 106 l 393 93 l 371 -4 q 178 0 225 0 l -18 -4 l 1 96 q 63 122 47 106 q 82 183 78 139 q 129 567 129 554 q 124 588 129 579 q 94 596 118 596 l 69 596 q 60 613 65 601 l 79 700 l 268 700 l 474 704 l 453 599 q 403 583 415 593 q 385 543 392 574 m 493 943 l 506 918 l 461 767 l 93 764 l 74 785 l 118 936 q 325 935 246 935 l 493 943 z "},"Ĭ":{"ha":499,"x_min":-24,"x_max":597,"o":"m 449 708 q 399 403 428 594 q 371 177 371 211 q 378 132 371 143 q 406 121 386 121 l 449 125 l 457 111 l 431 -6 q 204 0 261 0 l -24 -7 l 1 111 q 76 145 57 124 q 101 225 94 167 q 164 739 164 724 q 157 765 164 754 q 122 776 150 776 l 89 775 l 78 794 l 101 899 l 322 899 l 558 906 l 533 781 q 472 760 488 774 q 449 708 457 747 m 353 1153 q 517 1250 463 1153 l 553 1240 l 597 1154 q 495 1019 563 1074 q 331 965 428 965 q 178 1019 233 965 q 110 1154 124 1074 l 176 1240 l 215 1250 q 265 1178 228 1203 q 353 1153 303 1153 z "},"ĭ":{"ha":435,"x_min":-18,"x_max":532,"o":"m 385 543 q 348 322 371 471 q 325 147 325 174 q 331 111 325 119 q 353 103 338 103 l 386 106 l 393 93 l 371 -4 q 178 0 225 0 l -18 -4 l 1 96 q 63 122 47 106 q 82 183 78 139 q 129 567 129 554 q 124 588 129 579 q 94 596 118 596 l 69 596 q 60 613 65 601 l 79 700 l 268 700 l 474 704 l 453 599 q 403 583 415 593 q 385 543 392 574 m 288 939 q 451 1036 397 939 l 488 1026 l 532 940 q 430 806 497 860 q 265 751 363 751 q 113 806 168 751 q 44 940 58 860 l 111 1026 l 150 1036 q 200 964 163 989 q 288 939 238 939 z "},"Į":{"ha":499,"x_min":-24,"x_max":558,"o":"m 281 -336 q 160 -306 203 -336 q 117 -227 117 -276 q 146 -130 117 -178 q 261 0 175 -82 l 204 0 l -24 -7 l 1 111 q 76 145 57 124 q 101 225 94 167 q 164 739 164 724 q 157 765 164 754 q 122 776 150 776 l 89 775 l 78 794 l 101 899 l 322 899 l 558 906 l 533 781 q 472 760 488 774 q 449 708 457 747 q 399 403 428 594 q 371 177 371 211 q 378 132 371 143 q 406 121 386 121 l 449 125 l 457 111 l 431 -6 q 367 -3 400 -4 q 286 -109 306 -76 q 267 -165 267 -142 q 279 -202 267 -189 q 311 -215 292 -215 q 404 -181 343 -215 l 433 -236 q 281 -336 347 -311 z "},"į":{"ha":435,"x_min":-18,"x_max":474,"o":"m 242 -336 q 121 -306 164 -336 q 78 -227 78 -276 q 107 -130 78 -178 q 222 0 136 -82 l 178 0 l -18 -4 l 1 96 q 63 122 47 106 q 82 183 78 139 q 129 567 129 554 q 124 588 129 579 q 94 596 118 596 l 69 596 q 60 613 65 601 l 79 700 l 268 700 l 474 704 l 453 599 q 403 583 415 593 q 385 543 392 574 q 348 322 371 471 q 325 147 325 174 q 331 111 325 119 q 353 103 338 103 l 386 106 l 393 93 l 371 -4 q 328 -3 351 -3 q 247 -109 267 -76 q 228 -165 228 -142 q 240 -202 228 -189 q 272 -215 253 -215 q 365 -181 304 -215 l 394 -236 q 242 -336 308 -311 z "},"İ":{"ha":499,"x_min":-24,"x_max":558,"o":"m 449 708 q 399 403 428 594 q 371 177 371 211 q 378 132 371 143 q 406 121 386 121 l 449 125 l 457 111 l 431 -6 q 204 0 261 0 l -24 -7 l 1 111 q 76 145 57 124 q 101 225 94 167 q 164 739 164 724 q 157 765 164 754 q 122 776 150 776 l 89 775 l 78 794 l 101 899 l 322 899 l 558 906 l 533 781 q 472 760 488 774 q 449 708 457 747 m 483 1113 q 440 994 483 1039 q 333 949 396 949 q 210 1060 210 949 q 253 1180 210 1135 q 361 1225 297 1225 q 483 1113 483 1225 z "},"ı":{"ha":435,"x_min":-18,"x_max":474,"o":"m 385 543 q 348 322 371 471 q 325 147 325 174 q 331 111 325 119 q 353 103 338 103 l 386 106 l 393 93 l 371 -4 q 178 0 225 0 l -18 -4 l 1 96 q 63 122 47 106 q 82 183 78 139 q 129 567 129 554 q 124 588 129 579 q 94 596 118 596 l 69 596 q 60 613 65 601 l 79 700 l 268 700 l 474 704 l 453 599 q 403 583 415 593 q 385 543 392 574 z "},"Ĳ":{"ha":956,"x_min":-24,"x_max":1036,"o":"m 449 708 q 399 403 428 594 q 371 177 371 211 q 378 132 371 143 q 406 121 386 121 l 449 125 l 457 111 l 431 -6 q 204 0 261 0 l -24 -7 l 1 111 q 76 145 57 124 q 101 225 94 167 q 164 739 164 724 q 157 765 164 754 q 122 776 150 776 l 89 775 l 78 794 l 101 899 l 322 899 l 558 906 l 533 781 q 472 760 488 774 q 449 708 457 747 m 585 183 q 651 741 651 726 q 647 766 651 756 q 615 776 642 776 l 567 774 l 557 793 l 581 899 l 774 900 l 1036 910 l 1008 781 q 956 759 968 771 q 938 708 944 747 q 849 118 894 490 q 734 -99 829 -15 q 450 -228 639 -182 l 401 -161 l 407 -140 q 532 -13 497 -75 q 585 183 567 49 z "},"ĳ":{"ha":817,"x_min":-18,"x_max":872,"o":"m 485 146 q 535 569 535 557 q 531 589 535 581 q 506 597 528 597 l 468 594 l 458 613 l 478 700 l 643 701 l 872 708 l 849 599 q 808 582 817 592 q 793 543 799 572 q 722 86 758 376 q 625 -81 707 -17 q 379 -181 543 -146 l 335 -126 l 339 -108 q 443 -8 415 -56 q 485 146 471 39 m 385 543 q 348 322 371 471 q 325 147 325 174 q 331 111 325 119 q 353 103 338 103 l 386 106 l 393 93 l 371 -4 q 178 0 225 0 l -18 -4 l 1 96 q 63 122 47 106 q 82 183 78 139 q 129 567 129 554 q 124 588 129 579 q 94 596 118 596 l 69 596 q 60 613 65 601 l 79 700 l 268 700 l 474 704 l 453 599 q 403 583 415 593 q 385 543 392 574 z "},"Ĵ":{"ha":457,"x_min":-97,"x_max":582,"o":"m 86 183 q 153 741 153 726 q 148 766 153 756 q 117 776 143 776 l 68 774 l 58 793 l 82 899 l 275 900 l 538 910 l 510 781 q 458 759 469 771 q 439 708 446 747 q 350 118 396 490 q 235 -99 331 -15 q -49 -228 140 -182 l -97 -161 l -92 -140 q 33 -13 -1 -75 q 86 183 68 49 m 144 994 l 92 1081 q 344 1297 197 1167 l 382 1297 q 582 1081 488 1176 l 508 994 l 475 985 q 336 1081 438 1014 q 176 985 236 1025 l 144 994 z "},"ĵ":{"ha":401,"x_min":-81,"x_max":525,"o":"m 69 146 q 119 569 119 557 q 116 589 119 581 q 90 597 113 597 l 53 594 l 43 613 l 63 700 l 228 701 l 457 708 l 433 599 q 392 582 401 592 q 378 543 383 572 q 307 86 343 376 q 210 -81 292 -17 q -36 -181 128 -146 l -81 -126 l -76 -108 q 28 -8 0 -56 q 69 146 56 39 m 88 794 l 35 881 q 288 1097 140 967 l 325 1097 q 525 881 431 976 l 451 794 l 418 785 q 279 881 381 814 q 119 785 179 825 l 88 794 z "},"Ķ":{"ha":939,"x_min":-24,"x_max":1004,"o":"m 101 225 q 164 739 164 724 q 157 765 164 754 q 122 776 150 776 l 88 775 l 78 794 l 103 900 q 322 899 299 899 l 560 906 l 535 781 q 465 752 482 767 q 444 703 447 738 l 375 217 q 371 167 371 185 q 374 140 371 149 q 406 121 379 121 l 449 125 l 458 111 l 432 -6 q 204 0 261 0 l -24 -7 l 1 111 q 76 144 56 122 q 101 225 96 167 m 631 739 q 619 765 631 757 q 582 775 608 774 l 575 789 l 601 903 q 796 899 733 899 l 994 906 l 1004 885 l 979 781 q 779 604 871 721 l 696 494 l 786 242 q 834 152 808 181 q 900 117 860 124 l 913 96 l 885 -7 q 662 -22 706 -22 q 590 2 618 -22 q 538 90 561 26 l 414 440 l 426 482 l 583 656 q 631 739 631 706 m 306 -108 q 442 -47 385 -47 q 533 -85 500 -47 q 565 -192 565 -124 q 503 -340 565 -261 q 333 -479 440 -418 l 253 -415 l 253 -381 q 317 -311 293 -351 q 342 -222 342 -271 q 301 -128 342 -172 l 306 -108 z "},"ķ":{"ha":810,"x_min":-19,"x_max":849,"o":"m 325 136 q 353 103 325 103 l 386 106 l 396 93 l 374 -4 q 178 0 225 0 l -19 -6 l 1 93 q 62 120 46 103 q 82 183 78 138 q 129 567 129 554 q 124 588 129 579 q 94 596 118 596 l 67 596 l 58 613 l 79 701 q 268 700 251 700 l 476 704 l 454 599 q 396 576 410 588 q 381 539 382 565 q 325 136 325 149 m 483 501 q 522 567 522 540 q 485 594 522 593 l 479 607 l 500 703 q 667 700 614 700 l 840 706 l 849 688 l 828 600 q 660 456 733 547 l 608 388 l 675 199 q 713 129 692 151 q 765 100 733 107 l 776 82 l 753 -6 q 557 -18 596 -18 q 495 0 518 -18 q 453 69 472 18 l 356 343 l 367 378 l 483 501 m 256 -108 q 392 -47 335 -47 q 483 -85 450 -47 q 515 -192 515 -124 q 453 -340 515 -261 q 283 -479 390 -418 l 203 -415 l 203 -381 q 267 -311 243 -351 q 292 -222 292 -271 q 251 -128 292 -172 l 256 -108 z "},"ĸ":{"ha":810,"x_min":-19,"x_max":849,"o":"m 325 136 q 353 103 325 103 l 386 106 l 396 93 l 374 -4 q 178 0 225 0 l -19 -6 l 1 93 q 62 120 46 103 q 82 183 78 138 q 129 567 129 554 q 124 588 129 579 q 94 596 118 596 l 67 596 l 58 613 l 79 701 q 268 700 251 700 l 476 704 l 454 599 q 396 576 410 588 q 381 539 382 565 q 325 136 325 149 m 483 501 q 522 567 522 540 q 485 594 522 593 l 479 607 l 500 703 q 667 700 614 700 l 840 706 l 849 688 l 828 600 q 660 456 733 547 l 608 388 l 675 199 q 713 129 692 151 q 765 100 733 107 l 776 82 l 753 -6 q 557 -18 596 -18 q 495 0 518 -18 q 453 69 472 18 l 356 343 l 367 378 l 483 501 z "},"Ĺ":{"ha":754,"x_min":-28,"x_max":761,"o":"m 660 -10 q 331 0 460 0 q -28 -14 139 0 l 0 114 q 73 148 51 122 q 101 236 94 174 q 163 739 163 724 q 156 765 163 754 q 121 776 149 776 l 86 775 l 76 794 l 100 899 l 321 899 l 607 906 l 575 769 q 478 748 504 763 q 446 697 451 733 q 374 204 374 292 q 414 160 374 160 q 513 203 483 160 q 567 386 543 247 l 747 404 l 761 383 q 683 13 719 206 l 660 -10 m 557 1058 l 547 1036 q 194 960 367 1003 l 168 978 l 139 1076 q 485 1215 282 1129 l 507 1208 l 557 1058 z "},"ĺ":{"ha":654,"x_min":-24,"x_max":646,"o":"m 563 -7 q 286 0 400 0 q -24 -11 121 0 l -1 97 q 59 124 42 104 q 82 193 76 144 q 128 567 128 554 q 122 588 128 579 q 93 596 117 596 l 65 596 l 57 613 l 76 700 l 267 700 l 519 704 l 492 589 q 410 573 433 583 q 383 540 386 563 q 328 169 328 235 q 354 138 328 138 q 430 173 407 138 q 471 318 453 208 l 633 333 q 646 315 643 319 q 583 13 613 169 l 563 -7 m 488 858 l 478 836 q 125 760 297 803 l 99 778 l 69 876 q 415 1015 213 929 l 438 1008 l 488 858 z "},"Ļ":{"ha":754,"x_min":-28,"x_max":761,"o":"m 660 -10 q 331 0 460 0 q -28 -14 139 0 l 0 114 q 73 148 51 122 q 101 236 94 174 q 163 739 163 724 q 156 765 163 754 q 121 776 149 776 l 86 775 l 76 794 l 100 899 l 321 899 l 607 906 l 575 769 q 478 748 504 763 q 446 697 451 733 q 374 204 374 292 q 414 160 374 160 q 513 203 483 160 q 567 386 543 247 l 747 404 l 761 383 q 683 13 719 206 l 660 -10 m 188 -108 q 324 -47 267 -47 q 415 -85 382 -47 q 447 -192 447 -124 q 385 -340 447 -261 q 215 -479 322 -418 l 135 -415 l 135 -381 q 199 -311 175 -351 q 224 -222 224 -271 q 183 -128 224 -172 l 188 -108 z "},"ļ":{"ha":654,"x_min":-24,"x_max":646,"o":"m 563 -7 q 286 0 400 0 q -24 -11 121 0 l -1 97 q 59 124 42 104 q 82 193 76 144 q 128 567 128 554 q 122 588 128 579 q 93 596 117 596 l 65 596 l 57 613 l 76 700 l 267 700 l 519 704 l 492 589 q 410 573 433 583 q 383 540 386 563 q 328 169 328 235 q 354 138 328 138 q 430 173 407 138 q 471 318 453 208 l 633 333 q 646 315 643 319 q 583 13 613 169 l 563 -7 m 150 -108 q 287 -47 229 -47 q 377 -85 344 -47 q 410 -192 410 -124 q 347 -340 410 -261 q 178 -479 285 -418 l 97 -415 l 97 -381 q 162 -311 138 -351 q 186 -222 186 -271 q 146 -128 186 -172 l 150 -108 z "},"Ľ":{"ha":807,"x_min":-28,"x_max":850,"o":"m 664 549 q 664 608 664 569 q 651 879 664 708 l 838 899 l 850 882 q 792 575 828 731 l 690 540 l 664 549 m 660 -10 q 331 0 460 0 q -28 -14 139 0 l 0 114 q 73 148 51 122 q 101 236 94 174 q 163 739 163 724 q 156 765 163 754 q 121 776 149 776 l 86 775 l 76 794 l 100 899 l 321 899 l 607 906 l 575 769 q 478 748 504 763 q 446 697 451 733 q 374 204 374 292 q 414 160 374 160 q 513 203 483 160 q 567 386 543 247 l 747 404 l 761 383 q 683 13 719 206 l 660 -10 z "},"ľ":{"ha":711,"x_min":-24,"x_max":722,"o":"m 563 -7 q 286 0 400 0 q -24 -11 121 0 l -1 97 q 59 124 42 104 q 82 193 76 144 q 128 567 128 554 q 122 588 128 579 q 93 596 117 596 l 65 596 l 57 613 l 76 700 l 267 700 l 519 704 l 492 589 q 410 573 433 583 q 383 540 386 563 q 328 169 328 235 q 354 138 328 138 q 430 173 407 138 q 471 318 453 208 l 633 333 q 646 315 643 319 q 583 13 613 169 l 563 -7 m 713 700 l 722 688 q 675 447 706 569 l 585 418 l 561 425 q 549 686 561 556 l 713 700 z "},"Ŀ":{"ha":838,"x_min":-28,"x_max":849,"o":"m 660 -10 q 331 0 460 0 q -28 -14 139 0 l 0 114 q 73 148 51 122 q 101 236 94 174 q 163 739 163 724 q 156 765 163 754 q 121 776 149 776 l 86 775 l 76 794 l 100 899 l 321 899 l 607 906 l 575 769 q 478 748 504 763 q 446 697 451 733 q 374 204 374 292 q 414 160 374 160 q 513 203 483 160 q 567 386 543 247 l 747 404 l 761 383 q 683 13 719 206 l 660 -10 m 690 525 q 576 636 576 525 q 620 756 576 711 q 728 801 664 801 q 849 689 849 801 q 805 570 849 615 q 690 525 761 525 z "},"ŀ":{"ha":753,"x_min":-24,"x_max":751,"o":"m 563 -7 q 286 0 400 0 q -24 -11 121 0 l -1 97 q 59 124 42 104 q 82 193 76 144 q 128 567 128 554 q 122 588 128 579 q 93 596 117 596 l 65 596 l 57 613 l 76 700 l 267 700 l 519 704 l 492 589 q 410 573 433 583 q 383 540 386 563 q 328 169 328 235 q 354 138 328 138 q 430 173 407 138 q 471 318 453 208 l 633 333 q 646 315 643 319 q 583 13 613 169 l 563 -7 m 607 388 q 501 489 501 388 q 542 599 501 557 q 642 640 583 640 q 751 538 751 640 q 712 428 751 469 q 607 388 672 388 z "},"Ł":{"ha":754,"x_min":-28,"x_max":761,"o":"m 660 -10 q 331 0 460 0 q -28 -14 139 0 l 0 114 q 73 148 51 122 q 101 236 94 174 l 111 317 l 61 292 l 47 294 l 4 425 l 132 489 q 163 738 163 722 q 156 765 163 754 q 121 776 149 776 l 86 775 l 76 794 l 100 899 l 321 899 l 607 906 l 575 769 q 478 748 504 763 q 446 697 451 733 l 431 607 l 535 660 l 547 654 l 590 525 l 401 431 q 374 201 374 243 q 414 160 374 160 q 513 203 483 160 q 567 386 543 247 l 747 404 l 761 383 q 683 13 719 206 l 660 -10 z "},"ł":{"ha":678,"x_min":0,"x_max":669,"o":"m 586 -7 q 311 0 424 0 q 0 -11 144 0 l 22 97 q 83 124 65 104 q 106 193 100 144 l 111 235 l 75 218 l 63 219 l 22 333 l 129 385 q 151 566 151 553 q 146 588 151 579 q 117 596 140 596 l 89 596 l 81 613 l 100 700 l 290 700 l 543 704 l 515 589 q 433 573 457 583 q 407 540 410 563 l 396 483 l 468 517 l 478 513 l 518 400 l 371 331 q 351 171 351 204 q 378 138 351 138 q 453 173 431 138 q 494 318 476 208 l 657 333 q 669 315 667 319 q 607 13 636 169 l 586 -7 z "},"Ń":{"ha":997,"x_min":-17,"x_max":1069,"o":"m 689 463 q 715 739 715 724 q 708 765 715 754 q 678 776 701 776 l 636 776 l 631 792 l 651 904 q 936 899 803 899 q 1069 903 1069 899 l 1047 778 q 985 753 1004 772 q 960 690 967 733 l 857 0 l 590 -17 q 382 438 496 200 l 361 438 q 335 162 335 178 q 342 133 335 146 q 381 119 350 119 l 425 125 l 436 113 l 407 -6 q 204 0 254 0 q -17 -11 111 0 l 13 114 q 74 140 53 119 q 100 201 94 160 q 176 719 176 700 q 163 753 176 739 q 86 774 149 767 l 72 793 l 93 906 q 296 899 194 899 l 474 904 q 668 463 551 704 l 689 463 m 769 1058 l 760 1036 q 407 960 579 1003 l 381 978 l 351 1076 q 697 1215 494 1129 l 719 1208 l 769 1058 z "},"ń":{"ha":851,"x_min":-14,"x_max":897,"o":"m 556 597 l 522 597 l 517 610 l 533 704 q 782 700 667 700 q 897 703 897 700 l 879 597 q 829 577 844 592 q 808 529 814 563 l 729 6 l 483 -7 l 329 301 l 310 301 q 294 138 294 151 q 301 113 294 124 q 335 101 308 101 l 369 106 l 379 96 l 356 -4 q 174 0 221 0 l -14 -8 l 11 97 q 61 117 44 101 q 83 165 78 133 q 142 551 142 535 q 131 576 142 567 q 68 593 119 586 l 54 610 l 72 706 q 250 700 158 700 l 407 704 q 553 396 471 551 l 571 396 l 586 550 q 583 588 589 578 q 556 597 576 597 m 661 858 l 651 836 q 299 760 471 803 l 272 778 l 243 876 q 589 1015 386 929 l 611 1008 l 661 858 z "},"Ņ":{"ha":997,"x_min":-17,"x_max":1069,"o":"m 689 463 q 715 739 715 724 q 708 765 715 754 q 678 776 701 776 l 636 776 l 631 792 l 651 904 q 936 899 803 899 q 1069 903 1069 899 l 1047 778 q 985 753 1004 772 q 960 690 967 733 l 857 0 l 590 -17 q 382 438 496 200 l 361 438 q 335 162 335 178 q 342 133 335 146 q 381 119 350 119 l 425 125 l 436 113 l 407 -6 q 204 0 254 0 q -17 -11 111 0 l 13 114 q 74 140 53 119 q 100 201 94 160 q 176 719 176 700 q 163 753 176 739 q 86 774 149 767 l 72 793 l 93 906 q 296 899 194 899 l 474 904 q 668 463 551 704 l 689 463 m 321 -108 q 458 -47 400 -47 q 548 -85 515 -47 q 581 -192 581 -124 q 518 -340 581 -261 q 349 -479 456 -418 l 268 -415 l 268 -381 q 333 -311 308 -351 q 357 -222 357 -271 q 317 -128 357 -172 l 321 -108 z "},"ņ":{"ha":851,"x_min":-14,"x_max":897,"o":"m 556 597 l 522 597 l 517 610 l 533 704 q 782 700 667 700 q 897 703 897 700 l 879 597 q 829 577 844 592 q 808 529 814 563 l 729 6 l 483 -7 l 329 301 l 310 301 q 294 138 294 151 q 301 113 294 124 q 335 101 308 101 l 369 106 l 379 96 l 356 -4 q 174 0 221 0 l -14 -8 l 11 97 q 61 117 44 101 q 83 165 78 133 q 142 551 142 535 q 131 576 142 567 q 68 593 119 586 l 54 610 l 72 706 q 250 700 158 700 l 407 704 q 553 396 471 551 l 571 396 l 586 550 q 583 588 589 578 q 556 597 576 597 m 265 -108 q 402 -47 344 -47 q 492 -85 460 -47 q 525 -192 525 -124 q 463 -340 525 -261 q 293 -479 400 -418 l 213 -415 l 213 -381 q 277 -311 253 -351 q 301 -222 301 -271 q 261 -128 301 -172 l 265 -108 z "},"Ň":{"ha":997,"x_min":-17,"x_max":1069,"o":"m 689 463 q 715 739 715 724 q 708 765 715 754 q 678 776 701 776 l 636 776 l 631 792 l 651 904 q 936 899 803 899 q 1069 903 1069 899 l 1047 778 q 985 753 1004 772 q 960 690 967 733 l 857 0 l 590 -17 q 382 438 496 200 l 361 438 q 335 162 335 178 q 342 133 335 146 q 381 119 350 119 l 425 125 l 436 113 l 407 -6 q 204 0 254 0 q -17 -11 111 0 l 13 114 q 74 140 53 119 q 100 201 94 160 q 176 719 176 700 q 163 753 176 739 q 86 774 149 767 l 72 793 l 93 906 q 296 899 194 899 l 474 904 q 668 463 551 704 l 689 463 m 829 1233 l 869 1147 q 604 956 746 1064 l 567 956 q 351 1147 454 1063 l 410 1233 l 443 1243 q 613 1172 475 1228 q 799 1243 682 1197 l 829 1233 z "},"ň":{"ha":851,"x_min":-14,"x_max":897,"o":"m 556 597 l 522 597 l 517 610 l 533 704 q 782 700 667 700 q 897 703 897 700 l 879 597 q 829 577 844 592 q 808 529 814 563 l 729 6 l 483 -7 l 329 301 l 310 301 q 294 138 294 151 q 301 113 294 124 q 335 101 308 101 l 369 106 l 379 96 l 356 -4 q 174 0 221 0 l -14 -8 l 11 97 q 61 117 44 101 q 83 165 78 133 q 142 551 142 535 q 131 576 142 567 q 68 593 119 586 l 54 610 l 72 706 q 250 700 158 700 l 407 704 q 553 396 471 551 l 571 396 l 586 550 q 583 588 589 578 q 556 597 576 597 m 726 1033 l 767 947 q 501 756 643 864 l 464 756 q 249 947 351 863 l 307 1033 l 340 1043 q 510 972 372 1028 q 696 1043 579 997 l 726 1033 z "},"Ŋ":{"ha":993,"x_min":-11,"x_max":1065,"o":"m 693 442 q 724 749 724 736 q 685 782 724 782 l 643 781 l 639 794 l 658 904 q 883 899 843 899 l 1065 904 l 1044 783 q 981 758 1000 778 q 954 696 961 739 l 869 118 q 757 -108 847 -24 q 490 -239 667 -193 l 440 -171 l 446 -150 q 593 0 551 -96 q 378 460 510 190 l 358 460 q 326 157 326 174 q 372 115 326 115 l 419 119 l 429 108 l 401 -6 q 154 0 264 0 l -11 -11 l 18 108 q 78 135 58 114 q 106 199 99 156 q 183 722 183 701 q 168 758 183 743 q 92 779 153 772 l 78 799 l 99 906 q 299 899 224 899 l 465 904 q 674 442 551 690 l 693 442 z "},"ŋ":{"ha":847,"x_min":-8,"x_max":893,"o":"m 563 601 l 529 601 l 525 613 l 540 704 q 738 700 704 700 l 893 704 l 876 603 q 824 583 840 597 q 803 535 808 568 l 738 92 q 642 -87 718 -19 q 414 -189 565 -154 l 368 -133 l 372 -115 q 490 -1 458 -72 l 325 324 l 307 324 q 286 133 286 147 q 326 97 286 97 l 364 100 l 372 90 l 349 -4 q 133 0 231 0 l -8 -8 l 17 92 q 88 158 79 100 q 149 553 149 536 q 136 581 149 569 q 74 599 124 593 l 60 615 l 78 706 q 253 700 186 700 l 399 704 q 558 375 476 529 l 575 375 l 594 556 q 590 592 597 582 q 563 601 583 601 z "},"Ō":{"ha":879,"x_min":25,"x_max":886,"o":"m 431 158 q 534 251 503 158 q 565 558 565 344 q 475 725 565 725 q 374 631 406 725 q 343 325 343 538 q 431 158 343 158 m 393 -17 q 122 80 219 -17 q 25 356 25 176 q 151 770 25 625 q 517 915 276 915 q 790 823 694 915 q 886 553 886 731 q 758 133 886 283 q 393 -17 631 -17 m 742 1143 l 754 1118 l 710 967 l 342 964 l 322 985 l 367 1136 q 574 1135 494 1135 l 742 1143 z "},"ō":{"ha":744,"x_min":22,"x_max":738,"o":"m 363 138 q 432 201 413 138 q 451 380 451 265 q 438 522 451 494 q 393 550 425 550 q 326 486 346 550 q 307 308 307 422 q 319 165 307 193 q 363 138 332 138 m 333 -12 q 103 63 185 -12 q 22 283 22 138 q 426 714 22 714 q 738 426 738 714 q 635 101 738 214 q 333 -12 532 -12 m 647 943 l 660 918 l 615 767 l 247 764 l 228 785 l 272 936 q 479 935 400 935 l 647 943 z "},"Ŏ":{"ha":879,"x_min":25,"x_max":886,"o":"m 431 158 q 534 251 503 158 q 565 558 565 344 q 475 725 565 725 q 374 631 406 725 q 343 325 343 538 q 431 158 343 158 m 393 -17 q 122 80 219 -17 q 25 356 25 176 q 151 770 25 625 q 517 915 276 915 q 790 823 694 915 q 886 553 886 731 q 758 133 886 283 q 393 -17 631 -17 m 378 1243 q 517 1146 407 1146 q 679 1243 628 1146 l 717 1233 l 761 1147 q 659 1013 726 1067 q 494 958 592 958 q 342 1013 397 958 q 274 1147 288 1067 l 339 1233 l 378 1243 z "},"ŏ":{"ha":744,"x_min":22,"x_max":738,"o":"m 363 138 q 432 201 413 138 q 451 380 451 265 q 438 522 451 494 q 393 550 425 550 q 326 486 346 550 q 307 308 307 422 q 319 165 307 193 q 363 138 332 138 m 333 -12 q 103 63 185 -12 q 22 283 22 138 q 426 714 22 714 q 738 426 738 714 q 635 101 738 214 q 333 -12 532 -12 m 431 939 q 594 1036 540 939 l 631 1026 l 675 940 q 573 806 640 860 q 408 751 506 751 q 256 806 311 751 q 188 940 201 860 l 254 1026 l 293 1036 q 343 964 306 989 q 431 939 381 939 z "},"Ő":{"ha":879,"x_min":25,"x_max":886,"o":"m 431 158 q 534 251 503 158 q 565 558 565 344 q 475 725 565 725 q 374 631 406 725 q 343 325 343 538 q 431 158 343 158 m 393 -17 q 122 80 219 -17 q 25 356 25 176 q 151 770 25 625 q 517 915 276 915 q 790 823 694 915 q 886 553 886 731 q 758 133 886 283 q 393 -17 631 -17 m 547 1110 l 547 1089 q 307 936 424 1015 l 281 943 l 228 1010 l 435 1221 l 456 1222 l 547 1110 m 822 1110 l 822 1089 q 582 936 699 1015 l 556 943 l 503 1010 l 710 1221 l 731 1222 l 822 1110 z "},"ő":{"ha":744,"x_min":22,"x_max":738,"o":"m 363 138 q 432 201 413 138 q 451 380 451 265 q 438 522 451 494 q 393 550 425 550 q 326 486 346 550 q 307 308 307 422 q 319 165 307 193 q 363 138 332 138 m 333 -12 q 103 63 185 -12 q 22 283 22 138 q 426 714 22 714 q 738 426 738 714 q 635 101 738 214 q 333 -12 532 -12 m 463 910 l 463 889 q 222 736 339 815 l 196 743 l 143 810 l 350 1021 l 371 1022 l 463 910 m 738 910 l 738 889 q 497 736 614 815 l 471 743 l 418 810 l 625 1021 l 646 1022 l 738 910 z "},"Œ":{"ha":1229,"x_min":25,"x_max":1281,"o":"m 810 361 q 790 203 790 222 q 798 172 790 183 q 846 160 806 160 q 960 187 929 160 q 1014 307 992 214 l 1194 319 l 1208 299 q 1136 13 1168 164 l 1113 -10 q 756 4 889 4 q 528 -5 622 4 q 401 -14 433 -14 q 124 83 224 -14 q 25 360 25 181 q 147 765 25 626 q 508 903 268 903 q 656 894 547 903 q 831 886 764 886 q 1265 915 1042 886 l 1281 893 q 1217 617 1239 747 l 1022 604 q 1033 678 1033 649 q 1009 720 1033 708 q 935 732 985 732 q 877 725 886 732 q 865 694 868 718 l 838 538 l 946 536 l 1094 544 l 1110 525 l 1071 365 q 911 369 972 369 l 810 361 m 429 150 q 529 272 515 150 q 574 638 574 625 q 478 733 574 733 q 340 326 340 733 q 361 191 340 232 q 429 150 382 150 z "},"œ":{"ha":1035,"x_min":22,"x_max":1067,"o":"m 678 274 q 665 174 665 192 q 671 147 665 156 q 722 138 676 138 q 792 158 768 138 q 835 249 817 179 l 997 258 l 1010 240 q 950 11 976 133 l 929 -7 q 636 4 750 4 q 444 -3 522 4 q 342 -11 367 -11 q 106 65 189 -11 q 22 288 22 142 q 119 599 22 496 q 419 701 217 701 q 542 695 451 701 q 740 689 633 689 q 1053 713 846 689 l 1067 694 q 1015 474 1032 575 l 840 463 q 849 517 849 496 q 830 548 849 539 q 774 557 811 557 q 731 551 738 557 q 722 531 724 546 l 701 424 l 789 422 l 910 428 l 924 411 l 892 276 q 763 281 813 281 l 678 274 m 363 129 q 428 210 419 129 q 463 497 463 478 q 447 537 463 515 q 394 558 431 558 q 303 260 303 558 q 315 156 303 183 q 363 129 328 129 z "},"Ŕ":{"ha":918,"x_min":-26,"x_max":900,"o":"m 388 317 q 374 176 374 201 q 385 138 374 151 q 460 122 396 125 l 465 111 l 438 -6 q 219 0 269 0 q -26 -12 108 0 l 1 115 q 74 149 51 124 q 103 233 96 174 q 164 742 164 729 q 160 766 164 756 q 136 776 156 776 l 88 774 l 76 790 l 104 900 q 297 899 242 899 l 539 907 q 807 849 714 907 q 900 679 900 792 q 706 383 900 494 l 768 239 q 882 117 822 117 l 894 94 l 869 -7 l 654 -22 q 565 6 596 -22 q 515 104 533 35 l 461 317 l 388 317 m 610 636 q 475 733 610 733 q 456 728 461 733 q 437 642 451 722 q 413 492 422 561 l 513 478 q 610 636 610 515 m 711 1058 l 701 1036 q 349 960 521 1003 l 322 978 l 293 1076 q 639 1215 436 1129 l 661 1208 l 711 1058 z "},"ŕ":{"ha":793,"x_min":-22,"x_max":768,"o":"m 336 238 q 328 145 328 164 q 337 117 328 126 q 400 104 346 107 l 404 94 l 382 -4 q 189 0 232 0 q -22 -11 108 0 l 1 97 q 60 124 42 104 q 83 190 78 144 q 131 565 131 558 q 108 596 131 596 l 67 594 l 57 608 l 81 701 q 246 700 199 700 l 456 707 q 768 524 768 707 q 611 294 768 382 l 658 196 q 703 126 679 151 q 749 101 728 101 l 761 81 l 739 -6 l 550 -17 q 472 5 499 -17 q 432 81 446 26 l 392 238 l 336 238 m 508 488 q 484 540 508 524 q 426 556 460 556 q 390 551 393 556 q 357 388 383 542 l 436 376 q 508 488 508 403 m 617 858 l 607 836 q 254 760 426 803 l 228 778 l 199 876 q 544 1015 342 929 l 567 1008 l 617 858 z "},"Ŗ":{"ha":918,"x_min":-26,"x_max":900,"o":"m 388 317 q 374 176 374 201 q 385 138 374 151 q 460 122 396 125 l 465 111 l 438 -6 q 219 0 269 0 q -26 -12 108 0 l 1 115 q 74 149 51 124 q 103 233 96 174 q 164 742 164 729 q 160 766 164 756 q 136 776 156 776 l 88 774 l 76 790 l 104 900 q 297 899 242 899 l 539 907 q 807 849 714 907 q 900 679 900 792 q 706 383 900 494 l 768 239 q 882 117 822 117 l 894 94 l 869 -7 l 654 -22 q 565 6 596 -22 q 515 104 533 35 l 461 317 l 388 317 m 610 636 q 475 733 610 733 q 456 728 461 733 q 437 642 451 722 q 413 492 422 561 l 513 478 q 610 636 610 515 m 272 -108 q 409 -47 351 -47 q 499 -85 467 -47 q 532 -192 532 -124 q 469 -340 532 -261 q 300 -479 407 -418 l 219 -415 l 219 -381 q 284 -311 260 -351 q 308 -222 308 -271 q 268 -128 308 -172 l 272 -108 z "},"ŗ":{"ha":793,"x_min":-22,"x_max":768,"o":"m 336 238 q 328 145 328 164 q 337 117 328 126 q 400 104 346 107 l 404 94 l 382 -4 q 189 0 232 0 q -22 -11 108 0 l 1 97 q 60 124 42 104 q 83 190 78 144 q 131 565 131 558 q 108 596 131 596 l 67 594 l 57 608 l 81 701 q 246 700 199 700 l 456 707 q 768 524 768 707 q 611 294 768 382 l 658 196 q 703 126 679 151 q 749 101 728 101 l 761 81 l 739 -6 l 550 -17 q 472 5 499 -17 q 432 81 446 26 l 392 238 l 336 238 m 508 488 q 484 540 508 524 q 426 556 460 556 q 390 551 393 556 q 357 388 383 542 l 436 376 q 508 488 508 403 m 226 -108 q 363 -47 306 -47 q 453 -85 421 -47 q 486 -192 486 -124 q 424 -340 486 -261 q 254 -479 361 -418 l 174 -415 l 174 -381 q 238 -311 214 -351 q 263 -222 263 -271 q 222 -128 263 -172 l 226 -108 z "},"Ř":{"ha":918,"x_min":-26,"x_max":900,"o":"m 388 317 q 374 176 374 201 q 385 138 374 151 q 460 122 396 125 l 465 111 l 438 -6 q 219 0 269 0 q -26 -12 108 0 l 1 115 q 74 149 51 124 q 103 233 96 174 q 164 742 164 729 q 160 766 164 756 q 136 776 156 776 l 88 774 l 76 790 l 104 900 q 297 899 242 899 l 539 907 q 807 849 714 907 q 900 679 900 792 q 706 383 900 494 l 768 239 q 882 117 822 117 l 894 94 l 869 -7 l 654 -22 q 565 6 596 -22 q 515 104 533 35 l 461 317 l 388 317 m 610 636 q 475 733 610 733 q 456 728 461 733 q 437 642 451 722 q 413 492 422 561 l 513 478 q 610 636 610 515 m 771 1233 l 811 1147 q 546 956 688 1064 l 508 956 q 293 1147 396 1063 l 351 1233 l 385 1243 q 554 1172 417 1228 q 740 1243 624 1197 l 771 1233 z "},"ř":{"ha":793,"x_min":-22,"x_max":768,"o":"m 336 238 q 328 145 328 164 q 337 117 328 126 q 400 104 346 107 l 404 94 l 382 -4 q 189 0 232 0 q -22 -11 108 0 l 1 97 q 60 124 42 104 q 83 190 78 144 q 131 565 131 558 q 108 596 131 596 l 67 594 l 57 608 l 81 701 q 246 700 199 700 l 456 707 q 768 524 768 707 q 611 294 768 382 l 658 196 q 703 126 679 151 q 749 101 728 101 l 761 81 l 739 -6 l 550 -17 q 472 5 499 -17 q 432 81 446 26 l 392 238 l 336 238 m 508 488 q 484 540 508 524 q 426 556 460 556 q 390 551 393 556 q 357 388 383 542 l 436 376 q 508 488 508 403 m 682 1033 l 722 947 q 457 756 599 864 l 419 756 q 204 947 307 863 l 263 1033 l 296 1043 q 465 972 328 1028 q 651 1043 535 997 l 682 1033 z "},"Ś":{"ha":744,"x_min":-18,"x_max":782,"o":"m 271 -17 q 131 -2 200 -17 q 29 28 63 13 l -4 43 l -18 68 q 40 297 25 206 l 217 310 q 215 282 215 296 q 238 201 215 235 q 308 168 260 168 q 381 185 356 168 q 406 228 406 203 q 386 272 406 253 q 275 338 358 300 q 72 500 110 411 q 54 590 54 540 q 176 826 54 738 q 500 915 299 915 q 733 886 632 915 l 768 876 l 782 846 q 717 604 742 729 l 553 593 l 538 604 q 542 643 542 636 q 456 724 542 724 q 392 704 417 724 q 368 657 368 685 q 392 609 368 629 q 441 576 415 589 q 508 544 467 563 q 560 518 549 525 q 606 492 572 511 q 653 456 640 472 q 686 417 667 440 q 721 300 721 372 q 601 68 721 153 q 271 -17 481 -17 m 676 1058 l 667 1036 q 314 960 486 1003 l 288 978 l 258 1076 q 604 1215 401 1129 l 626 1208 l 676 1058 z "},"ś":{"ha":642,"x_min":-11,"x_max":669,"o":"m 228 257 q 119 317 161 283 q 62 382 76 350 q 47 454 47 414 q 151 642 47 572 q 429 713 254 713 q 657 682 540 713 l 669 656 q 615 467 636 564 l 468 457 l 454 467 q 457 489 457 488 q 390 549 457 549 q 345 537 363 549 q 328 506 328 525 q 406 442 328 475 q 547 374 513 399 q 618 236 618 319 q 516 53 618 119 q 235 -12 414 -12 q 115 -1 174 -12 q 1 35 57 11 l -11 56 q 38 232 25 167 l 196 243 q 194 217 194 236 q 214 172 194 197 q 274 146 233 146 q 338 181 338 146 q 312 219 338 203 q 258 246 286 235 q 228 257 229 257 m 603 858 l 593 836 q 240 760 413 803 l 214 778 l 185 876 q 531 1015 328 929 l 553 1008 l 603 858 z "},"Ŝ":{"ha":744,"x_min":-18,"x_max":782,"o":"m 271 -17 q 131 -2 200 -17 q 29 28 63 13 l -4 43 l -18 68 q 40 297 25 206 l 217 310 q 215 282 215 296 q 238 201 215 235 q 308 168 260 168 q 381 185 356 168 q 406 228 406 203 q 386 272 406 253 q 275 338 358 300 q 72 500 110 411 q 54 590 54 540 q 176 826 54 738 q 500 915 299 915 q 733 886 632 915 l 768 876 l 782 846 q 717 604 742 729 l 553 593 l 538 604 q 542 643 542 636 q 456 724 542 724 q 392 704 417 724 q 368 657 368 685 q 392 609 368 629 q 441 576 415 589 q 508 544 467 563 q 560 518 549 525 q 606 492 572 511 q 653 456 640 472 q 686 417 667 440 q 721 300 721 372 q 601 68 721 153 q 271 -17 481 -17 m 282 994 l 229 1081 q 482 1297 335 1167 l 519 1297 q 719 1081 625 1176 l 646 994 l 613 985 q 474 1081 575 1014 q 314 985 374 1025 l 282 994 z "},"ŝ":{"ha":642,"x_min":-11,"x_max":669,"o":"m 228 257 q 119 317 161 283 q 62 382 76 350 q 47 454 47 414 q 151 642 47 572 q 429 713 254 713 q 657 682 540 713 l 669 656 q 615 467 636 564 l 468 457 l 454 467 q 457 489 457 488 q 390 549 457 549 q 345 537 363 549 q 328 506 328 525 q 406 442 328 475 q 547 374 513 399 q 618 236 618 319 q 516 53 618 119 q 235 -12 414 -12 q 115 -1 174 -12 q 1 35 57 11 l -11 56 q 38 232 25 167 l 196 243 q 194 217 194 236 q 214 172 194 197 q 274 146 233 146 q 338 181 338 146 q 312 219 338 203 q 258 246 286 235 q 228 257 229 257 m 203 794 l 150 881 q 403 1097 256 967 l 440 1097 q 640 881 546 976 l 567 794 l 533 785 q 394 881 496 814 q 235 785 294 825 l 203 794 z "},"Ş":{"ha":744,"x_min":-18,"x_max":782,"o":"m 224 -175 q 279 -242 224 -242 q 322 -209 322 -242 q 215 -121 322 -176 l 253 -17 q 122 0 186 -15 q -4 43 58 15 l -18 68 q 40 297 25 206 l 217 310 q 215 282 215 296 q 238 201 215 235 q 308 168 260 168 q 381 185 356 168 q 406 228 406 203 q 386 272 406 253 q 275 338 358 300 q 72 500 110 411 q 54 590 54 540 q 176 826 54 738 q 500 915 299 915 q 733 886 632 915 l 768 876 l 782 846 q 717 604 742 729 l 553 593 l 538 604 q 542 643 542 636 q 456 724 542 724 q 392 704 417 724 q 368 657 368 685 q 392 609 368 629 q 441 576 415 589 q 508 544 467 563 q 560 518 549 525 q 606 492 572 511 q 653 456 640 472 q 686 417 667 440 q 721 300 721 372 q 621 84 721 167 q 343 -14 521 1 l 332 -51 q 424 -115 383 -78 q 465 -192 465 -151 q 399 -294 465 -251 q 242 -337 333 -337 q 164 -318 200 -337 q 128 -268 128 -299 q 213 -164 128 -237 l 224 -164 q 224 -175 224 -169 z "},"ş":{"ha":642,"x_min":-11,"x_max":669,"o":"m 186 -175 q 242 -242 186 -242 q 285 -209 285 -242 q 178 -121 285 -176 l 217 -12 q 107 1 161 -11 q 1 35 53 13 l -11 56 q 38 232 25 167 l 196 243 q 194 217 194 236 q 214 172 194 197 q 274 146 233 146 q 338 181 338 146 q 312 219 338 203 q 258 246 286 235 q 228 257 229 257 q 119 317 161 283 q 62 382 76 350 q 47 454 47 414 q 151 642 47 572 q 429 713 254 713 q 657 682 540 713 l 669 656 q 615 467 636 564 l 468 457 l 454 467 q 457 489 457 488 q 390 549 457 549 q 345 537 363 549 q 328 506 328 525 q 406 442 328 475 q 547 374 513 399 q 618 236 618 319 q 536 68 618 132 q 307 -8 454 4 l 294 -51 q 387 -115 346 -78 q 428 -192 428 -151 q 362 -294 428 -251 q 204 -337 296 -337 q 126 -318 163 -337 q 90 -268 90 -299 q 175 -164 90 -237 l 186 -164 q 186 -175 186 -169 z "},"Š":{"ha":744,"x_min":-18,"x_max":782,"o":"m 271 -17 q 131 -2 200 -17 q 29 28 63 13 l -4 43 l -18 68 q 40 297 25 206 l 217 310 q 215 282 215 296 q 238 201 215 235 q 308 168 260 168 q 381 185 356 168 q 406 228 406 203 q 386 272 406 253 q 275 338 358 300 q 72 500 110 411 q 54 590 54 540 q 176 826 54 738 q 500 915 299 915 q 733 886 632 915 l 768 876 l 782 846 q 717 604 742 729 l 553 593 l 538 604 q 542 643 542 636 q 456 724 542 724 q 392 704 417 724 q 368 657 368 685 q 392 609 368 629 q 441 576 415 589 q 508 544 467 563 q 560 518 549 525 q 606 492 572 511 q 653 456 640 472 q 686 417 667 440 q 721 300 721 372 q 601 68 721 153 q 271 -17 481 -17 m 722 1233 l 763 1147 q 497 956 639 1064 l 460 956 q 244 1147 347 1063 l 303 1233 l 336 1243 q 506 1172 368 1228 q 692 1243 575 1197 l 722 1233 z "},"š":{"ha":642,"x_min":-11,"x_max":681,"o":"m 228 257 q 119 317 161 283 q 62 382 76 350 q 47 454 47 414 q 151 642 47 572 q 429 713 254 713 q 657 682 540 713 l 669 656 q 615 467 636 564 l 468 457 l 454 467 q 457 489 457 488 q 390 549 457 549 q 345 537 363 549 q 328 506 328 525 q 406 442 328 475 q 547 374 513 399 q 618 236 618 319 q 516 53 618 119 q 235 -12 414 -12 q 115 -1 174 -12 q 1 35 57 11 l -11 56 q 38 232 25 167 l 196 243 q 194 217 194 236 q 214 172 194 197 q 274 146 233 146 q 338 181 338 146 q 312 219 338 203 q 258 246 286 235 q 228 257 229 257 m 640 1033 l 681 947 q 415 756 557 864 l 378 756 q 163 947 265 863 l 221 1033 l 254 1043 q 424 972 286 1028 q 610 1043 493 997 l 640 1033 z "},"Ţ":{"ha":803,"x_min":24,"x_max":867,"o":"m 278 -175 q 333 -242 278 -242 q 376 -209 376 -242 q 269 -121 376 -176 l 313 0 l 76 -12 l 103 115 q 215 145 186 122 q 251 233 243 168 l 313 731 q 242 696 263 731 q 199 542 222 661 l 24 531 q 79 894 58 736 l 100 914 l 260 899 l 683 899 l 851 914 l 867 894 l 829 542 l 656 531 q 658 632 658 586 q 653 697 658 678 q 594 731 643 731 q 524 210 524 263 q 538 142 524 158 q 583 126 551 126 l 653 131 l 658 122 l 631 -8 q 401 0 493 -3 l 386 -51 q 478 -115 438 -78 q 519 -192 519 -151 q 453 -294 519 -251 q 296 -337 388 -337 q 218 -318 254 -337 q 182 -268 182 -299 q 267 -164 182 -237 l 278 -164 q 278 -175 278 -169 z "},"ţ":{"ha":693,"x_min":19,"x_max":732,"o":"m 233 -175 q 289 -242 233 -242 q 332 -209 332 -242 q 225 -121 332 -176 l 268 0 l 65 -11 l 88 99 q 178 121 154 104 q 208 182 203 138 l 256 554 q 210 525 224 554 q 178 404 196 496 l 19 396 q 64 696 47 567 l 82 713 l 221 700 l 574 700 l 718 713 l 732 696 l 700 404 l 544 396 q 549 478 549 447 q 544 525 549 510 q 507 554 539 554 q 456 161 456 181 q 504 107 456 107 l 561 111 l 567 104 l 543 -7 q 357 0 435 -3 l 342 -51 q 434 -115 393 -78 q 475 -192 475 -151 q 409 -294 475 -251 q 251 -337 343 -337 q 174 -318 210 -337 q 138 -268 138 -299 q 222 -164 138 -237 l 233 -164 q 233 -175 233 -169 z "},"Ť":{"ha":803,"x_min":24,"x_max":867,"o":"m 656 531 q 658 632 658 586 q 653 697 658 678 q 594 731 643 731 q 524 210 524 263 q 538 142 524 158 q 583 126 551 126 l 653 131 l 658 122 l 631 -8 q 354 0 432 0 l 76 -12 l 103 115 q 215 145 186 122 q 251 233 243 168 l 313 731 q 242 696 263 731 q 199 542 222 661 l 24 531 q 79 894 58 736 l 100 914 l 260 899 l 683 899 l 851 914 l 867 894 l 829 542 l 656 531 m 726 1233 l 767 1147 q 501 956 643 1064 l 464 956 q 249 1147 351 1063 l 307 1233 l 340 1243 q 510 1172 372 1228 q 696 1243 579 1197 l 726 1233 z "},"ť":{"ha":693,"x_min":19,"x_max":732,"o":"m 544 396 q 549 478 549 447 q 544 525 549 510 q 507 554 539 554 q 456 161 456 181 q 504 107 456 107 l 561 111 l 567 104 l 543 -7 q 306 0 372 0 l 65 -11 l 88 99 q 178 121 154 104 q 208 182 203 138 l 256 554 q 210 525 224 554 q 178 404 196 496 l 19 396 q 64 696 47 567 l 82 713 l 221 700 l 574 700 l 718 713 l 732 696 l 700 404 l 544 396 m 643 1033 l 683 947 q 418 756 560 864 l 381 756 q 165 947 268 863 l 224 1033 l 257 1043 q 426 972 289 1028 q 613 1043 496 997 l 643 1033 z "},"Ŧ":{"ha":803,"x_min":24,"x_max":867,"o":"m 656 531 q 658 632 658 586 q 653 697 658 678 q 594 731 643 731 q 550 431 574 601 l 651 433 l 672 413 l 665 336 l 538 336 q 524 189 524 221 q 583 126 524 126 l 653 131 l 658 122 l 631 -8 q 354 0 432 0 l 76 -12 l 103 115 q 215 145 186 122 q 251 233 243 168 l 264 335 l 156 335 l 140 349 l 151 429 l 275 428 l 313 731 q 242 696 263 731 q 199 542 222 661 l 24 531 q 79 894 58 736 l 100 914 l 260 899 l 683 899 l 851 914 l 867 894 l 829 542 l 656 531 z "},"ŧ":{"ha":693,"x_min":19,"x_max":732,"o":"m 544 396 q 549 478 549 447 q 544 525 549 510 q 507 554 539 554 l 474 319 l 583 322 l 604 301 l 597 225 l 461 225 q 456 161 456 185 q 504 107 456 107 l 561 111 l 567 104 l 543 -7 q 306 0 372 0 l 65 -11 l 88 99 q 178 121 154 104 q 208 182 203 138 l 214 224 l 88 224 l 72 238 l 83 318 l 225 317 l 256 554 q 210 525 224 554 q 178 404 196 496 l 19 396 q 64 696 47 567 l 82 713 l 221 700 l 574 700 l 718 713 l 732 696 l 700 404 l 544 396 z "},"Ũ":{"ha":840,"x_min":53,"x_max":915,"o":"m 586 738 q 558 776 586 776 l 529 774 l 525 779 l 556 903 q 717 899 668 899 l 915 903 l 889 778 q 833 753 846 764 q 818 717 821 742 l 769 325 q 651 67 746 151 q 388 -17 556 -17 q 143 42 221 -17 q 65 221 65 100 q 95 484 65 243 q 125 740 125 725 q 121 766 125 756 q 94 776 117 776 l 56 774 l 53 779 l 82 903 q 324 899 215 899 l 507 904 l 478 775 q 426 756 442 771 q 406 707 410 740 l 349 306 q 346 260 346 279 q 428 160 346 160 q 500 188 476 160 q 533 282 524 215 q 586 738 586 725 m 425 1235 q 529 1211 450 1235 q 625 1188 608 1188 q 710 1247 656 1188 l 728 1268 l 750 1268 l 824 1193 l 821 1171 l 692 1011 l 668 1006 q 564 1029 643 1006 q 467 1053 485 1053 q 425 1033 450 1053 q 365 972 400 1013 l 343 972 l 269 1047 l 272 1069 l 401 1229 l 425 1235 z "},"ũ":{"ha":710,"x_min":40,"x_max":758,"o":"m 472 568 q 450 596 472 596 l 429 594 l 425 599 l 451 704 q 586 700 546 700 l 758 703 l 736 596 q 693 576 703 585 q 681 551 683 568 l 644 258 q 547 53 625 119 q 326 -12 468 -12 q 119 32 185 -12 q 51 169 53 76 q 74 367 51 179 q 97 568 97 556 q 94 588 97 581 q 74 596 92 596 l 42 594 l 40 599 l 64 704 q 275 700 179 700 l 432 703 l 407 594 q 350 543 354 589 q 303 206 303 213 q 360 138 303 138 q 409 155 393 138 q 431 217 425 172 q 472 568 472 563 m 332 1035 q 436 1011 357 1035 q 532 988 515 988 q 617 1047 563 988 l 635 1068 l 657 1068 l 731 993 l 728 971 l 599 811 l 575 806 q 471 829 550 806 q 374 853 392 853 q 332 833 357 853 q 272 772 307 813 l 250 772 l 176 847 l 179 869 l 308 1029 l 332 1035 z "},"Ū":{"ha":840,"x_min":53,"x_max":915,"o":"m 586 738 q 558 776 586 776 l 529 774 l 525 779 l 556 903 q 717 899 668 899 l 915 903 l 889 778 q 833 753 846 764 q 818 717 821 742 l 769 325 q 651 67 746 151 q 388 -17 556 -17 q 143 42 221 -17 q 65 221 65 100 q 95 484 65 243 q 125 740 125 725 q 121 766 125 756 q 94 776 117 776 l 56 774 l 53 779 l 82 903 q 324 899 215 899 l 507 904 l 478 775 q 426 756 442 771 q 406 707 410 740 l 349 306 q 346 260 346 279 q 428 160 346 160 q 500 188 476 160 q 533 282 524 215 q 586 738 586 725 m 753 1143 l 765 1118 l 721 967 l 353 964 l 333 985 l 378 1136 q 585 1135 506 1135 l 753 1143 z "},"ū":{"ha":710,"x_min":40,"x_max":758,"o":"m 472 568 q 450 596 472 596 l 429 594 l 425 599 l 451 704 q 586 700 546 700 l 758 703 l 736 596 q 693 576 703 585 q 681 551 683 568 l 644 258 q 547 53 625 119 q 326 -12 468 -12 q 119 32 185 -12 q 51 169 53 76 q 74 367 51 179 q 97 568 97 556 q 94 588 97 581 q 74 596 92 596 l 42 594 l 40 599 l 64 704 q 275 700 179 700 l 432 703 l 407 594 q 350 543 354 589 q 303 206 303 213 q 360 138 303 138 q 409 155 393 138 q 431 217 425 172 q 472 568 472 563 m 657 943 l 669 918 l 625 767 l 257 764 l 238 785 l 282 936 q 489 935 410 935 l 657 943 z "},"Ŭ":{"ha":840,"x_min":53,"x_max":915,"o":"m 586 738 q 558 776 586 776 l 529 774 l 525 779 l 556 903 q 717 899 668 899 l 915 903 l 889 778 q 833 753 846 764 q 818 717 821 742 l 769 325 q 651 67 746 151 q 388 -17 556 -17 q 143 42 221 -17 q 65 221 65 100 q 95 484 65 243 q 125 740 125 725 q 121 766 125 756 q 94 776 117 776 l 56 774 l 53 779 l 82 903 q 324 899 215 899 l 507 904 l 478 775 q 426 756 442 771 q 406 707 410 740 l 349 306 q 346 260 346 279 q 428 160 346 160 q 500 188 476 160 q 533 282 524 215 q 586 738 586 725 m 389 1257 q 528 1160 418 1160 q 690 1257 639 1160 l 728 1247 l 772 1161 q 670 1026 738 1081 q 506 972 603 972 q 353 1026 408 972 q 285 1161 299 1081 l 350 1247 l 389 1257 z "},"ŭ":{"ha":710,"x_min":40,"x_max":758,"o":"m 472 568 q 450 596 472 596 l 429 594 l 425 599 l 451 704 q 586 700 546 700 l 758 703 l 736 596 q 693 576 703 585 q 681 551 683 568 l 644 258 q 547 53 625 119 q 326 -12 468 -12 q 119 32 185 -12 q 51 169 53 76 q 74 367 51 179 q 97 568 97 556 q 94 588 97 581 q 74 596 92 596 l 42 594 l 40 599 l 64 704 q 275 700 179 700 l 432 703 l 407 594 q 350 543 354 589 q 303 206 303 213 q 360 138 303 138 q 409 155 393 138 q 431 217 425 172 q 472 568 472 563 m 444 939 q 608 1036 554 939 l 644 1026 l 689 940 q 587 806 654 860 q 422 751 519 751 q 270 806 325 751 q 201 940 215 860 l 268 1026 l 307 1036 q 357 964 319 989 q 444 939 394 939 z "},"Ů":{"ha":840,"x_min":53,"x_max":915,"o":"m 586 738 q 558 776 586 776 l 529 774 l 525 779 l 556 903 q 717 899 668 899 l 915 903 l 889 778 q 833 753 846 764 q 818 717 821 742 l 769 325 q 651 67 746 151 q 388 -17 556 -17 q 143 42 221 -17 q 65 221 65 100 q 95 484 65 243 q 125 740 125 725 q 121 766 125 756 q 94 776 117 776 l 56 774 l 53 779 l 82 903 q 324 899 215 899 l 507 904 l 478 775 q 426 756 442 771 q 406 707 410 740 l 349 306 q 346 260 346 279 q 428 160 346 160 q 500 188 476 160 q 533 282 524 215 q 586 738 586 725 m 547 1044 q 583 1056 567 1044 q 600 1097 600 1068 q 553 1139 600 1139 q 501 1088 501 1139 q 547 1044 501 1044 m 697 1112 q 697 1082 697 1112 q 649 999 697 1051 q 534 947 601 947 q 435 981 467 947 q 404 1078 404 1014 q 452 1191 404 1143 q 569 1239 500 1239 q 667 1206 638 1239 q 697 1112 697 1172 z "},"ů":{"ha":710,"x_min":40,"x_max":758,"o":"m 472 568 q 450 596 472 596 l 429 594 l 425 599 l 451 704 q 586 700 546 700 l 758 703 l 736 596 q 693 576 703 585 q 681 551 683 568 l 644 258 q 547 53 625 119 q 326 -12 468 -12 q 119 32 185 -12 q 51 169 53 76 q 74 367 51 179 q 97 568 97 556 q 94 588 97 581 q 74 596 92 596 l 42 594 l 40 599 l 64 704 q 275 700 179 700 l 432 703 l 407 594 q 350 543 354 589 q 303 206 303 213 q 360 138 303 138 q 409 155 393 138 q 431 217 425 172 q 472 568 472 563 m 453 844 q 489 856 472 844 q 506 897 506 868 q 458 939 506 939 q 407 888 407 939 q 453 844 407 844 m 603 912 q 603 882 603 912 q 555 799 603 851 q 440 747 507 747 q 341 781 372 747 q 310 878 310 814 q 358 991 310 943 q 474 1039 406 1039 q 573 1006 543 1039 q 603 912 603 972 z "},"Ű":{"ha":840,"x_min":53,"x_max":915,"o":"m 586 738 q 558 776 586 776 l 529 774 l 525 779 l 556 903 q 717 899 668 899 l 915 903 l 889 778 q 833 753 846 764 q 818 717 821 742 l 769 325 q 651 67 746 151 q 388 -17 556 -17 q 143 42 221 -17 q 65 221 65 100 q 95 484 65 243 q 125 740 125 725 q 121 766 125 756 q 94 776 117 776 l 56 774 l 53 779 l 82 903 q 324 899 215 899 l 507 904 l 478 775 q 426 756 442 771 q 406 707 410 740 l 349 306 q 346 260 346 279 q 428 160 346 160 q 500 188 476 160 q 533 282 524 215 q 586 738 586 725 m 558 1110 l 558 1089 q 318 936 435 1015 l 292 943 l 239 1010 l 446 1221 l 467 1222 l 558 1110 m 833 1110 l 833 1089 q 593 936 710 1015 l 567 943 l 514 1010 l 721 1221 l 742 1222 l 833 1110 z "},"ű":{"ha":710,"x_min":40,"x_max":758,"o":"m 472 568 q 450 596 472 596 l 429 594 l 425 599 l 451 704 q 586 700 546 700 l 758 703 l 736 596 q 693 576 703 585 q 681 551 683 568 l 644 258 q 547 53 625 119 q 326 -12 468 -12 q 119 32 185 -12 q 51 169 53 76 q 74 367 51 179 q 97 568 97 556 q 94 588 97 581 q 74 596 92 596 l 42 594 l 40 599 l 64 704 q 275 700 179 700 l 432 703 l 407 594 q 350 543 354 589 q 303 206 303 213 q 360 138 303 138 q 409 155 393 138 q 431 217 425 172 q 472 568 472 563 m 468 910 l 468 889 q 228 736 344 815 l 201 743 l 149 810 l 356 1021 l 376 1022 l 468 910 m 743 910 l 743 889 q 503 736 619 815 l 476 743 l 424 810 l 631 1021 l 651 1022 l 743 910 z "},"Ų":{"ha":840,"x_min":53,"x_max":915,"o":"m 586 738 q 558 776 586 776 l 529 774 l 525 779 l 556 903 q 717 899 668 899 l 915 903 l 889 778 q 833 753 846 764 q 818 717 821 742 l 769 325 q 640 49 749 172 q 503 -168 503 -107 q 515 -202 503 -189 q 547 -215 528 -215 q 640 -181 579 -215 l 669 -236 q 517 -336 583 -311 q 397 -307 440 -336 q 353 -227 353 -278 q 380 -129 353 -176 q 478 -8 407 -82 q 381 -17 433 -17 q 143 42 221 -17 q 65 221 65 100 q 95 484 65 243 q 125 740 125 725 q 121 766 125 756 q 94 776 117 776 l 56 774 l 53 779 l 82 903 q 324 899 215 899 l 507 904 l 478 775 q 426 756 442 771 q 406 707 410 740 l 349 306 q 346 260 346 276 q 428 160 346 160 q 500 188 476 160 q 533 282 524 215 q 586 738 586 725 z "},"ų":{"ha":710,"x_min":42,"x_max":761,"o":"m 431 -128 q 472 -162 431 -162 q 542 -135 494 -162 l 568 -182 q 440 -261 496 -242 q 338 -238 375 -261 q 300 -176 300 -215 q 322 -101 300 -136 q 401 -7 343 -65 q 324 -12 369 -12 q 122 32 188 -12 q 54 169 56 76 q 77 367 54 179 q 100 568 100 556 q 97 588 100 581 q 76 596 94 596 l 44 594 l 42 599 l 67 704 q 278 700 182 700 l 433 703 l 408 594 q 351 543 357 589 q 306 206 306 213 q 363 138 306 138 q 412 155 396 138 q 433 217 428 172 q 475 565 475 554 q 453 596 475 596 l 432 594 l 428 599 l 454 704 q 589 700 549 700 l 761 703 l 739 596 q 696 577 706 585 q 683 551 686 569 l 647 258 q 539 36 631 136 q 431 -128 431 -81 z "},"Ŵ":{"ha":1349,"x_min":50,"x_max":1428,"o":"m 954 233 q 1058 540 999 353 q 1118 747 1118 728 q 1112 769 1118 765 q 1083 774 1106 774 l 1051 774 l 1043 788 l 1068 903 q 1268 899 1190 899 l 1428 900 l 1404 779 q 1369 756 1381 771 q 1342 703 1357 742 l 1081 6 l 706 -18 l 697 378 l 678 378 l 557 6 l 182 -18 q 115 685 129 535 q 94 753 106 733 q 58 778 82 772 l 50 792 l 76 901 q 254 899 183 899 l 506 906 l 514 893 l 490 776 q 419 753 439 768 q 400 706 400 738 l 407 233 l 436 233 q 592 697 533 506 q 601 735 599 728 q 592 769 604 761 q 533 778 579 778 l 525 792 l 551 901 q 772 899 692 899 l 1022 906 l 1032 893 l 1008 776 q 935 756 954 771 q 917 706 917 742 l 925 233 l 954 233 m 844 1261 q 932 1185 844 1265 q 1061 1069 1019 1106 l 1001 983 l 968 974 q 799 1044 907 1001 q 613 974 729 1019 l 582 983 l 543 1069 q 807 1261 654 1144 l 844 1261 z "},"ŵ":{"ha":1150,"x_min":43,"x_max":1199,"o":"m 589 267 l 571 267 l 488 4 l 146 -14 q 93 524 100 438 q 76 578 85 564 q 50 597 68 593 l 43 610 l 65 703 q 215 700 154 700 l 431 704 l 438 694 l 418 594 q 365 519 383 589 q 347 403 347 449 l 347 196 l 374 196 q 489 546 450 410 l 501 583 q 456 597 500 597 q 447 597 451 597 l 440 610 l 463 703 q 653 700 582 700 l 867 704 l 875 694 l 856 594 q 799 578 814 590 q 783 539 783 567 l 785 196 l 811 196 q 887 422 844 283 q 929 574 929 560 q 926 591 929 589 q 906 593 922 593 l 883 593 l 875 606 l 896 703 q 1064 700 1000 700 l 1199 701 l 1179 599 q 1151 579 1161 592 q 1131 539 1142 567 l 931 4 l 589 -14 l 589 267 m 715 1061 q 803 985 715 1065 q 932 869 890 906 l 872 783 l 839 774 q 669 844 778 801 q 483 774 600 819 l 453 783 l 414 869 q 678 1061 525 944 l 715 1061 m 500 575 l 500 569 l 500 575 z "},"Ŷ":{"ha":903,"x_min":56,"x_max":969,"o":"m 461 740 q 507 538 461 694 l 526 538 l 596 696 q 621 760 621 742 q 574 779 621 779 l 571 788 l 596 897 l 811 897 l 965 903 l 969 892 l 944 771 q 775 596 843 714 l 622 343 q 586 214 596 294 q 583 178 583 197 q 594 142 583 158 q 643 126 604 126 l 713 131 l 718 122 l 690 -8 q 407 0 486 0 l 128 -12 l 154 115 q 272 143 242 122 q 308 225 301 164 q 313 268 313 258 q 289 372 313 314 l 178 649 q 61 765 150 722 l 56 774 l 85 900 q 290 897 246 897 l 536 907 l 544 892 l 518 778 q 461 740 461 778 m 617 1261 q 704 1185 617 1265 q 833 1069 792 1106 l 774 983 l 740 974 q 571 1044 679 1001 q 385 974 501 1019 l 354 983 l 315 1069 q 579 1261 426 1144 l 617 1261 z "},"ŷ":{"ha":789,"x_min":50,"x_max":822,"o":"m 501 697 l 688 699 l 819 703 l 822 694 l 801 590 q 665 456 715 538 l 540 258 q 513 169 513 206 q 522 120 513 133 q 563 107 532 107 l 621 111 l 626 104 l 603 -7 q 356 0 424 0 l 111 -10 l 133 99 q 233 118 207 103 q 265 190 258 133 q 267 217 267 197 q 246 283 267 238 l 149 501 q 56 586 131 540 l 50 592 l 75 701 q 251 699 217 699 l 461 706 l 469 693 l 447 596 q 443 596 446 596 q 406 569 406 596 q 438 433 406 542 l 456 433 l 499 536 q 519 586 519 574 q 483 597 519 599 l 481 604 l 501 697 m 529 1061 q 617 985 529 1065 q 746 869 704 906 l 686 783 l 653 774 q 483 844 592 801 q 297 774 414 819 l 267 783 l 228 869 q 492 1061 339 944 l 529 1061 z "},"Ÿ":{"ha":903,"x_min":56,"x_max":969,"o":"m 461 740 q 507 538 461 694 l 526 538 l 596 696 q 621 760 621 742 q 574 779 621 779 l 571 788 l 596 897 l 811 897 l 965 903 l 969 892 l 944 771 q 775 596 843 714 l 622 343 q 586 214 596 294 q 583 178 583 197 q 594 142 583 158 q 643 126 604 126 l 713 131 l 718 122 l 690 -8 q 407 0 486 0 l 128 -12 l 154 115 q 272 143 242 122 q 308 225 301 164 q 313 268 313 258 q 289 372 313 314 l 178 649 q 61 765 150 722 l 56 774 l 85 900 q 290 897 246 897 l 536 907 l 544 892 l 518 778 q 461 740 461 778 m 688 951 q 589 1044 589 951 q 626 1145 589 1107 q 717 1183 663 1183 q 821 1089 821 1183 q 784 990 821 1028 q 688 951 747 951 m 426 951 q 329 1044 329 951 q 366 1145 329 1107 q 456 1183 403 1183 q 560 1089 560 1183 q 523 990 560 1028 q 426 951 486 951 z "},"Ź":{"ha":803,"x_min":-29,"x_max":871,"o":"m 738 26 l 706 -4 l 124 4 l 11 -10 l -29 71 l 490 753 l 392 739 q 289 699 313 728 q 251 581 265 671 l 74 568 q 135 901 115 772 l 151 917 l 394 901 l 846 901 l 871 826 q 343 151 681 600 l 481 172 q 581 227 546 182 q 635 369 615 272 l 813 382 q 738 26 757 165 m 724 1058 l 714 1036 q 361 960 533 1003 l 335 978 l 306 1076 q 651 1215 449 1129 l 674 1208 l 724 1058 z "},"ź":{"ha":690,"x_min":-22,"x_max":736,"o":"m 631 22 l 604 -3 l 110 3 l 15 -8 l -22 60 l 397 575 l 329 564 q 248 533 265 554 q 221 444 231 513 l 61 435 q 110 703 94 601 l 124 714 l 326 703 l 713 704 l 736 640 q 311 131 543 426 l 411 149 q 492 192 465 158 q 532 297 518 225 l 692 308 q 631 22 646 131 m 642 858 l 632 836 q 279 760 451 803 l 253 778 l 224 876 q 569 1015 367 929 l 592 1008 l 642 858 z "},"Ż":{"ha":803,"x_min":-29,"x_max":871,"o":"m 738 26 l 706 -4 l 124 4 l 11 -10 l -29 71 l 490 753 l 392 739 q 289 699 313 728 q 251 581 265 671 l 74 568 q 135 901 115 772 l 151 917 l 394 901 l 846 901 l 871 826 q 343 151 681 600 l 481 172 q 581 227 546 182 q 635 369 615 272 l 813 382 q 738 26 757 165 m 683 1113 q 640 994 683 1039 q 533 949 596 949 q 410 1060 410 949 q 453 1180 410 1135 q 561 1225 497 1225 q 683 1113 683 1225 z "},"ż":{"ha":690,"x_min":-22,"x_max":736,"o":"m 631 22 l 604 -3 l 110 3 l 15 -8 l -22 60 l 397 575 l 329 564 q 248 533 265 554 q 221 444 231 513 l 61 435 q 110 703 94 601 l 124 714 l 326 703 l 713 704 l 736 640 q 311 131 543 426 l 411 149 q 492 192 465 158 q 532 297 518 225 l 692 308 q 631 22 646 131 m 596 913 q 552 794 596 839 q 444 749 508 749 q 322 860 322 749 q 366 980 322 935 q 472 1025 410 1025 q 596 913 596 1025 z "},"Ž":{"ha":803,"x_min":-29,"x_max":871,"o":"m 738 26 l 706 -4 l 124 4 l 11 -10 l -29 71 l 490 753 l 392 739 q 289 699 313 728 q 251 581 265 671 l 74 568 q 135 901 115 772 l 151 917 l 394 901 l 846 901 l 871 826 q 343 151 681 600 l 481 172 q 581 227 546 182 q 635 369 615 272 l 813 382 q 738 26 757 165 m 769 1233 l 810 1147 q 544 956 686 1064 l 507 956 q 292 1147 394 1063 l 350 1233 l 383 1243 q 553 1172 415 1228 q 739 1243 622 1197 l 769 1233 z "},"ž":{"ha":690,"x_min":-22,"x_max":736,"o":"m 631 22 l 604 -3 l 110 3 l 15 -8 l -22 60 l 397 575 l 329 564 q 248 533 265 554 q 221 444 231 513 l 61 435 q 110 703 94 601 l 124 714 l 326 703 l 713 704 l 736 640 q 311 131 543 426 l 411 149 q 492 192 465 158 q 532 297 518 225 l 692 308 q 631 22 646 131 m 681 1033 l 721 947 q 456 756 597 864 l 418 756 q 203 947 306 863 l 261 1033 l 294 1043 q 464 972 326 1028 q 650 1043 533 997 l 681 1033 z "},"ƒ":{"ha":615,"x_min":-39,"x_max":701,"o":"m 197 533 q 316 734 197 638 q 571 831 435 831 q 662 821 622 831 q 701 799 701 811 q 681 715 701 778 q 646 629 660 651 l 621 625 q 515 681 556 681 q 457 656 475 681 q 435 572 439 631 l 429 513 l 588 513 l 594 501 l 581 406 l 422 406 l 410 138 q 315 -117 401 -6 q 96 -228 229 -228 q 6 -205 50 -228 q -39 -156 -39 -182 q -18 -74 -39 -131 q 22 7 3 -17 l 47 7 q 75 -56 53 -32 q 131 -81 97 -81 q 179 -48 164 -81 q 194 64 194 -15 l 193 349 q 167 394 190 382 q 75 406 143 406 l 71 414 l 82 496 l 197 514 l 197 533 z "},"Ǻ":{"ha":918,"x_min":-46,"x_max":897,"o":"m 524 168 l 524 247 q 422 250 433 250 l 315 243 q 289 144 289 154 q 321 124 289 124 l 358 124 l 368 110 l 343 -6 q 135 -1 217 -1 l -46 -3 l -22 118 q 54 194 28 131 l 347 892 l 718 914 l 738 897 q 824 213 804 363 q 844 144 829 165 q 889 119 860 124 l 897 106 l 872 -4 q 681 -1 756 -1 l 419 -8 l 410 4 l 432 121 q 507 136 490 128 q 524 168 524 144 m 447 418 q 515 421 457 418 l 501 664 l 471 664 l 381 418 l 447 418 m 551 1004 q 583 1015 568 1004 q 599 1051 599 1025 q 557 1089 599 1089 q 510 1043 510 1089 q 551 1004 510 1004 m 686 1065 q 686 1038 686 1065 q 643 964 686 1011 q 540 917 600 917 q 451 947 479 917 q 422 1034 422 976 q 465 1135 422 1092 q 570 1179 508 1179 q 659 1149 632 1179 q 686 1065 686 1118 m 764 1271 l 756 1250 q 438 1182 593 1221 l 414 1199 l 388 1286 l 699 1411 l 719 1406 l 764 1271 z "},"ǻ":{"ha":797,"x_min":-29,"x_max":767,"o":"m 439 138 l 442 182 l 363 183 q 278 179 363 183 q 263 118 263 122 q 285 106 263 106 l 311 106 l 321 93 l 300 -4 q 124 -1 192 -1 l -29 -1 l -10 100 q 49 154 29 111 l 282 694 l 621 713 l 638 697 q 707 188 697 267 q 758 101 717 108 l 767 89 l 744 -3 q 581 -1 646 -1 l 357 -6 l 349 4 l 367 104 q 426 115 414 110 q 439 138 439 121 m 592 878 q 592 852 592 878 q 549 778 592 825 q 445 731 506 731 q 356 760 385 731 q 328 848 328 790 q 371 949 328 906 q 476 993 414 993 q 565 963 538 993 q 592 878 592 932 m 660 1071 l 651 1050 q 333 982 489 1021 l 310 999 l 283 1086 l 594 1211 l 615 1206 l 660 1071 m 383 331 q 435 332 410 331 l 426 504 l 399 504 l 333 331 l 383 331 m 457 818 q 489 828 474 818 q 504 865 504 839 q 463 903 504 903 q 415 857 415 903 q 457 818 415 818 z "},"Ǽ":{"ha":1272,"x_min":-33,"x_max":1242,"o":"m 292 140 q 303 126 292 128 q 364 124 315 124 l 368 110 l 344 -6 q 75 -1 336 -1 l -33 -3 l -22 118 q 64 194 31 131 l 343 738 q 313 776 342 776 l 278 774 l 263 793 l 289 903 q 816 900 515 899 q 1218 915 1117 901 l 1233 893 q 1168 617 1192 747 l 975 604 q 985 678 985 649 q 960 720 985 708 q 865 732 935 732 q 818 699 818 732 l 826 517 l 924 535 l 1064 571 l 1085 547 l 1050 386 l 917 369 l 831 353 l 832 251 q 893 158 833 158 q 995 185 967 158 q 1047 307 1024 213 l 1226 319 l 1242 299 q 1168 13 1200 164 l 1144 -10 q 653 0 922 0 l 419 -8 l 411 4 l 433 121 q 508 139 489 126 q 535 225 535 154 l 539 304 l 438 286 l 331 254 q 292 140 292 146 m 422 450 l 478 456 l 546 468 l 551 664 l 521 664 l 422 450 m 943 1158 l 940 1135 q 647 972 790 1057 l 617 982 l 560 1067 l 819 1299 l 843 1299 l 943 1158 z "},"ǽ":{"ha":1094,"x_min":-19,"x_max":1057,"o":"m 267 115 q 328 106 267 106 l 324 93 l 304 -4 q 72 -1 299 -1 l -19 -1 l -10 101 q 60 154 39 114 l 275 564 q 250 597 274 597 l 222 594 l 208 611 l 231 703 q 1033 713 865 694 l 1047 694 q 994 474 1014 575 l 821 463 q 829 517 829 496 q 810 548 829 539 q 747 557 790 557 q 703 533 703 557 l 713 410 l 786 424 l 904 454 l 924 433 l 894 297 l 782 282 l 717 269 l 718 208 q 765 136 719 136 q 841 158 819 136 q 882 249 863 179 l 1043 258 l 1057 240 q 996 11 1022 133 l 975 -7 q 558 0 721 0 l 361 -6 l 353 4 l 372 103 q 432 115 418 108 q 451 176 451 125 l 456 226 l 375 211 l 288 183 q 272 131 275 136 q 267 115 267 119 m 813 958 l 810 935 q 517 772 660 857 l 486 782 l 429 867 l 689 1099 l 713 1099 l 813 958 m 368 353 l 408 357 l 461 367 l 465 504 l 438 504 l 368 353 z "},"Ǿ":{"ha":879,"x_min":13,"x_max":892,"o":"m 25 356 q 151 770 25 625 q 517 915 276 915 q 658 896 593 915 l 754 1044 l 889 969 l 892 951 l 800 813 q 886 553 886 718 q 758 133 886 283 q 393 -17 631 -17 q 260 0 319 -17 l 150 -162 l 18 -86 l 13 -72 l 118 83 q 25 356 25 181 m 431 158 q 534 251 503 158 q 565 558 565 344 q 475 725 565 725 q 374 631 406 725 q 343 325 343 538 q 431 158 343 158 m 699 1072 l 689 1050 q 336 974 508 1017 l 310 992 l 281 1090 q 626 1229 424 1143 l 649 1222 l 699 1072 z "},"ǿ":{"ha":744,"x_min":-6,"x_max":776,"o":"m 22 283 q 426 714 22 714 q 544 700 494 714 l 642 832 l 775 756 l 776 740 l 683 614 q 738 426 738 544 q 635 101 738 214 q 333 -12 532 -12 q 229 -1 281 -12 l 129 -135 l -1 -56 l -6 -44 l 88 78 q 22 283 22 151 m 561 904 l 551 882 q 199 806 371 849 l 172 824 l 143 922 q 489 1061 286 975 l 511 1054 l 561 904 m 363 138 q 432 201 413 138 q 451 380 451 265 q 438 522 451 494 q 393 550 425 550 q 326 486 346 550 q 307 308 307 422 q 319 165 307 193 q 363 138 332 138 z "},"Ș":{"ha":744,"x_min":-18,"x_max":782,"o":"m 271 -17 q 131 -2 200 -17 q 29 28 63 13 l -4 43 l -18 68 q 40 297 25 206 l 217 310 q 215 282 215 296 q 238 201 215 235 q 308 168 260 168 q 381 185 356 168 q 406 228 406 203 q 386 272 406 253 q 275 338 358 300 q 72 500 110 411 q 54 590 54 540 q 176 826 54 738 q 500 915 299 915 q 733 886 632 915 l 768 876 l 782 846 q 717 604 742 729 l 553 593 l 538 604 q 542 643 542 636 q 456 724 542 724 q 392 704 417 724 q 368 657 368 685 q 392 609 368 629 q 441 576 415 589 q 508 544 467 563 q 560 518 549 525 q 606 492 572 511 q 653 456 640 472 q 686 417 667 440 q 721 300 721 372 q 601 68 721 153 q 271 -17 481 -17 m 154 -108 q 291 -47 233 -47 q 381 -85 349 -47 q 414 -192 414 -124 q 351 -340 414 -261 q 182 -479 289 -418 l 101 -415 l 101 -381 q 166 -311 142 -351 q 190 -222 190 -271 q 150 -128 190 -172 l 154 -108 z "},"ș":{"ha":642,"x_min":-11,"x_max":669,"o":"m 228 257 q 119 317 161 283 q 62 382 76 350 q 47 454 47 414 q 151 642 47 572 q 429 713 254 713 q 657 682 540 713 l 669 656 q 615 467 636 564 l 468 457 l 454 467 q 457 489 457 488 q 390 549 457 549 q 345 537 363 549 q 328 506 328 525 q 406 442 328 475 q 547 374 513 399 q 618 236 618 319 q 516 53 618 119 q 235 -12 414 -12 q 115 -1 174 -12 q 1 35 57 11 l -11 56 q 38 232 25 167 l 196 243 q 194 217 194 236 q 214 172 194 197 q 274 146 233 146 q 338 181 338 146 q 312 219 338 203 q 258 246 286 235 q 228 257 229 257 m 126 -108 q 263 -47 206 -47 q 353 -85 321 -47 q 386 -192 386 -124 q 324 -340 386 -261 q 154 -479 261 -418 l 74 -415 l 74 -381 q 138 -311 114 -351 q 163 -222 163 -271 q 122 -128 163 -172 l 126 -108 z "},"Ț":{"ha":803,"x_min":24,"x_max":867,"o":"m 656 531 q 658 632 658 586 q 653 697 658 678 q 594 731 643 731 q 524 210 524 263 q 538 142 524 158 q 583 126 551 126 l 653 131 l 658 122 l 631 -8 q 354 0 432 0 l 76 -12 l 103 115 q 215 145 186 122 q 251 233 243 168 l 313 731 q 242 696 263 731 q 199 542 222 661 l 24 531 q 79 894 58 736 l 100 914 l 260 899 l 683 899 l 851 914 l 867 894 l 829 542 l 656 531 m 194 -108 q 331 -47 274 -47 q 422 -85 389 -47 q 454 -192 454 -124 q 392 -340 454 -261 q 222 -479 329 -418 l 142 -415 l 142 -381 q 206 -311 182 -351 q 231 -222 231 -271 q 190 -128 231 -172 l 194 -108 z "},"ț":{"ha":693,"x_min":19,"x_max":732,"o":"m 544 396 q 549 478 549 447 q 544 525 549 510 q 507 554 539 554 q 456 161 456 181 q 504 107 456 107 l 561 111 l 567 104 l 543 -7 q 306 0 372 0 l 65 -11 l 88 99 q 178 121 154 104 q 208 182 203 138 l 256 554 q 210 525 224 554 q 178 404 196 496 l 19 396 q 64 696 47 567 l 82 713 l 221 700 l 574 700 l 718 713 l 732 696 l 700 404 l 544 396 m 160 -108 q 297 -47 239 -47 q 387 -85 354 -47 q 419 -192 419 -124 q 357 -340 419 -261 q 188 -479 294 -418 l 107 -415 l 107 -381 q 172 -311 147 -351 q 196 -222 196 -271 q 156 -128 196 -172 l 160 -108 z "},"ȷ":{"ha":401,"x_min":-81,"x_max":457,"o":"m 69 146 q 119 569 119 557 q 116 589 119 581 q 90 597 113 597 l 53 594 l 43 613 l 63 700 l 228 701 l 457 708 l 433 599 q 392 582 401 592 q 378 543 383 572 q 307 86 343 376 q 210 -81 292 -17 q -36 -181 128 -146 l -81 -126 l -76 -108 q 28 -8 0 -56 q 69 146 56 39 z "},"ˆ":{"ha":536,"x_min":85,"x_max":575,"o":"m 138 753 l 85 839 q 338 1056 190 925 l 375 1056 q 575 839 481 935 l 501 753 l 468 743 q 329 839 431 772 q 169 743 229 783 l 138 753 z "},"ˇ":{"ha":536,"x_min":96,"x_max":585,"o":"m 96 932 l 169 1018 l 203 1028 q 340 932 246 993 q 501 1028 440 988 l 532 1018 l 585 932 q 332 715 479 846 l 294 715 q 96 932 190 836 z "},"˘":{"ha":536,"x_min":99,"x_max":586,"o":"m 203 1028 q 342 931 232 931 q 504 1028 453 931 l 542 1018 l 586 932 q 484 797 551 851 q 319 743 417 743 q 167 797 222 743 q 99 932 113 851 l 164 1018 l 203 1028 z "},"˙":{"ha":536,"x_min":200,"x_max":474,"o":"m 474 918 q 430 799 474 844 q 322 754 386 754 q 200 865 200 754 q 244 985 200 940 q 350 1031 288 1031 q 474 918 474 1031 z "},"˚":{"ha":536,"x_min":192,"x_max":485,"o":"m 335 850 q 371 862 354 850 q 388 903 388 874 q 342 944 388 944 q 289 893 289 944 q 335 850 289 850 m 485 917 q 485 887 485 917 q 438 805 485 857 q 322 753 390 753 q 223 786 254 753 q 192 883 192 819 q 240 996 192 947 q 356 1044 288 1044 q 455 1011 425 1044 q 485 917 485 978 z "},"˛":{"ha":539,"x_min":35,"x_max":351,"o":"m 199 -336 q 78 -306 121 -336 q 35 -224 35 -276 q 76 -113 35 -171 q 243 58 117 -56 l 338 58 q 213 -95 242 -53 q 185 -163 185 -137 q 197 -202 185 -189 q 228 -215 210 -215 q 322 -181 261 -215 l 351 -236 q 199 -336 265 -311 z "},"˜":{"ha":536,"x_min":58,"x_max":613,"o":"m 214 992 q 318 968 239 992 q 414 944 397 944 q 499 1006 444 944 l 517 1025 l 539 1025 l 613 950 l 610 928 l 481 768 l 457 763 q 353 786 432 763 q 256 810 274 810 q 214 790 239 810 q 154 729 189 769 l 132 729 l 58 804 l 61 826 l 190 986 l 214 992 z "},"˝":{"ha":536,"x_min":-11,"x_max":506,"o":"m 275 960 l 279 940 q 83 733 178 839 l 57 733 l -11 786 l 139 1040 l 158 1047 l 275 960 m 501 960 l 506 940 q 310 733 404 839 l 283 733 l 215 786 l 365 1040 l 385 1047 l 501 960 z "},"̣":{"ha":310,"x_min":-46,"x_max":228,"o":"m 228 -158 q 184 -277 228 -232 q 78 -322 140 -322 q -46 -211 -46 -322 q -2 -91 -46 -136 q 106 -46 42 -46 q 228 -158 228 -46 z "},"Δ":{"ha":919,"x_min":-22,"x_max":865,"o":"m -7 0 l -22 18 l 347 892 l 721 915 l 735 915 q 865 10 794 415 l 851 0 l -7 0 m 507 690 l 474 690 l 299 189 l 529 189 l 507 690 z "},"Ω":{"ha":1167,"x_min":-31,"x_max":1165,"o":"m 574 103 q 679 283 642 171 q 717 514 717 394 q 695 679 717 633 q 625 725 674 725 q 523 634 554 725 q 492 360 492 543 q 544 103 492 176 l 494 -10 l 397 4 l -6 -4 l -31 26 l 6 342 l 154 354 q 153 283 153 326 q 232 156 153 165 l 300 143 q 185 463 185 271 q 319 785 185 656 q 660 915 453 915 q 936 827 832 915 q 1040 592 1040 739 q 815 142 1040 338 l 892 156 q 967 206 938 163 q 1017 342 996 249 l 1165 354 q 1122 26 1139 154 l 1090 -4 l 699 4 l 597 -10 l 574 103 z "},"π":{"ha":869,"x_min":-12,"x_max":901,"o":"m 733 481 q 728 461 733 481 q 709 363 722 442 q 696 248 696 283 q 714 200 696 213 q 785 188 732 188 l 801 154 q 717 57 800 131 q 611 -17 635 -17 q 479 22 514 -17 q 444 126 444 61 q 467 322 444 146 q 489 510 489 497 q 483 534 489 524 q 453 544 478 544 q 421 536 429 544 q 407 493 413 528 l 351 61 l 338 -71 l 319 -92 l 85 -131 l 74 -107 q 122 179 82 -89 q 163 487 163 447 q 140 526 163 526 q 39 481 111 526 l 25 479 l -12 575 l -8 588 l 128 692 l 150 701 q 408 694 236 701 q 622 688 581 688 q 894 701 714 688 l 901 692 l 864 558 l 853 549 q 766 535 788 549 q 733 481 744 521 z "},"Ẁ":{"ha":1349,"x_min":50,"x_max":1428,"o":"m 954 233 q 1058 540 999 353 q 1118 747 1118 728 q 1112 769 1118 765 q 1083 774 1106 774 l 1051 774 l 1043 788 l 1068 903 q 1268 899 1190 899 l 1428 900 l 1404 779 q 1369 756 1381 771 q 1342 703 1357 742 l 1081 6 l 706 -18 l 697 378 l 678 378 l 557 6 l 182 -18 q 115 685 129 535 q 94 753 106 733 q 58 778 82 772 l 50 792 l 76 901 q 254 899 183 899 l 506 906 l 514 893 l 490 776 q 419 753 439 768 q 400 706 400 738 l 407 233 l 436 233 q 592 697 533 506 q 601 735 599 728 q 592 769 604 761 q 533 778 579 778 l 525 792 l 551 901 q 772 899 692 899 l 1022 906 l 1032 893 l 1008 776 q 935 756 954 771 q 917 706 917 742 l 925 233 l 954 233 m 574 1036 l 564 1058 l 614 1208 l 636 1215 q 982 1076 811 1140 l 953 978 l 926 960 q 574 1036 797 993 z "},"ẁ":{"ha":1150,"x_min":43,"x_max":1199,"o":"m 589 267 l 571 267 l 488 4 l 146 -14 q 93 524 100 438 q 76 578 85 564 q 50 597 68 593 l 43 610 l 65 703 q 215 700 154 700 l 431 704 l 438 694 l 418 594 q 365 519 383 589 q 347 403 347 449 l 347 196 l 374 196 q 489 546 450 410 l 501 583 q 456 597 500 597 q 447 597 451 597 l 440 610 l 463 703 q 653 700 582 700 l 867 704 l 875 694 l 856 594 q 799 578 814 590 q 783 539 783 567 l 785 196 l 811 196 q 887 422 844 283 q 929 574 929 560 q 926 591 929 589 q 906 593 922 593 l 883 593 l 875 606 l 896 703 q 1064 700 1000 700 l 1199 701 l 1179 599 q 1151 579 1161 592 q 1131 539 1142 567 l 931 4 l 589 -14 l 589 267 m 456 836 l 446 858 l 496 1008 l 518 1015 q 864 876 693 940 l 835 778 l 808 760 q 456 836 679 793 m 500 575 l 500 569 l 500 575 z "},"Ẃ":{"ha":1349,"x_min":50,"x_max":1428,"o":"m 954 233 q 1058 540 999 353 q 1118 747 1118 728 q 1112 769 1118 765 q 1083 774 1106 774 l 1051 774 l 1043 788 l 1068 903 q 1268 899 1190 899 l 1428 900 l 1404 779 q 1369 756 1381 771 q 1342 703 1357 742 l 1081 6 l 706 -18 l 697 378 l 678 378 l 557 6 l 182 -18 q 115 685 129 535 q 94 753 106 733 q 58 778 82 772 l 50 792 l 76 901 q 254 899 183 899 l 506 906 l 514 893 l 490 776 q 419 753 439 768 q 400 706 400 738 l 407 233 l 436 233 q 592 697 533 506 q 601 735 599 728 q 592 769 604 761 q 533 778 579 778 l 525 792 l 551 901 q 772 899 692 899 l 1022 906 l 1032 893 l 1008 776 q 935 756 954 771 q 917 706 917 742 l 925 233 l 954 233 m 997 1058 l 988 1036 q 635 960 807 1003 l 608 978 l 579 1076 q 925 1215 722 1129 l 947 1208 l 997 1058 z "},"ẃ":{"ha":1150,"x_min":43,"x_max":1199,"o":"m 589 267 l 571 267 l 488 4 l 146 -14 q 93 524 100 438 q 76 578 85 564 q 50 597 68 593 l 43 610 l 65 703 q 215 700 154 700 l 431 704 l 438 694 l 418 594 q 365 519 383 589 q 347 403 347 449 l 347 196 l 374 196 q 489 546 450 410 l 501 583 q 456 597 500 597 q 447 597 451 597 l 440 610 l 463 703 q 653 700 582 700 l 867 704 l 875 694 l 856 594 q 799 578 814 590 q 783 539 783 567 l 785 196 l 811 196 q 887 422 844 283 q 929 574 929 560 q 926 591 929 589 q 906 593 922 593 l 883 593 l 875 606 l 896 703 q 1064 700 1000 700 l 1199 701 l 1179 599 q 1151 579 1161 592 q 1131 539 1142 567 l 931 4 l 589 -14 l 589 267 m 858 858 l 849 836 q 496 760 668 803 l 469 778 l 440 876 q 786 1015 583 929 l 808 1008 l 858 858 m 500 575 l 500 569 l 500 575 z "},"Ẅ":{"ha":1349,"x_min":50,"x_max":1428,"o":"m 954 233 q 1058 540 999 353 q 1118 747 1118 728 q 1112 769 1118 765 q 1083 774 1106 774 l 1051 774 l 1043 788 l 1068 903 q 1268 899 1190 899 l 1428 900 l 1404 779 q 1369 756 1381 771 q 1342 703 1357 742 l 1081 6 l 706 -18 l 697 378 l 678 378 l 557 6 l 182 -18 q 115 685 129 535 q 94 753 106 733 q 58 778 82 772 l 50 792 l 76 901 q 254 899 183 899 l 506 906 l 514 893 l 490 776 q 419 753 439 768 q 400 706 400 738 l 407 233 l 436 233 q 592 697 533 506 q 601 735 599 728 q 592 769 604 761 q 533 778 579 778 l 525 792 l 551 901 q 772 899 692 899 l 1022 906 l 1032 893 l 1008 776 q 935 756 954 771 q 917 706 917 742 l 925 233 l 954 233 m 915 951 q 817 1044 817 951 q 853 1145 817 1107 q 944 1183 890 1183 q 1049 1089 1049 1183 q 1012 990 1049 1028 q 915 951 975 951 m 654 951 q 557 1044 557 951 q 594 1145 557 1107 q 683 1183 631 1183 q 788 1089 788 1183 q 751 990 788 1028 q 654 951 714 951 z "},"ẅ":{"ha":1150,"x_min":43,"x_max":1199,"o":"m 589 267 l 571 267 l 488 4 l 146 -14 q 93 524 100 438 q 76 578 85 564 q 50 597 68 593 l 43 610 l 65 703 q 215 700 154 700 l 431 704 l 438 694 l 418 594 q 365 519 383 589 q 347 403 347 449 l 347 196 l 374 196 q 489 546 450 410 l 501 583 q 456 597 500 597 q 447 597 451 597 l 440 610 l 463 703 q 653 700 582 700 l 867 704 l 875 694 l 856 594 q 799 578 814 590 q 783 539 783 567 l 785 196 l 811 196 q 887 422 844 283 q 929 574 929 560 q 926 591 929 589 q 906 593 922 593 l 883 593 l 875 606 l 896 703 q 1064 700 1000 700 l 1199 701 l 1179 599 q 1151 579 1161 592 q 1131 539 1142 567 l 931 4 l 589 -14 l 589 267 m 786 765 q 688 858 688 765 q 724 959 688 921 q 815 997 761 997 q 919 903 919 997 q 883 803 919 842 q 786 765 846 765 m 525 765 q 428 858 428 765 q 465 959 428 921 q 556 997 501 997 q 658 903 658 997 q 622 803 658 842 q 525 765 585 765 m 500 575 l 500 569 l 500 575 z "},"Ỳ":{"ha":903,"x_min":56,"x_max":969,"o":"m 461 740 q 507 538 461 694 l 526 538 l 596 696 q 621 760 621 742 q 574 779 621 779 l 571 788 l 596 897 l 811 897 l 965 903 l 969 892 l 944 771 q 775 596 843 714 l 622 343 q 586 214 596 294 q 583 178 583 197 q 594 142 583 158 q 643 126 604 126 l 713 131 l 718 122 l 690 -8 q 407 0 486 0 l 128 -12 l 154 115 q 272 143 242 122 q 308 225 301 164 q 313 268 313 258 q 289 372 313 314 l 178 649 q 61 765 150 722 l 56 774 l 85 900 q 290 897 246 897 l 536 907 l 544 892 l 518 778 q 461 740 461 778 m 332 1036 l 322 1058 l 372 1208 l 394 1215 q 740 1076 569 1140 l 711 978 l 685 960 q 332 1036 556 993 z "},"ỳ":{"ha":789,"x_min":50,"x_max":822,"o":"m 501 697 l 688 699 l 819 703 l 822 694 l 801 590 q 665 456 715 538 l 540 258 q 513 169 513 206 q 522 120 513 133 q 563 107 532 107 l 621 111 l 626 104 l 603 -7 q 356 0 424 0 l 111 -10 l 133 99 q 233 118 207 103 q 265 190 258 133 q 267 217 267 197 q 246 283 267 238 l 149 501 q 56 586 131 540 l 50 592 l 75 701 q 251 699 217 699 l 461 706 l 469 693 l 447 596 q 443 596 446 596 q 406 569 406 596 q 438 433 406 542 l 456 433 l 499 536 q 519 586 519 574 q 483 597 519 599 l 481 604 l 501 697 m 242 836 l 232 858 l 282 1008 l 304 1015 q 650 876 479 940 l 621 778 l 594 760 q 242 836 465 793 z "},"–":{"ha":603,"x_min":-19,"x_max":632,"o":"m 596 276 l -8 275 l -19 301 l 13 447 l 340 447 q 622 450 531 447 l 632 424 l 596 276 z "},"—":{"ha":1113,"x_min":-19,"x_max":1142,"o":"m 1104 276 l -8 275 l -19 301 l 13 447 l 557 447 q 1131 450 1101 447 l 1142 424 l 1104 276 z "},"‘":{"ha":361,"x_min":82,"x_max":394,"o":"m 342 544 q 205 483 263 483 q 115 522 147 483 q 82 628 82 560 q 144 776 82 697 q 314 915 207 854 l 394 851 l 394 817 q 330 747 354 788 q 306 658 306 707 q 346 564 306 608 l 342 544 z "},"’":{"ha":361,"x_min":57,"x_max":369,"o":"m 110 854 q 247 915 189 915 q 337 877 304 915 q 369 770 369 839 q 307 623 369 701 q 138 483 244 544 l 57 547 l 57 582 q 122 650 97 610 q 146 740 146 690 q 106 835 146 790 l 110 854 z "},"‚":{"ha":321,"x_min":-42,"x_max":271,"o":"m 11 201 q 148 263 90 263 q 238 224 206 263 q 271 117 271 186 q 208 -30 271 49 q 39 -169 146 -108 l -42 -106 l -42 -71 q 23 -1 -1 -42 q 47 88 47 39 q 7 182 47 138 l 11 201 z "},"“":{"ha":654,"x_min":161,"x_max":768,"o":"m 715 544 q 578 483 636 483 q 488 522 521 483 q 456 628 456 560 q 518 776 456 697 q 688 915 581 854 l 768 851 l 768 817 q 703 747 728 788 q 679 658 679 707 q 719 564 679 608 l 715 544 m 421 544 q 284 483 342 483 q 194 522 226 483 q 161 628 161 560 q 224 776 161 697 q 393 915 286 854 l 474 851 l 474 817 q 409 747 433 788 q 385 658 385 707 q 425 564 385 608 l 421 544 z "},"”":{"ha":654,"x_min":143,"x_max":750,"o":"m 490 854 q 627 915 569 915 q 717 877 685 915 q 750 770 750 839 q 688 623 750 701 q 518 483 625 544 l 438 547 l 438 582 q 502 650 478 610 q 526 740 526 690 q 486 835 526 790 l 490 854 m 196 854 q 333 915 275 915 q 423 877 390 915 q 456 770 456 839 q 393 623 456 701 q 224 483 331 544 l 143 547 l 143 582 q 208 650 183 610 q 232 740 232 690 q 192 835 232 790 l 196 854 z "},"„":{"ha":606,"x_min":-50,"x_max":553,"o":"m 3 201 q 140 263 82 263 q 230 224 197 263 q 263 117 263 186 q 200 -30 263 49 q 31 -169 138 -108 l -50 -106 l -50 -71 q 15 -1 -10 -42 q 39 88 39 39 q -1 182 39 138 l 3 201 m 293 201 q 430 263 372 263 q 520 224 488 263 q 553 117 553 186 q 490 -30 553 49 q 321 -169 428 -108 l 240 -106 l 240 -71 q 305 -1 281 -42 q 329 88 329 39 q 289 182 329 138 l 293 201 z "},"†":{"ha":706,"x_min":64,"x_max":704,"o":"m 499 824 l 515 810 l 485 593 l 693 600 l 704 581 l 669 424 l 461 424 l 396 -118 l 226 -128 l 214 -115 l 282 422 l 75 422 l 64 436 l 99 594 l 303 593 l 329 814 l 499 824 z "},"‡":{"ha":704,"x_min":24,"x_max":706,"o":"m 499 824 l 515 810 l 486 601 l 693 608 l 706 589 l 671 432 l 463 432 l 442 264 l 653 271 l 664 251 l 629 94 l 421 94 l 396 -118 l 226 -128 l 214 -115 l 240 93 l 35 93 l 24 107 l 58 265 l 261 264 l 283 431 l 76 431 l 65 444 l 100 603 l 304 601 l 329 814 l 499 824 z "},"•":{"ha":458,"x_min":50,"x_max":408,"o":"m 408 371 q 351 212 408 272 q 211 151 294 151 q 50 300 50 151 q 107 460 50 400 q 261 519 164 519 q 370 481 332 519 q 408 371 408 442 z "},"․":{"ha":321,"x_min":-1,"x_max":271,"o":"m 113 -12 q -1 99 -1 -12 q 42 219 -1 174 q 150 264 86 264 q 271 151 271 264 q 227 33 271 78 q 113 -12 183 -12 z "},"‥":{"ha":632,"x_min":-10,"x_max":604,"o":"m 104 -12 q -10 99 -10 -12 q 34 219 -10 174 q 142 264 78 264 q 263 151 263 264 q 219 33 263 78 q 104 -12 175 -12 m 446 -12 q 332 99 332 -12 q 376 219 332 174 q 483 264 419 264 q 604 151 604 264 q 560 33 604 78 q 446 -12 517 -12 z "},"…":{"ha":943,"x_min":6,"x_max":900,"o":"m 431 -12 q 317 99 317 -12 q 360 219 317 174 q 467 264 404 264 q 589 151 589 264 q 545 33 589 78 q 431 -12 501 -12 m 742 -12 q 628 99 628 -12 q 672 219 628 174 q 778 264 715 264 q 900 151 900 264 q 856 33 900 78 q 742 -12 813 -12 m 119 -12 q 6 99 6 -12 q 49 219 6 174 q 156 264 93 264 q 278 151 278 264 q 234 33 278 78 q 119 -12 190 -12 z "},"‰":{"ha":1483,"x_min":33,"x_max":1478,"o":"m 247 594 q 328 610 304 594 q 351 661 351 626 q 251 718 351 718 q 171 703 194 718 q 147 651 147 688 q 247 594 147 594 m 210 403 q 80 453 126 403 q 33 603 33 504 q 106 833 33 751 q 294 915 178 915 q 423 865 378 915 q 468 717 468 815 q 397 485 468 568 q 210 403 325 403 m 801 175 q 882 191 858 175 q 906 242 906 207 q 806 299 906 299 q 725 283 749 299 q 701 232 701 268 q 801 175 701 175 m 764 -17 q 634 34 681 -17 q 588 183 588 85 q 660 414 588 332 q 849 496 732 496 q 977 446 932 496 q 1022 297 1022 396 q 951 66 1022 149 q 764 -17 879 -17 m 1257 175 q 1338 191 1315 175 q 1361 242 1361 207 q 1261 299 1361 299 q 1181 283 1204 299 q 1157 232 1157 268 q 1257 175 1157 175 m 1219 -17 q 1090 34 1136 -17 q 1043 183 1043 85 q 1115 414 1043 332 q 1304 496 1188 496 q 1433 446 1388 496 q 1478 297 1478 396 q 1406 66 1478 149 q 1219 -17 1335 -17 m 865 899 l 879 865 q 504 288 631 481 l 242 -126 l 113 -78 l 104 -54 q 374 351 258 168 l 744 943 l 865 899 z "},"‹":{"ha":364,"x_min":10,"x_max":340,"o":"m 253 586 l 333 538 l 340 506 q 226 322 315 471 q 294 140 260 221 l 281 108 l 189 58 q 10 304 104 183 l 14 342 q 253 586 147 471 z "},"›":{"ha":364,"x_min":24,"x_max":353,"o":"m 110 58 l 29 107 l 24 139 q 136 322 72 210 q 68 504 103 424 l 82 536 l 174 586 q 353 340 240 488 l 349 303 q 110 58 217 174 z "},"⁄":{"ha":260,"x_min":-317,"x_max":458,"o":"m 444 899 l 458 865 q 83 288 210 481 l -179 -126 l -308 -78 l -317 -54 q -47 351 -162 168 l 324 943 l 444 899 z "},"⁰":{"ha":478,"x_min":25,"x_max":446,"o":"m 192 443 q 25 656 25 443 q 94 916 25 821 q 282 1011 163 1011 q 446 797 446 1011 q 378 538 446 632 q 192 443 311 443 m 228 631 q 299 655 279 631 q 319 730 319 679 q 301 799 319 781 q 237 818 282 818 q 171 793 192 818 q 150 707 150 768 q 228 631 150 631 z "},"⁴":{"ha":496,"x_min":-11,"x_max":458,"o":"m -11 572 l 1 672 l 271 1008 l 279 1011 l 426 999 l 389 689 l 449 689 l 458 675 l 433 563 l 375 564 l 367 465 l 356 454 l 186 443 l 176 454 q 196 569 188 510 l -11 572 m 215 801 l 138 689 l 213 689 l 226 801 l 215 801 z "},"⁵":{"ha":436,"x_min":-11,"x_max":447,"o":"m 392 657 q 293 508 392 572 q 72 443 194 443 q 6 470 22 443 q -10 556 -10 497 q -10 575 -10 565 l 18 599 q 96 581 50 581 q 165 594 142 581 q 189 627 189 607 q 158 658 189 647 q 50 679 126 669 l 43 690 l 96 976 l 106 983 l 301 989 q 365 1026 349 989 l 447 1031 l 399 857 l 375 838 q 206 844 297 844 l 199 808 q 347 753 303 789 q 392 657 392 718 z "},"⁶":{"ha":471,"x_min":8,"x_max":438,"o":"m 438 671 q 369 504 438 565 q 185 443 300 443 q 55 492 101 443 q 8 625 8 540 q 49 781 8 710 q 146 892 89 851 q 358 1000 261 975 l 399 1011 l 411 1006 l 432 924 q 254 807 333 889 l 258 796 q 306 811 285 803 q 402 774 367 811 q 438 671 438 738 m 213 561 q 252 580 242 561 q 263 645 263 599 q 234 692 263 692 q 186 679 206 692 q 178 619 178 638 q 213 561 178 561 z "},"⁷":{"ha":433,"x_min":21,"x_max":446,"o":"m 186 1000 l 396 1000 l 446 931 q 260 585 367 789 l 206 444 l 178 444 l 56 482 l 47 508 l 263 858 l 189 850 q 133 832 147 844 q 106 775 118 819 l 21 769 q 68 1000 50 897 l 74 1004 q 186 1000 129 1000 z "},"⁸":{"ha":465,"x_min":3,"x_max":444,"o":"m 3 572 q 100 699 3 660 q 40 828 40 751 q 109 958 40 906 q 263 1011 178 1011 q 396 974 347 1011 q 444 883 444 938 q 358 760 444 801 q 419 638 419 717 q 350 501 419 558 q 191 443 281 443 q 52 480 101 443 q 3 572 3 517 m 157 603 q 200 551 157 551 q 243 590 243 551 q 217 625 243 610 q 206 633 214 628 q 195 640 199 638 q 183 647 192 642 q 169 654 174 651 q 157 603 157 636 m 215 857 q 275 803 215 829 q 290 857 290 831 q 254 894 290 894 q 226 884 236 894 q 215 857 215 874 z "},"⁹":{"ha":471,"x_min":25,"x_max":456,"o":"m 25 783 q 94 949 25 888 q 279 1011 164 1011 q 408 963 361 1011 q 456 829 456 914 q 415 673 456 744 q 318 561 375 601 q 106 453 203 478 l 65 442 l 53 449 l 32 531 q 208 647 129 564 l 206 658 q 158 642 164 644 q 61 679 97 642 q 25 783 25 717 m 231 761 q 276 774 251 761 q 286 835 286 804 q 251 893 286 893 q 211 874 221 893 q 201 808 201 856 q 231 761 201 761 z "},"ⁿ":{"ha":547,"x_min":22,"x_max":543,"o":"m 333 446 q 265 506 265 446 q 293 615 265 525 q 321 725 321 706 q 306 744 321 744 q 264 690 292 744 q 207 551 236 635 l 201 500 q 153 463 199 478 q 49 447 108 447 l 28 471 q 73 745 67 706 q 73 794 79 785 q 47 803 67 803 l 22 803 l 33 885 q 254 897 94 885 l 269 876 q 242 747 250 810 l 249 749 q 350 908 301 875 q 463 881 422 908 q 503 807 503 854 q 477 707 503 788 q 450 615 451 626 l 453 613 q 499 649 460 613 l 524 644 l 543 597 q 420 478 464 510 q 333 446 376 446 z "},"₀":{"ha":478,"x_min":25,"x_max":446,"o":"m 192 -178 q 25 35 25 -178 q 94 295 25 200 q 282 390 163 390 q 446 176 446 390 q 378 -83 446 11 q 192 -178 311 -178 m 228 10 q 299 34 279 10 q 319 109 319 58 q 301 178 319 160 q 237 197 282 197 q 171 172 192 197 q 150 86 150 147 q 228 10 150 10 z "},"₁":{"ha":383,"x_min":-19,"x_max":364,"o":"m 322 293 q 315 276 322 293 q 288 128 308 260 q 267 -41 267 -3 q 294 -79 267 -79 l 335 -78 l 338 -83 l 313 -172 q 165 -167 217 -167 l -19 -176 l -1 -96 q 89 -35 83 -87 q 121 247 121 235 q 116 266 121 258 q 85 274 111 274 l 40 272 l 32 282 l 50 356 q 351 390 60 356 l 364 346 q 322 293 335 326 z "},"₂":{"ha":513,"x_min":-3,"x_max":482,"o":"m 235 192 q 190 226 235 226 q 85 165 144 226 l 65 165 l 54 285 q 274 390 160 390 q 396 355 350 390 q 442 258 442 319 q 399 134 442 197 q 243 -31 356 71 l 247 -39 l 283 -39 q 333 -20 315 -39 q 361 46 351 -1 l 482 54 q 432 -160 446 -75 l 413 -178 q 93 -167 193 -167 l -3 -172 l 0 -71 l 144 64 q 235 192 235 151 z "},"₃":{"ha":447,"x_min":-7,"x_max":404,"o":"m 21 -22 q 102 -40 57 -40 q 172 -26 147 -40 q 196 11 196 -12 q 107 47 196 47 l 94 63 l 94 154 l 157 165 q 214 232 214 186 q 179 260 214 260 q 82 222 144 260 l 67 222 l 47 325 q 154 373 96 356 q 269 390 213 390 q 365 363 325 390 q 404 288 404 335 q 372 205 404 242 q 285 154 339 168 l 285 143 q 403 19 403 99 q 302 -119 403 -60 q 76 -178 201 -178 q 10 -151 26 -178 q -6 -65 -6 -124 q -6 -46 -6 -56 l 21 -22 z "},"₄":{"ha":496,"x_min":-11,"x_max":458,"o":"m -11 -49 l 1 51 l 271 388 l 279 390 l 426 378 l 389 68 l 449 68 l 458 54 l 433 -58 l 375 -57 l 367 -156 l 356 -167 l 186 -178 l 176 -167 q 196 -51 188 -111 l -11 -49 m 215 181 l 138 68 l 213 68 l 226 181 l 215 181 z "},"₅":{"ha":436,"x_min":-11,"x_max":447,"o":"m 392 36 q 293 -113 392 -49 q 72 -178 194 -178 q 6 -151 22 -178 q -10 -65 -10 -124 q -10 -46 -10 -56 l 18 -22 q 96 -40 50 -40 q 165 -27 142 -40 q 189 6 189 -14 q 158 38 189 26 q 50 58 126 49 l 43 69 l 96 356 l 106 363 l 301 368 q 365 406 349 368 l 447 410 l 399 236 l 375 217 q 206 224 297 224 l 199 188 q 347 133 303 168 q 392 36 392 97 z "}}}
